<svg xmlns="http://www.w3.org/2000/svg" xmlns:xlink="http://www.w3.org/1999/xlink" width="82.547" height="73.192" viewBox="0 0 82.547 73.192">
  <defs>
    <linearGradient id="linear-gradient" x1="0.672" y1="-0.597" x2="0" y2="1.191" gradientUnits="objectBoundingBox">
      <stop offset="0" stop-color="#5ba1dd"/>
      <stop offset="1" stop-color="#8164e4"/>
    </linearGradient>
  </defs>
  <g id="test-tube" transform="translate(-970.14 -2492.808)">
    <path id="Path_34" data-name="Path 34" d="M20.34,13.309C18.618-11.4,65.8,15.006,60.591,31.151S38.774,54.737,24.072,54.737-6.2,52.6,2.186,41.776,22.061,38.022,20.34,13.309Z" transform="translate(1026.357 2565.104) rotate(-160)" fill="#fce0e6"/>
    <g id="contract" transform="translate(989.5 2502.784)">
      <path id="Path_209" data-name="Path 209" d="M229.867,98.36a3.161,3.161,0,0,0-5.791-.758l-.526.916a1.053,1.053,0,0,0-1.432.379l-2.675,4.559-.916-.526a1.052,1.052,0,1,0-1.053,1.822l.916.526-8.95,15.51-2.211,5.907-1.053,1.969a3.159,3.159,0,0,0,.169,3.412l-2.369,2.906-.663-1.663a2.106,2.106,0,0,0-3.759-.3l-.379.642-.358-4.212a2.106,2.106,0,0,0-4.1-.495l-2.59,7.771a1.053,1.053,0,0,0,.663,1.327.911.911,0,0,0,.326.084,1.053,1.053,0,0,0,1-.716l2.579-7.771.369,4.274a2.106,2.106,0,0,0,3.906.906l.39-.643.653,1.653a2.106,2.106,0,0,0,3.6.537l2.453-3.106a3.244,3.244,0,0,0,.832.105,3.159,3.159,0,0,0,2.748-1.559l1.053-1.758,4.012-4.875,9.045-15.7.916.526a1.056,1.056,0,0,1,.39,1.443l-4.212,7.3a1.045,1.045,0,1,0,1.779,1.1l4.212-7.3a3.158,3.158,0,0,0-1.158-4.317l-.916-.526,2.632-4.559a1.053,1.053,0,0,0-.379-1.432l.526-.916a3.158,3.158,0,0,0,.316-2.443Zm-3.97.295a1.053,1.053,0,0,1,.643-.495,1.106,1.106,0,0,1,.8.105,1.054,1.054,0,0,1,.5.642,1.106,1.106,0,0,1-.105.8l-.526.916-1.832-1.053Zm-14.351,29.4-.526-.305-1.558-.906,1.5-4,3.317,1.916Zm-3.159,3.043a1.052,1.052,0,0,1-.316-1.379l.526-.916,1.832,1.053-.526.905a1.052,1.052,0,0,1-1.516.337Zm7.086-8.065-3.643-2.106,8.424-14.594,3.643,2.106Zm9.476-16.416-3.643-2.106,2.106-3.643,3.643,2.106Zm0,0" transform="translate(-166.796 -83.348)" fill="url(#linear-gradient)"/>
      <path id="Path_210" data-name="Path 210" d="M75.068,356.85l-3.727,3.717-2.232-2.232a1.054,1.054,0,1,0-1.485,1.5l2.232,2.232a2.123,2.123,0,0,0,2.98,0l3.717-3.727a1.053,1.053,0,0,0-1.485-1.485Zm0,0" transform="translate(-58.453 -309.628)" fill="url(#linear-gradient)"/>
      <path id="Path_211" data-name="Path 211" d="M32,320.991a8.95,8.95,0,0,0,17.9,0,1.053,1.053,0,1,0-2.106,0,6.845,6.845,0,1,1-2.738-5.475,1.053,1.053,0,0,0,1.264-1.685A8.95,8.95,0,0,0,32,320.991Zm0,0" transform="translate(-27.788 -270.937)" fill="url(#linear-gradient)"/>
      <path id="Path_212" data-name="Path 212" d="M100.429,50.145a1.053,1.053,0,1,0,0-2.106H73.053A1.053,1.053,0,0,0,72,49.092V53.3a1.053,1.053,0,0,0,1.053,1.053h27.376a1.053,1.053,0,0,0,0-2.106H74.106V50.145Zm0,0" transform="translate(-62.524 -41.682)" fill="url(#linear-gradient)"/>
      <path id="Path_213" data-name="Path 213" d="M97.053,112.039a1.053,1.053,0,0,0,0,2.106h21.059a1.053,1.053,0,1,0,0-2.106Zm0,0" transform="translate(-83.365 -97.259)" fill="url(#linear-gradient)"/>
      <path id="Path_214" data-name="Path 214" d="M152.218,168.039H129.053a1.053,1.053,0,0,0,0,2.106h23.165a1.053,1.053,0,1,0,0-2.106Zm0,0" transform="translate(-111.153 -145.888)" fill="url(#linear-gradient)"/>
      <path id="Path_215" data-name="Path 215" d="M79.165,217.092a1.053,1.053,0,0,0-1.053-1.053H57.053a1.053,1.053,0,1,0,0,2.106H78.112A1.053,1.053,0,0,0,79.165,217.092Zm0,0" transform="translate(-48.629 -187.571)" fill="url(#linear-gradient)"/>
      <path id="Path_216" data-name="Path 216" d="M256.424,216.039h-7.371a1.053,1.053,0,0,0,0,2.106h7.371a1.053,1.053,0,1,0,0-2.106Zm0,0" transform="translate(-215.359 -187.571)" fill="url(#linear-gradient)"/>
      <path id="Path_217" data-name="Path 217" d="M67.582,258.145a1.053,1.053,0,1,0,0-2.106H57.053a1.053,1.053,0,1,0,0,2.106Zm0,0" transform="translate(-48.629 -222.306)" fill="url(#linear-gradient)"/>
      <path id="Path_218" data-name="Path 218" d="M169.053,258.145h7.371a1.053,1.053,0,1,0,0-2.106h-7.371a1.053,1.053,0,1,0,0,2.106Zm0,0" transform="translate(-145.888 -222.306)" fill="url(#linear-gradient)"/>
      <path id="Path_219" data-name="Path 219" d="M47.382,48.474a1.053,1.053,0,0,0-1.053,1.053V60.057a1.053,1.053,0,0,1-1.053,1.053H3.159a1.053,1.053,0,0,1-1.053-1.053V3.2A1.053,1.053,0,0,1,3.159,2.145H45.276A1.053,1.053,0,0,1,46.329,3.2V22.972a1.053,1.053,0,1,0,2.106,0V3.2A3.159,3.159,0,0,0,45.276.039H3.159A3.159,3.159,0,0,0,0,3.2V60.057a3.159,3.159,0,0,0,3.159,3.159H45.276a3.159,3.159,0,0,0,3.159-3.159V49.527A1.053,1.053,0,0,0,47.382,48.474Zm0,0" transform="translate(0 0)" fill="url(#linear-gradient)"/>
    </g>
  </g>
</svg>
