<svg xmlns="http://www.w3.org/2000/svg" width="17.037" height="14.973" viewBox="0 0 17.037 14.973">
  <g id="download" transform="translate(0 -31.014)">
    <g id="Group_44" data-name="Group 44" transform="translate(0 41.294)">
      <g id="Group_43" data-name="Group 43">
        <path id="Path_161" data-name="Path 161" d="M16.6,339.946a.434.434,0,0,0-.434.434v1.657a1.737,1.737,0,0,1-1.735,1.735H2.6a1.737,1.737,0,0,1-1.735-1.735V340.38a.434.434,0,1,0-.867,0v1.657a2.605,2.605,0,0,0,2.6,2.6H14.435a2.605,2.605,0,0,0,2.6-2.6V340.38A.434.434,0,0,0,16.6,339.946Z" transform="translate(0 -339.946)" fill="#ffffff"/>
      </g>
    </g>
    <g id="Group_46" data-name="Group 46" transform="translate(2.633 43.003)">
      <g id="Group_45" data-name="Group 45">
        <path id="Path_162" data-name="Path 162" d="M90.47,391.3h-10.9a.434.434,0,1,0,0,.867h10.9a.434.434,0,0,0,0-.867Z" transform="translate(-79.133 -391.3)" fill="#ffffff"/>
      </g>
    </g>
    <g id="Group_48" data-name="Group 48" transform="translate(4.019 31.014)">
      <g id="Group_47" data-name="Group 47" transform="translate(0 0)">
        <path id="Path_163" data-name="Path 163" d="M129.656,36.9a.434.434,0,0,0-.612-.035L125.7,39.853V31.448a.434.434,0,1,0-.867,0v8.406l-3.344-2.987a.434.434,0,0,0-.578.647l3.633,3.245a1.084,1.084,0,0,0,1.445,0l3.633-3.245A.434.434,0,0,0,129.656,36.9Z" transform="translate(-120.766 -31.014)" fill="#ffffff"/>
      </g>
    </g>
  </g>
</svg>
