<svg xmlns="http://www.w3.org/2000/svg" xmlns:xlink="http://www.w3.org/1999/xlink" width="1134.751" height="1420.228" viewBox="0 0 1134.751 1420.228">
  <defs>
    <linearGradient id="linear-gradient" x1="0.5" y1="1" x2="0.5" gradientUnits="objectBoundingBox">
      <stop offset="0" stop-color="gray" stop-opacity="0.251"/>
      <stop offset="0.54" stop-color="gray" stop-opacity="0.122"/>
      <stop offset="1" stop-color="gray" stop-opacity="0.102"/>
    </linearGradient>
  </defs>
  <g id="undraw_doctor_kw5l" transform="translate(-12.228 19.352)">
    <path id="Path_912" data-name="Path 912" d="M537.5,209.064c73.531-2.67,143.62-27.471,210.446-54.6S881.005,97.273,952.815,82.9c46.17-9.256,98.971-10.558,136.164,15.3,35.8,24.878,47.363,67.827,53.583,107.677,4.678,29.986,7.392,61.539-5.4,89.616-8.9,19.483-24.7,35.866-35.63,54.533-38.017,64.948-11.141,145.043,30.065,208.513,19.325,29.788,41.745,58.13,56.656,89.8s21.818,67.96,8.765,100.263c-12.936,31.994-43.751,56.067-77.143,72.98-67.818,34.322-147.728,44.141-225.652,49.767-172.492,12.323-81.186-18.767-254.132-24.107-64.006-1.986-166.538-27.042-229.5-37.4-34.965-5.748-159.468-23.683-192.625-132.627-4.736-85.26-38.164-136.76-58.419-168.942-43.434-69.03-86.164-200.549-90-279.464-2.64-54.2,10.6-94.346,64.734-120,56.73-26.908,142.88,1.178,184.73,45.65C362.116,200.282,472.586,211.414,537.5,209.064Z" transform="translate(-56.94 -96.188)" fill="#6c63ff" opacity="0.1"/>
    <path id="Path_913" data-name="Path 913" d="M175.82,783.7s54.885-41.58,65.253-94.47a104.6,104.6,0,0,1,32.142-57.71,175.665,175.665,0,0,1,25.716-19.2" transform="translate(729.416 -58.66)" fill="none" stroke="#535461" stroke-miterlimit="10" stroke-width="2"/>
    <path id="Path_914" data-name="Path 914" d="M149.587,579c-4.81,6.52-6.985,34.15-6.985,34.15s25.716-10.15,30.536-16.66A14.667,14.667,0,1,0,149.587,579Z" transform="translate(885.476 -58.66)" fill="#6c63ff"/>
    <path id="Path_915" data-name="Path 915" d="M185.984,600.68c-.5,8.09,12.643,32.47,12.643,32.47s16.1-22.54,16.605-30.63a14.649,14.649,0,1,0-29.24-1.84Z" transform="translate(802.956 -58.66)" fill="#6c63ff"/>
    <path id="Path_916" data-name="Path 916" d="M233.494,663c3.632,7.24,27.273,21.64,27.273,21.64s2.525-27.6-1.108-34.84A14.654,14.654,0,1,0,233.492,663Z" transform="translate(710.74 -58.66)" fill="#6c63ff"/>
    <path id="Path_917" data-name="Path 917" d="M255.484,717.76c2.365,7.75,23.231,25.94,23.231,25.94s7.155-26.77,4.79-34.53a14.654,14.654,0,1,0-28.021,8.59Z" transform="translate(665.508 -58.66)" fill="#6c63ff"/>
    <path id="Path_918" data-name="Path 918" d="M199.293,652.75c-7.983,1.08-33.22-10.34-33.22-10.34s21.3-17.68,29.318-18.76a14.68,14.68,0,0,1,3.9,29.1Z" transform="translate(826.081 -58.66)" fill="#6c63ff"/>
    <path id="Path_919" data-name="Path 919" d="M218.3,716.46c-7.983-1.37-28.61-19.82-28.61-19.82s25.606-10.48,33.579-9.11a14.679,14.679,0,0,1-4.99,28.931Z" transform="translate(779.085 -58.66)" fill="#6c63ff"/>
    <path id="Path_920" data-name="Path 920" d="M259.454,774.65c-8.093,0-31.544-14.69-31.544-14.69s23.461-14.67,31.554-14.67a14.68,14.68,0,0,1,0,29.36Z" transform="translate(702.254 -58.66)" fill="#6c63ff"/>
    <g id="foliage" transform="translate(-207.213 97.941)">
      <path id="Path_921" data-name="Path 921" d="M1012.207,448.246s-39.467-70.057-98.958-90.24a121.718,121.718,0,0,1-61.61-46.188A204.694,204.694,0,0,1,833.49,279" transform="translate(-574.761 -51.777)" fill="none" stroke="#535461" stroke-miterlimit="10" stroke-width="2"/>
      <path id="Path_922" data-name="Path 922" d="M991.363,272.2c6.776,6.58,38.314,13.393,38.314,13.393s-7.742-31.383-14.518-37.975a17.108,17.108,0,1,0-23.8,24.583Z" transform="translate(-766.73 -57.812)" fill="#6c63ff"/>
      <path id="Path_923" data-name="Path 923" d="M984.025,321.486c9.314,1.843,39.432-9.613,39.432-9.613s-23.517-22.166-32.772-23.975a17.124,17.124,0,1,0-6.659,33.588Z" transform="translate(-742.018 -50.362)" fill="#6c63ff"/>
      <path id="Path_924" data-name="Path 924" d="M945.619,374.043c8.918-3.092,29.187-28.245,29.187-28.245s-31.434-7.21-40.375-4.118a17.122,17.122,0,0,0,11.188,32.364Z" transform="translate(-641.069 -41.46)" fill="#6c63ff"/>
      <path id="Path_925" data-name="Path 925" d="M887.945,404.523c9.314-1.54,33.483-22.948,33.483-22.948s-29.792-12.437-39.094-10.9a17.143,17.143,0,0,0,5.553,33.833Z" transform="translate(-526.404 -36.521)" fill="#6c63ff"/>
      <path id="Path_926" data-name="Path 926" d="M981.522,289.864c.012,9.462-17.114,36.913-17.114,36.913s-17.1-27.416-17.1-36.866a17.091,17.091,0,1,1,34.169,0Z" transform="translate(-675.525 -52.888)" fill="#6c63ff"/>
      <path id="Path_927" data-name="Path 927" d="M920.586,326.714c-2.817,9.03-27.312,30.088-27.312,30.088s-8.149-31.29-5.309-40.319a17.093,17.093,0,0,1,32.6,10.232Z" transform="translate(-548.33 -47.436)" fill="#6c63ff"/>
      <path id="Path_928" data-name="Path 928" d="M868.769,369.62c-1.257,9.333-21.841,34.265-21.841,34.265s-13.284-29.458-12.026-38.826a17.092,17.092,0,1,1,33.867,4.562Z" transform="translate(-437.508 -39.977)" fill="#6c63ff"/>
      <path id="Path_929" data-name="Path 929" d="M991.363,272.2c6.776,6.58,38.314,13.393,38.314,13.393s-7.742-31.383-14.518-37.975a17.108,17.108,0,1,0-23.8,24.583Z" transform="translate(-766.73 -57.812)" opacity="0.25"/>
      <path id="Path_930" data-name="Path 930" d="M984.025,321.486c9.314,1.843,39.432-9.613,39.432-9.613s-23.517-22.166-32.772-23.975a17.124,17.124,0,1,0-6.659,33.588Z" transform="translate(-742.018 -50.362)" opacity="0.25"/>
      <path id="Path_931" data-name="Path 931" d="M945.619,374.043c8.918-3.092,29.187-28.245,29.187-28.245s-31.434-7.21-40.375-4.118a17.122,17.122,0,0,0,11.188,32.364Z" transform="translate(-641.069 -41.46)" opacity="0.25"/>
      <path id="Path_932" data-name="Path 932" d="M887.945,404.523c9.314-1.54,33.483-22.948,33.483-22.948s-29.792-12.437-39.094-10.9a17.143,17.143,0,0,0,5.553,33.833Z" transform="translate(-526.404 -36.521)" opacity="0.25"/>
      <path id="Path_933" data-name="Path 933" d="M981.522,289.864c.012,9.462-17.114,36.913-17.114,36.913s-17.1-27.416-17.1-36.866a17.091,17.091,0,1,1,34.169,0Z" transform="translate(-675.525 -52.888)" opacity="0.25"/>
      <path id="Path_934" data-name="Path 934" d="M920.586,326.714c-2.817,9.03-27.312,30.088-27.312,30.088s-8.149-31.29-5.309-40.319a17.093,17.093,0,0,1,32.6,10.232Z" transform="translate(-548.33 -47.436)" opacity="0.25"/>
      <path id="Path_935" data-name="Path 935" d="M868.769,369.62c-1.257,9.333-21.841,34.265-21.841,34.265s-13.284-29.458-12.026-38.826a17.092,17.092,0,1,1,33.867,4.562Z" transform="translate(-437.508 -39.977)" opacity="0.25"/>
      <path id="Path_936" data-name="Path 936" d="M930.381,455.34s-7.754-80.079-53.926-122.662a122.062,122.062,0,0,1-37.65-67.246A204.917,204.917,0,0,1,835.44,228.1" transform="translate(-497.831 -60.26)" fill="none" stroke="#535461" stroke-miterlimit="10" stroke-width="2"/>
      <path id="Path_937" data-name="Path 937" d="M914.869,208.3c3.493,8.773,29.617,27.813,29.617,27.813s5.612-31.838,2.084-40.611a17.1,17.1,0,1,0-31.7,12.833Z" transform="translate(-604.17 -67.479)" fill="#6c63ff"/>
      <path id="Path_938" data-name="Path 938" d="M920.928,260.149c7.719,5.437,39.932,7.222,39.932,7.222s-12.55-29.8-20.269-35.233a17.114,17.114,0,1,0-19.664,28Z" transform="translate(-616.477 -60.156)" fill="#6c63ff"/>
      <path id="Path_939" data-name="Path 939" d="M900.821,331.328c9.407.793,38.116-14,38.116-14s-25.845-19.366-35.252-20.16a17.128,17.128,0,0,0-2.864,34.136Z" transform="translate(-563.034 -48.76)" fill="#6c63ff"/>
      <path id="Path_940" data-name="Path 940" d="M861.9,379.745c9.139,2.333,39.921-7.315,39.921-7.315s-22.2-23.461-31.34-25.841a17.124,17.124,0,0,0-8.58,33.156Z" transform="translate(-485.752 -40.606)" fill="#6c63ff"/>
      <path id="Path_941" data-name="Path 941" d="M915.744,255.159c-3.819,8.645-30.525,26.833-30.525,26.833s-4.54-32.013-.722-40.658a17.1,17.1,0,0,1,31.247,13.86Z" transform="translate(-539.293 -59.692)" fill="#6c63ff"/>
      <path id="Path_942" data-name="Path 942" d="M877.926,313.06c-6.228,7.1-37.127,16.415-37.127,16.415s5.216-31.908,11.444-39.013a17.105,17.105,0,1,1,25.684,22.6Z" transform="translate(-457.173 -50.838)" fill="#6c63ff"/>
      <path id="Path_943" data-name="Path 943" d="M845.48,373.585c-4.936,8.05-33.82,22.458-33.82,22.458s-.244-32.328,4.657-40.389a17.1,17.1,0,0,1,29.105,17.931Z" transform="translate(-390.336 -40.29)" fill="#6c63ff"/>
      <path id="Path_944" data-name="Path 944" d="M790.331,157.133c-1.933-7.1-4.261-14.245-5.891-21.443C786.4,142.888,788.736,150.051,790.331,157.133Z" transform="translate(-303.381 -75.66)" fill="url(#linear-gradient)"/>
    </g>
    <g id="doctor" transform="translate(175.393 -9.859)">
      <g id="leg_2" data-name="leg 2" transform="translate(125.324 970.14)">
        <path id="Path_9" data-name="Path 9" d="M980.159,979.529l-32.969,6.835-24.515-21.542V903.759l-.558-8.286v-.248h0l-.124-1.781-4.444-67.671s-33.072-112.806-38.1-134.452c-3.638-15.369-2.067-61.706-.93-87.308.5-10.5.93-17.524.93-17.524l72.78-17.669,1.509,56.092,5.333,196.427a108.547,108.547,0,0,0,7.441,36.539c0,.228.186.456.269.663a160.837,160.837,0,0,1,10.563,51.473l2.46,62.452v1.719Z" transform="translate(-877.19 -568.82)" fill="#fbbebe"/>
        <path id="Path_11" data-name="Path 11" d="M934.674,777.385,901.7,784.22,877.19,762.678V757.5a6.857,6.857,0,0,0,3.493,5.572l.351.207a65.513,65.513,0,0,0,37.02,7.333l12.857-1.1a12.853,12.853,0,0,1,3.411.828v1.719Z" transform="translate(-831.705 -366.676)" opacity="0.1"/>
        <path id="Path_12" data-name="Path 12" d="M881.915,798.491l-.372-.186a6.963,6.963,0,0,1-3.535-6.048l-.537-65.641s-7.111-5.075-5.395,18,2.832,57.542,2.832,57.542.29,37.616,36.132,37.616c0,0,35.821,6.835,35.532-13.671s-14.862-21.376-14.862-21.376l-12.857,1.118a65.408,65.408,0,0,1-36.938-7.353Z" transform="translate(-832.483 -400.272)" fill="#a27772"/>
      </g>
      <g id="leg" transform="translate(266.831 993.526)">
        <path id="Path_7" data-name="Path 7" d="M695.03,678.71l3.41,64.378,21.6-5.427,4.568-26.762Z" transform="translate(-691.462 -362.227)" fill="#a27772"/>
        <path id="Path_8" data-name="Path 8" d="M695.03,678.71l3.41,64.378,21.6-5.427,4.568-26.762Z" transform="translate(-691.462 -362.227)" opacity="0.1"/>
        <path id="Path_13" data-name="Path 13" d="M890.083,954.565c-.848,14.789-44.338,6.214-44.338,6.214l-29.289-56.962S792,885.008,804.24,868.479a27.077,27.077,0,0,0,1.819-2.8v-.166h0a13.919,13.919,0,0,0,.723-1.346h0c8.764-17.441,4.444-46.067,4.444-46.067s-11.348-83.165-15.337-105.122c-2.811-15.494-1.654-66.283-.723-94.744.372-11.828.723-19.761.723-19.761l72.2-19.367v21.583c.165,17.834.7,42.794,2.542,59.034,3.121,27.611-7.958,119.062-7.958,119.062l-3.824,83.227a77.292,77.292,0,0,0,9.384,40.5c9.054,16.571,20.856,40,21.683,50.355A9.555,9.555,0,0,1,890.083,954.565Z" transform="translate(-794.12 -579.11)" fill="#fbbebe"/>
        <path id="Path_14" data-name="Path 14" d="M883.377,806.342c-.848,14.79-44.338,6.214-44.338,6.214L809.75,755.594s-24.453-18.808-12.216-35.337a27.059,27.059,0,0,0,1.819-2.8c.393,8.658,9.859,30.118,9.859,30.118s24.164,48.449,31.832,59.552,41.072-2.071,42.312-2.548a9.559,9.559,0,0,1,.021,1.761Z" transform="translate(-787.414 -430.887)" opacity="0.1"/>
        <path id="Path_15" data-name="Path 15" d="M794.51,716.769s-14.3-3.335-10.046,33.991h0a24.1,24.1,0,0,0,11.327,21.314c10.335,6.442,26.024,20.3,34,47.268h0a25.777,25.777,0,0,0,19.843,25.126c12.9,3.024,28.938,5.676,38.3,3.066,17.342-4.826,9.674-16.8,9.674-16.8L877.708,807.1s-34.685,13.671-42.353,2.548-31.811-59.469-31.811-59.469S790.252,719.9,794.51,716.769Z" transform="translate(-781.745 -431.709)" fill="#a27772"/>
      </g>
      <g id="head" transform="translate(21.157)">
        <path id="Path_21" data-name="Path 21" d="M874.7,143.125c12.4,16.944-.145,41.034,13.167,57.5,4.382,5.427,11.141,9.321,15.709,14.665,8.5,9.9,8.165,23.365,3.989,34.985s-11.7,22.246-16.888,33.6c-2.253,4.909-4.134,10.357-1.716,15.307,1.612,3.4,4.981,5.986,7.607,8.907,8.537,9.57,8.785,22.785,4.134,34.115s-13.374,20.962-22.034,30.47c-3.411,3.749-7.731,7.871-13.415,7.768a18.576,18.576,0,0,1-8.433-2.755,89.019,89.019,0,0,1-42.746-50.4c-6.449-20.279-4.568-42.111,3.659-61.934,7.193-17.3,19.2-33.846,19.306-52.136,0-14.5-7.421-28.315-8.743-42.753-1.612-17.524,8.764-45.383,29.868-53.027C856.822,128.687,868.418,134.508,874.7,143.125Z" transform="translate(-579.304 -82.27)" fill="#7c5c5c"/>
        <path id="Path_22" data-name="Path 22" d="M874.7,143.125c12.4,16.944-.145,41.034,13.167,57.5,4.382,5.427,11.141,9.321,15.709,14.665,8.5,9.9,8.165,23.365,3.989,34.985s-11.7,22.246-16.888,33.6c-2.253,4.909-4.134,10.357-1.716,15.307,1.612,3.4,4.981,5.986,7.607,8.907,8.537,9.57,8.785,22.785,4.134,34.115s-13.374,20.962-22.034,30.47c-3.411,3.749-7.731,7.871-13.415,7.768a18.576,18.576,0,0,1-8.433-2.755,89.019,89.019,0,0,1-42.746-50.4c-6.449-20.279-4.568-42.111,3.659-61.934,7.193-17.3,19.2-33.846,19.306-52.136,0-14.5-7.421-28.315-8.743-42.753-1.612-17.524,8.764-45.383,29.868-53.027C856.822,128.687,868.418,134.508,874.7,143.125Z" transform="translate(-579.304 -82.27)" opacity="0.1"/>
        <path id="Path_26" data-name="Path 26" d="M857.238,179.126a509.232,509.232,0,0,1-5.126,59.365c-2.274,14.023-5.54,26.513-10.232,32.085-13.58,16.219,66.558,38.009,66.558,38.009l47.335-36.767s-37.516-34.592-20.029-68.355S857.238,179.126,857.238,179.126Z" transform="translate(-686.916 -17.479)" fill="#fbbebe"/>
        <ellipse id="Ellipse_2" data-name="Ellipse 2" cx="73.338" cy="73.492" rx="73.338" ry="73.492" transform="translate(149.921 66.799)" opacity="0.1"/>
        <ellipse id="Ellipse_3" data-name="Ellipse 3" cx="73.338" cy="73.492" rx="73.338" ry="73.492" transform="translate(149.921 65.08)" fill="#fbbebe"/>
        <path id="Path_50" data-name="Path 50" d="M1130.691,183.652c2.625-6.421.62-13.857-2.542-20.03s-7.88,8.064-10.257,1.519c-3.514-9.735-2.439-20.714-6.2-30.345-6.738-16.861-25.941-24.4-43.139-30.138-5.085-1.7-10.5-3.4-15.709-2.071-6.883,1.657-11.472,7.975-17.156,12.221-23.378,17.462-49.381,4.872-71.953,23.328-8.64,7.084-13.687,11.636-14.99,22.759s-11.137,22.475-10.993,33.66c.372,19.6-3.287,41.013-17.921,54-4.4,3.915-9.612,6.856-13.89,10.9s-7.71,9.715-6.945,15.556a54.157,54.157,0,0,0,2.336,7.913c2.915,10.212-1.426,21.045-6.718,30.221-15.792,27.383-43.635,49.94-75.2,50.583,2.067,15.949,18.6,25.208,33.341,31.754,18.6,8.285,38.364,16.571,58.786,15.473s41.609-14.23,45.123-34.405c1.24-6.9,1.075-15.39,7.069-19.015,3.617-2.2,8.268-1.657,12.2-3.293,5.643-2.382,8.433-8.679,10.335-14.5a130.955,130.955,0,0,0,6.056-37.285c.248-14.976-1.343-51.211,7.132-63.535,7.855-11.434,21.812-17.213,30.845-27.715,8.268-9.715,17.446-21.459,31.129-23.324C1080.276,185.33,1119.446,211.118,1130.691,183.652Z" transform="translate(-819.414 -98.693)" opacity="0.1"/>
        <path id="Path_51" data-name="Path 51" d="M1130.9,182.5c2.625-6.421.62-13.857-2.542-20.03s-7.482-11.807-9.859-18.352c-3.514-9.735-3.043-1.344-6.805-10.976-6.738-16.861-25.941-24.4-43.139-30.138-5.085-1.7-10.5-3.4-15.709-2.071-6.883,1.657-11.472,7.975-17.156,12.221-23.378,17.462-56.451,3.635-79.022,22.091-8.64,7.084-12.857,18.394-14.159,29.517s-4.9,16.954-4.754,28.14c.372,19.6-3.287,41.013-17.921,54-4.4,3.915-9.612,6.856-13.89,10.9s-7.71,9.715-6.945,15.556a54.154,54.154,0,0,0,2.336,7.913c2.915,10.212-1.426,21.045-6.718,30.221-15.792,27.383-43.635,49.94-75.2,50.583,2.067,15.949,18.6,25.208,33.341,31.754,18.6,8.285,38.364,16.571,58.786,15.473s41.609-14.23,45.123-34.3c1.24-6.9,1.075-15.39,7.069-19.015,3.617-2.2,8.268-1.657,12.2-3.293,5.643-2.382,8.433-8.679,10.335-14.5A130.955,130.955,0,0,0,992.32,300.9c.248-14.976-1.134-50.709,7.341-63.034,7.855-11.434,21.808-17.213,30.841-27.715,8.268-9.715,17.446-21.459,31.129-23.324C1080.483,184.181,1119.653,209.969,1130.9,182.5Z" transform="translate(-819.414 -100.461)" fill="#7c5c5c"/>
        <g id="Group_5" data-name="Group 5" transform="translate(0.289 25.31)" opacity="0.1">
          <path id="Path_54" data-name="Path 54" d="M831.865,141.285c-3.307-9.155-2.6-19.409-5.7-28.605a32.683,32.683,0,0,1,3.555,6.546c3.845,9.611,2.749,20.714,6.2,30.345a1.692,1.692,0,0,0,.227.58,53.407,53.407,0,0,1-4.279-8.865Z" transform="translate(-538.287 -112.68)"/>
          <path id="Path_55" data-name="Path 55" d="M848.521,328.122c18.6,8.285,37.746,32.442,58.188,31.344s41.733-14.168,45.474-34.343c1.22-6.9,1.075-15.39,7.049-19.015,3.617-2.2,8.268-1.657,12.216-3.293,5.643-2.382,8.433-8.679,10.335-14.5a130.247,130.247,0,0,0,6.077-37.284c.248-14.976-1.118-47.211,7.357-59.536,7.855-11.434,21.786-17.213,30.84-27.715,8.268-9.715,17.425-21.459,31.129-23.324,18.789-2.568,57.877,23.22,69.142-4.143a21.728,21.728,0,0,0-.723-15.888c.806,1.367,1.592,2.734,2.315,4.143,3.162,6.214,5.167,13.609,2.542,20.03-11.183,27.466-50.353,1.678-69.142,4.143-13.7,1.864-22.737,13.609-31.129,23.323-9.054,10.5-22.985,16.281-30.84,27.715-8.475,12.325-7.109,44.56-7.357,59.536a130.244,130.244,0,0,1-6.077,37.284c-1.84,5.841-4.63,12.138-10.335,14.5-3.907,1.636-8.6,1.1-12.216,3.293-5.974,3.625-5.829,12.117-7.048,19.015-3.638,20.175-24.949,33.307-45.474,34.343s-40.121-7.125-58.807-15.473c-13.456-6.007-28.442-14.313-32.473-27.963C826.013,333.223,838.041,323.441,848.521,328.122Z" transform="translate(-819.564 -85.115)"/>
        </g>
      </g>
      <g id="coat" transform="translate(0 212.264)">
        <path id="Path_490" data-name="Path 490" d="M742.254,542.776h0c0-.112-5.031-41.69-11.981-48.3s-15.878-45.419-15.878-45.419-1.526-21.057-4.64-25.59-7.32-15.631-13.527-31.463-32.086-26.8-32.086-26.8-46.789-29.386-60.048-38.966h0a20.569,20.569,0,0,1-3.361-2.747c-2.31-3.283-12.476-1.319-12.476-1.319-1.052-7.19-20.375,44.276-20.929,50.891-1.7-2.169-58.617-56.215-61.244-56.134-.886-.047-5.714-4.612-6.579-4.4l-.186-.156h0l-1.545,2.708c-4.537,1.206-8.58,3.812-13.921,18.349,0,0-16.249,19.829-28.622,19s-43.7,20.633-43.7,20.633-30.56,21.481-37.117,43.365a321.213,321.213,0,0,1-13.156,36.353l-37.777,84.3h0l-6.97,66.879s3.856,29.744,3.093,34.277,15.858,45.419,15.858,45.419S390.38,788.139,412.815,793.5l1.609-1.228a12.549,12.549,0,0,0,3.031,1.228l4.619-3.528a58.981,58.981,0,0,1-.351,11.79c-3.093,10.317,1.155,77.642,6.557,90.839s3.485,186.233,3.485,186.233L431,1094.106a6.985,6.985,0,0,0,.185,1.34l-.185,3.617.557.313c.578,4.845,84.97,39.588,86.711,28.806.309-1.63.68-3.216,1.072-4.779a249.025,249.025,0,0,0,38.85,3.193c4.743,0,9.568,0,14.434-.312,0,1.489,85.424-7.654,84.9-11.567-.185-1.563-.371-3.193-.577-4.8,10-2.746,16.5-5.292,16.5-5.292l-1.155-146.6c8.5-17.864,10.063-57.053,10.022-84.854,0-17.864-.742-31.083-.742-31.083l11.61-20.521s2.681-24.563-1.567-29.945c-1.876-2.434-1.031-4.957.516-7.034a21.578,21.578,0,0,1,2.536-1.876s-.124-.2-.268-.491a20.593,20.593,0,0,1,2.578-1.987s-1.907-7.1,1.784-10.024c-3.28-9.263-20.469-70.2-20.469-70.2s33.481,2.721,40.511,0,23.656-21.073,27.545-26.343,5.816-8.674,5.816-15.915-.042-4.446-3.256-13.886-6.648-61.035-6.648-61.035-12.516-10.584-5.766-16.552S742.254,542.776,742.254,542.776ZM408.2,576.36l.351,9.356c-2.062-3.6-3.547-6.185-3.547-6.185Z" transform="translate(-316.516 -312.374)" fill="url(#linear-gradient)"/>
        <path id="Path_493" data-name="Path 493" d="M503.992,487.715l-31.117,566.068-40.582,2.88L327.21,728.433l17.239-389.682,3.629-82.331,46.727,41.556,23.075,20.477,18.043-49.729,33.55,31.664Z" transform="translate(-164.656 -250.436)" fill="#6c63ff"/>
        <path id="Path_495" data-name="Path 495" d="M429.669,690.195a42.315,42.315,0,0,1-10.2,2.814c-.2-11.165-.323-18.846-.323-18.846l10.252-5Z" transform="translate(-151.411 127.555)" opacity="0.1"/>
        <path id="Path_497" data-name="Path 497" d="M568.3,1122.012c-84.545,15.631-162-29.185-162-29.185l.763-15.184s1.918-172.143-3.423-185.34-9.465-80.12-6.434-90.392-10.991-164.3-10.991-164.3l-2.289-62.524L300.87,538.527l37.117-83.783A322.966,322.966,0,0,0,350.9,418.569c6.434-21.749,36.416-43.119,36.416-43.119s30.725-21.348,42.85-20.544,28.065-18.891,28.065-18.891c11.774-32.446,24.745-17.752,24.745-17.752,0,1.541-1.237,2.233-.577,4.8,9.073,34.545,64.419,148.16,65.43,150.147h0l6.826,177.882,6.826,225.11Z" transform="translate(-290.044 -309.196)" fill="#ecf6fb"/>
        <path id="Path_498" data-name="Path 498" d="M459.625,475.424c-9.094-4.109-57.264-63.663-57.264-63.663V398.207c-1.753-4.466-12.166-1.742-20.621,1.384l3.629-82.331,4.124,3.707C398.525,355.489,458.573,473.437,459.625,475.424Z" transform="translate(-204.153 -306.341)" opacity="0.1"/>
        <path id="Path_499" data-name="Path 499" d="M460.746,473.214c-9.114-4.109-57.285-63.663-57.285-63.663V396c-1.753-4.466-12.166-1.742-20.621,1.384l3.65-82.331,4.124,3.707C399.667,353.279,459.735,471.249,460.746,473.214Z" transform="translate(-202.985 -309.066)" fill="#ecf6fb"/>
        <path id="Path_500" data-name="Path 500" d="M355.5,522.515c1.134,0,58.79-6.565,58.79-6.565s34.911,74.337,32.622,92.424-6.434,34.1-20.476,31.262-75.575,2.233-75.575,2.233Z" transform="translate(-236.951 -61.354)" opacity="0.1"/>
        <path id="Path_501" data-name="Path 501" d="M354.39,520.305c1.134,0,58.79-6.565,58.79-6.565S448.07,588.1,445.8,606.164s-6.454,34.1-20.476,31.262-75.575,2.233-75.575,2.233Z" transform="translate(-238.129 -64.079)" fill="#ecf6fb"/>
        <path id="Path_502" data-name="Path 502" d="M389.309,501.05s52.913,30.793,54.047,40.194-26.931-4.109-32.993-5.739a70.165,70.165,0,0,0-12.146-2.054l-40.437,1.184Z" transform="translate(-229.601 -79.726)" fill="#fbbebe"/>
        <ellipse id="Ellipse_50" data-name="Ellipse 50" cx="5.568" cy="6.029" rx="5.568" ry="6.029" transform="translate(235.139 160.866)" opacity="0.1"/>
        <ellipse id="Ellipse_51" data-name="Ellipse 51" cx="5.568" cy="6.029" rx="5.568" ry="6.029" transform="translate(235.139 158.41)" fill="#3f3d56"/>
        <ellipse id="Ellipse_52" data-name="Ellipse 52" cx="5.568" cy="6.029" rx="5.568" ry="6.029" transform="translate(245.388 421.86)" opacity="0.1"/>
        <ellipse id="Ellipse_53" data-name="Ellipse 53" cx="5.568" cy="6.029" rx="5.568" ry="6.029" transform="translate(245.388 419.381)" fill="#3f3d56"/>
        <ellipse id="Ellipse_54" data-name="Ellipse 54" cx="5.568" cy="6.029" rx="5.568" ry="6.029" transform="translate(240.686 291.363)" opacity="0.1"/>
        <ellipse id="Ellipse_55" data-name="Ellipse 55" cx="5.568" cy="6.029" rx="5.568" ry="6.029" transform="translate(240.686 288.907)" fill="#3f3d56"/>
        <path id="Path_503" data-name="Path 503" d="M533.151,757.237s3.774,6.163,0,9.044.351,9.847.351,9.847-9.4,6.074-5.279,11.478,1.526,29.811,1.526,29.811l-11.383,20.41s.68,13.152.742,30.927c0,27.734-1.505,66.722-9.836,84.5l1.134,145.838s-39.922,15.765-73.245,10.964l-4.928-234.019s7.217-132.708,9.877-158.164a284.075,284.075,0,0,0,1.876-39.859s-1.134-39.837-4.928-58.326c0,0-4.124-80.1-4.557-102.272-.186-10.607.351-41.556.907-70.987.639-32.178,1.361-62.524,1.361-62.524l-9.939-65.36s9.939,0,12.228,3.327a19.835,19.835,0,0,0,3.3,2.747h0c12.991,9.513,58.914,38.765,58.914,38.765S526.656,374.321,532.739,390s10.31,26.8,13.28,31.262,4.537,25.456,4.537,25.456,8.743,38.631,15.569,45.174,11.754,48.077,11.754,48.077l-60.316,51.359s-5.3,85.435-6.454,88.74S533.151,757.237,533.151,757.237Z" transform="translate(-156.264 -304.762)" fill="#ecf6fb"/>
        <path id="Path_504" data-name="Path 504" d="M459.737,400.158l5.444,17.194-28.663,31.262c.639-32.155,1.361-62.524,1.361-62.524l-9.939-65.36s9.939,0,12.228,3.327a19.057,19.057,0,0,0,3.3,2.724h0l24.374,76.146Z" transform="translate(-155.085 -302.062)" opacity="0.1"/>
        <path id="Path_505" data-name="Path 505" d="M458.627,397.948l5.465,17.194L435.429,446.4c.639-32.178,1.361-62.524,1.361-62.524l-9.96-65.36s9.96,0,12.228,3.327a20.907,20.907,0,0,0,3.3,2.747h0l24.394,76.123Z" transform="translate(-156.264 -304.787)" fill="#ecf6fb"/>
        <path id="Path_506" data-name="Path 506" d="M328.134,458.272,306.585,415.13,299.76,481.7s3.794,29.565,3.031,34.1,15.548,45.174,15.548,45.174,53.882,103.924,75.885,109.284l74.338-57.522L448.849,585.62s-6.825-2.881-8.537,0c0,0-36.6-68.2-40.4-73.131s-3.052-14.782-3.052-14.782-5.691-6.565-3.794-12.728-10.991-27.533-10.991-27.533l11.754-11.9Z" transform="translate(-291.223 -185.666)" opacity="0.1"/>
        <path id="Path_507" data-name="Path 507" d="M310.067,412.93l-5.691,4.913-6.826,66.566s3.794,29.565,3.031,34.1,15.569,45.174,15.569,45.174S370.012,667.6,392.014,672.964l74.359-57.522-19.734-27.109s-6.825-2.881-8.537,0c0,0-36.6-68.2-40.4-73.131s-3.031-14.783-3.031-14.783-5.691-6.565-3.794-12.728-11.012-27.533-11.012-27.533l11.754-11.9Z" transform="translate(-293.57 -188.379)" fill="#ecf6fb"/>
        <path id="Path_508" data-name="Path 508" d="M497.048,551.67c4.124,5.426,1.526,29.788,1.526,29.788l-11.383,20.41s.68,13.175.722,30.927l-19.136,6.476a10.668,10.668,0,0,1-10.259-1.946,12.71,12.71,0,0,1-4.485-10.179l3.3-115.246,44.644,18.489c-3.794,2.858.371,9.87.371,9.87S492.882,546.244,497.048,551.67Z" transform="translate(-127.378 -66.348)" opacity="0.1"/>
        <path id="Path_509" data-name="Path 509" d="M498.168,550.548c4.124,5.426,1.526,29.811,1.526,29.811l-11.383,20.41s.68,13.152.742,30.927l-19.487,6.588a10.456,10.456,0,0,1-10.042-1.915,12.455,12.455,0,0,1-4.392-9.965l3.32-115.6,44.665,18.489c-3.815,2.858.35,9.848.35,9.848S494.044,545.144,498.168,550.548Z" transform="translate(-126.21 -67.704)" fill="#ecf6fb"/>
      </g>
      <g id="hand" transform="translate(177.46 210.596)">
        <path id="Path_946" data-name="Path 946" d="M560.784,359.268l5.6,2.479S602.9,503.911,602.9,515.4s-77.431,75.423-77.431,75.423L513.39,509.1S530.738,321.7,560.784,359.268Z" transform="translate(-355.953 -226.657)" fill="#ecf6fb"/>
        <path id="Path_961" data-name="Path 961" d="M597.029,511.55s-21.372,5.277-25.406,17.384,15.8,12.416,15.8,12.416S599.5,519.933,597.029,511.55Z" transform="translate(-404.281 -236.776)" opacity="0.1"/>
        <path id="Path_967" data-name="Path 967" d="M578.57,522.879l7.124,2.489s-2.8,42.217,6.536,54.324S561.567,621.9,561.567,621.9s-54.827-.309-56.376-4.678,2.8-78.221,2.8-78.221,29.43-11.49,26.956-29.8c0,0,8.982,43.143,22.3,41.281S585.675,537.475,578.57,522.879Z" transform="translate(-338.725 -236.625)" fill="#ecf6fb"/>
        <ellipse id="Ellipse_102" data-name="Ellipse 102" cx="18.795" cy="17.225" rx="18.795" ry="17.225" transform="translate(197.287 292.467)" opacity="0.1"/>
        <path id="Path_968" data-name="Path 968" d="M497.768,518.791s3.735-114.225,36.246-88.775,32.829,55.887,26.638,64.878S534.611,548.9,534.611,548.9h0A22.706,22.706,0,0,1,501,533.93Z" transform="translate(-302.236 -231.292)" fill="#ffc1c7"/>
        <path id="Path_969" data-name="Path 969" d="M516.608,220.873c.152-.5,2.106-1.888,2.5-2.229,1.606-1.469,5.077-.449,10.287,0l-.973,2.229c-6.947-.6-11.823.736-11.261,3.622,1.522,7.626.278,5.99,2.781,10.588,4.034,6,23.784,27.437,29.751,31.816l.523-.6c2.67,2.32,26.143,22.914,27.413,30.8.822,4.95,6.386,6.868,8.4,7.4,2.129-1.619,6.754-4.047,10.348-10.223,3.371-5.81,22.56-38.3,21.365-42.728l-11.741-17.6a11.543,11.543,0,0,1,1.5-2.679c2.994.857,11.656,12.967,14,20.283,2.038,5.65-4.305,13.3-6.578,17.209-3.884,6.69-23.3,37.333-25.785,39.223.794,7.223,5.042,49.028,12.633,59.077,9.43,12.491,17.357,75.442,16.48,97.42-.775,19.527,4.314,56.411,21.307,72.251a27.2,27.2,0,0,0,22.474,7.485h.411c.243,0,24.892,2.526,45.6-14.97,16.947-14.287,26.545-37.6,28.543-69.323H737l.168-9.235a17.969,17.969,0,1,1,2.68.215h-.205l-.168,9.179.822.056c-2.054,32.748-12.138,56.972-29.878,71.933a69,69,0,0,1-48.188,15.8,34.624,34.624,0,0,1-3.735.206,30.592,30.592,0,0,1-21.475-8.655c-17.9-16.7-23.342-54.942-22.493-75.133.934-23.288-7.385-83.975-15.733-95.025-8.179-10.844-13.137-53.1-14.005-61.285-2.96-.833-9.654-3.462-10.794-10.292-.822-4.94-16.5-20.163-26.143-28.594l.289-.337c-5.191-3.8-21.034-22.226-29.035-29.917-2.484-2.386-4.31-8.219-4.032-12.538C515.913,222.824,514.595,223.757,516.608,220.873Z" transform="translate(-512.519 -217.88)" opacity="0.1"/>
        <path id="Path_970" data-name="Path 970" d="M682.084,345.028c.392-.271,26.2-41.8,30.859-49.827,4.837-8.337-12.222-24-12.409-24.708l-2.385.742c1.186,4.416,14.906,16.293,11.536,22.094-4.248,7.326-29.676,48.917-29.769,48.982Z" transform="translate(-605.534 -255.884)" fill="#353146"/>
        <path id="Path_971" data-name="Path 971" d="M1.189,0,0,1.642c.244.176,24.19,17.535,27.964,23.15l.122.168.175.115c.076.053,7.707,5,8.951,11.238a8.482,8.482,0,0,1-1.523,6.714l-.175.26v.183c-.152.2-1.273,1.321-6.944.831L28.4,46.324c4.261.368,7.074-.052,8.384-1.251a2.29,2.29,0,0,0,.694-1.062,10.448,10.448,0,0,0,1.721-8.1c-.847-4.224-4.057-7.792-6.6-10.03-2.1-1.857-4.117-3.82-6.137-5.753C18.8,12.767,2.027.6,1.189,0Z" transform="matrix(-0.995, -0.105, 0.105, -0.995, 39.184, 50.898)" fill="#e8f5ff"/>
        <rect id="Rectangle_178" data-name="Rectangle 178" width="2.474" height="15.073" transform="translate(228.059 244.67) rotate(-178.95)" fill="#e8f5ff"/>
        <ellipse id="Ellipse_103" data-name="Ellipse 103" cx="18.067" cy="18.105" rx="18.067" ry="18.105" transform="translate(210.47 195.627)" fill="#6c63ff"/>
        <ellipse id="Ellipse_104" data-name="Ellipse 104" cx="15.004" cy="15.036" rx="15.004" ry="15.036" transform="translate(213.533 198.696)" fill="#e8f5ff"/>
        <path id="Path_972" data-name="Path 972" d="M643.331,550.12a34.591,34.591,0,0,0,3.735-.2,69.1,69.1,0,0,0,48.188-15.8c17.74-14.971,27.805-39.167,29.878-71.943l-3.735-.234c-2,31.719-11.6,55.045-28.552,69.323-20.709,17.45-45.349,14.97-45.592,14.97h-.411a27.256,27.256,0,0,1-22.483-7.485c-16.984-15.841-22.073-52.724-21.3-72.251.934-22-6.993-84.948-16.433-97.43-8.263-10.938-13.389-60.237-13.445-60.733l-.14-1.4-1.382-.243c-.084,0-8.151-1.534-9.16-7.579-1.307-7.878-24.743-28.472-27.4-30.8l-2.437,2.807c9.682,8.421,25.359,23.653,26.143,28.6,1.139,6.849,7.834,9.469,10.784,10.292.934,8.2,5.854,50.441,14.005,61.285,8.347,11.05,16.666,71.737,15.733,95.025-.8,20.191,4.584,58.441,22.483,75.133A30.6,30.6,0,0,0,643.331,550.12Z" transform="translate(-496.174 -221.125)" fill="#353146"/>
        <path id="Path_980" data-name="Path 980" d="M610.966,398.42s-6.48,44.706-3.287,62.913S599.22,502.1,599.22,502.1Z" transform="translate(-444.155 -229.497)" opacity="0.1"/>
      </g>
    </g>
    <path id="Path_981" data-name="Path 981" d="M353.43,417.85c7.983,6.27,13.811,21.11,18.032,37.42,7.365,28.45,9.77,61.44,9.77,61.44s63.566-14.6,58.936-21.23c-2.914-4.17,1-35.59,4.261-58.37,1.946-13.46,3.682-23.91,3.682-23.91S331.576,400.59,353.43,417.85Z" transform="translate(418.739 -58.66)" fill="#ffccd0"/>
    <path id="Path_982" data-name="Path 982" d="M353.43,416.52c7.983,6.28,13.811,21.11,18.032,37.42a73.238,73.238,0,0,0,72.967-18.15c1.946-13.47,3.682-23.92,3.682-23.92S331.576,399.27,353.43,416.52Z" transform="translate(418.739 -58.66)" opacity="0.1"/>
    <path id="Path_983" data-name="Path 983" d="M332.45,380.78a73.554,73.554,0,1,0,16.176-46.08A73.636,73.636,0,0,0,332.45,380.78Z" transform="translate(405.32 -58.66)" fill="#ffccd0"/>
    <path id="Path_985" data-name="Path 985" d="M429.608,834.57c73.837-5.953,110.332-11.907,110.332-11.907S520.8,745,510.108,706a.507.507,0,0,1,0-.1,156.233,156.233,0,0,0-4.83-15.65h0a5.378,5.378,0,0,0-.469-1c-5.289-8.62-11.915-17.91-2.644-31.18s5.987-71.66,5.987-71.66S496.9,536.64,484.981,510.1a35.7,35.7,0,0,0-7.564-11,30.943,30.943,0,0,0-3.313-2.82h0a29.1,29.1,0,0,0-2.774-1.85l-.19-.12a39.975,39.975,0,0,0-16.3-5.07,46.4,46.4,0,0,0-12.224.34c-19.319,2.84-34.787,7.59-47.081,13-33.32,14.67-43.409,34.33-43.608,34.74h0l-.08.17c-1.337,3.13-20.9,48.89-27.941,70.24-1.826,5.56-2.824,9.47-2.425,10.54,2,5.3-15.228,71.65-15.228,71.65s-7.983,32-15.966,69.51c-.349,1.56-.679,3.12-1,4.7-1.427,6.81-2.844,13.75-4.211,20.68-2.649,14.282-7.953,19.365-8.02,33.892,4.044,1.584,26.649,13.977,70.886,16.929C371.129,837.178,403.986,836.635,429.608,834.57Z" transform="translate(401.511 -58.66)" fill="#ff748e"/>
    <path id="Path_986" data-name="Path 986" d="M446.4,466.42s18.132-7,17.912,3.62-4.421,15.7-3.094,17.25-.659,10.84-.659,10.84-24.5,0-35.755,5.08-52.749,15.26-58.048,18.36-24.948,17-24.948,17l-1.766-26.32s20.307-16.81,53.627-25.43S446.4,466.42,446.4,466.42Z" transform="translate(413.003 -58.66)" opacity="0.1"/>
    <path id="Path_987" data-name="Path 987" d="M446.425,465.09s18.132-7,17.912,3.62-4.421,15.7-3.094,17.25-.659,10.84-.659,10.84-24.5,0-35.755,5.09-52.749,15.26-58.048,18.35-24.948,17-24.948,17L340.048,511s20.307-16.81,53.627-25.43S446.425,465.09,446.425,465.09Z" transform="translate(412.984 -58.66)" fill="#ff748e"/>
    <path id="Path_988" data-name="Path 988" d="M445.8,528.43s-34.647,37.59-32.881,48S445.8,528.43,445.8,528.43Z" transform="translate(360.914 -58.66)" opacity="0.1"/>
    <path id="Path_989" data-name="Path 989" d="M432.864,741.85s13.462,27.43,6.177,25.66S432.864,741.85,432.864,741.85Z" transform="translate(346.105 -58.66)" fill="none"/>
    <path id="Path_990" data-name="Path 990" d="M329.687,664.22s25.4,23.45,32.881,24.78-5.738,5.75-14.34,2.22-26.943-12.82-26.943-12.82Z" transform="translate(529.574 -58.66)" opacity="0.1"/>
    <path id="Path_991" data-name="Path 991" d="M493.713,835.244c8.283-7.2,9.912-7.774,14.9-11.784,7.983-6.42,13.741-15.87,17.413-23.47.828-1.73,1.547-3.35,2.156-4.82a80.524,80.524,0,0,0,2.874-7.75L487.2,761.32a68.64,68.64,0,0,0-6.816,6.68l-.529.61c-2.435,2.88-4.58,6.15-4.77,8.83-.22,3.12-8.881,15.19-17.733,26.78C448.371,816.01,443.389,822.469,443,824.4c0,0,8.22,3.249,24,6.774A175.321,175.321,0,0,0,493.713,835.244Z" transform="translate(249.357 -58.66)" fill="#ffccd0"/>
    <path id="Path_992" data-name="Path 992" d="M332.486,334.7c2.106,4.76,3.992,9.7,4.271,15,.788,15.3-.489,49.51,16.416,57.19,8.372,3.78,17.334-4.52,26.514-4.72,6.606-.14,12.663,4.06,16.695,9.31s6.536,11.48,9.46,17.42a119.049,119.049,0,0,0,9.171,15.5,38.978,38.978,0,0,0,3.393,4.29,73.616,73.616,0,1,0-85.919-113.95Z" transform="translate(421.267 -58.66)" opacity="0.1"/>
    <path id="Path_993" data-name="Path 993" d="M264.522,347c.8,15.3-.489,49.51,16.426,57.18,8.372,3.78,17.334-4.51,26.514-4.71,6.606-.15,12.653,4.06,16.695,9.3s6.526,11.48,9.46,17.43a119.287,119.287,0,0,0,9.171,15.5c2.056,2.92,4.331,5.85,7.494,7.49,5.508,2.88,12.184,1.26,18.092-.59q11.5-3.63,22.652-8.18a22.943,22.943,0,0,1-.259-3.4c.22.42.459.81.7,1.23l.469.82c.848,1.5,1.676,3,2.435,4.54.289.59.569,1.2.818,1.81a23.04,23.04,0,0,1,1.866,7.16c.509,6.67-2.774,13-5.688,19-11.206,23.21-18.132,50.35-9.7,74.7,3.652,10.59,9.979,20,14.6,30.23a97.858,97.858,0,0,1,6.816,57.78c-2.305,12.12-6.925,24.12-5.788,36.41,2,21.15,20.2,36.89,38.429,47.71,9.849,5.82,21.9,11,32.362,6.4-6.666-7.8-8.382-18.59-9.819-28.77q-5.9-41.65-11.825-83.34-2.365-16.59-4.72-33.18c-2.934-20.78-5.908-41.79-4.071-62.7,1.337-15.41,5.109-31.77-1.557-45.72-3.523-7.39-9.8-13.51-11.755-21.47-1.607-6.47-.11-13.35-1.168-19.94a33.99,33.99,0,0,0-2.914-8.64,42.46,42.46,0,0,0-6.686-10.22c2.674-.78,5.169-1.85,6.686-4.09-4.291-2.8-4.94-9.11-2.994-13.85s5.838-8.35,9.34-12.09,6.876-8.1,7.315-13.2c.848-9.71-8.831-17.23-10.538-26.81-1.726-9.75,5.1-19.23,4.55-29.1-.639-11.93-11.576-20.6-22.373-25.63a101.6,101.6,0,0,0-52.17-9c-14.549,1.38-28.63,5.89-43.139,7.64-8.752,1-17.623,1.1-26.315,2.64s-17.4,4.79-23.521,11.18C244.284,315.37,263.6,329.24,264.522,347Z" transform="translate(492.007 -58.66)" fill="#ffe0d0"/>
    <path id="Path_994" data-name="Path 994" d="M379.691,800c5.089-2.21,14.35-.89,30.246-5.74s18.96-26.77,18.96-26.77v-.07h0c.19-.5,1.667-3.76,11.665-15.18,11.047-12.61,34.927-76.3,34.927-76.3S496.665,653.15,496,644.75,499.758,614,499.319,589s-47.67-41.58-47.67-41.58c-90.939-16.15-69.524,88.91-67.1,96.87s-10.159,29.46-10.159,29.46c1.776,9.36-7.285,23.85-7.285,23.85s-2.2,12.82-2.644,17.69a3.008,3.008,0,0,1-.15.66c-1.457,4.59-13.332,8.75-18.162,11.28-5.079,2.66-21.415,25.88-21.415,25.88C321.213,770.16,374.621,802.24,379.691,800Z" transform="translate(393.317 -58.66)" opacity="0.1"/>
    <path id="Path_995" data-name="Path 995" d="M382.342,796c5.079-2.22,14.35-.89,30.236-5.75s18.96-26.76,18.96-26.76v-.07h0c.18-.51,1.667-3.76,11.665-15.18,11.047-12.61,34.927-76.31,34.927-76.31s21.176-22.78,20.517-31.18,3.752-30.75,3.313-55.73-47.64-41.55-47.64-41.55c-90.939-16.15-69.524,88.91-67.1,96.87s-10.159,29.46-10.159,29.46c1.776,9.36-7.285,23.85-7.285,23.85s-2.2,12.82-2.654,17.69a2.516,2.516,0,0,1-.14.66c-1.457,4.59-13.332,8.75-18.172,11.28-5.069,2.65-21.415,25.88-21.415,25.88C323.855,766.18,377.263,798.26,382.342,796Z" transform="translate(388.147 -58.66)" fill="#ff748e"/>
    <path id="Path_996" data-name="Path 996" d="M428.091,598.32s-39.727,42-50.095,42S428.091,598.32,428.091,598.32Z" transform="translate(413.3 -58.66)" opacity="0.1"/>
    <path id="Path_997" data-name="Path 997" d="M453.043,796c5.079-2.22,14.35-.89,30.236-5.75s18.96-26.76,18.96-26.76v-.07h0c-10.528-7-37.192-26.77-47.7-34-7.394-5.07-13.432-12.52-16.964-17.46-1.457,4.59-13.332,8.75-18.172,11.28-5.069,2.65-21.415,25.88-21.415,25.88C394.556,766.18,447.964,798.26,453.043,796Z" transform="translate(319.764 -58.66)" fill="#ff748e"/>
    <g id="Group_19" data-name="Group 19" transform="translate(746.024 237.18)" opacity="0.1">
      <path id="Path_998" data-name="Path 998" d="M303.108,406.85c-.05.08-.12.15-.18.23-.3-.38-.609-.76-.928-1.12a7.45,7.45,0,0,0,1.108.89Z" transform="translate(-136.93 -295.84)"/>
      <path id="Path_999" data-name="Path 999" d="M273.152,452.69c-.419-5.55-3.383-10.44-6.157-15.32,1.816-.7,3.632-1.41,5.429-2.15a22.706,22.706,0,0,1-.259-3.39c2.8,5,5.858,9.92,6.287,15.55.509,6.68-2.774,13-5.688,19-11.216,23.2-18.132,50.34-9.7,74.7,3.662,10.58,9.979,20,14.6,30.23a97.817,97.817,0,0,1,6.806,57.77c-2.285,12.13-6.915,24.12-5.778,36.41,2,21.15,20.188,36.89,38.429,47.7,7.454,4.42,16.166,8.47,24.5,8.18a30.248,30.248,0,0,0,2.575,3.55c-10.468,4.63-22.513-.58-32.362-6.42-18.252-10.8-36.483-26.5-38.479-47.69-1.138-12.29,3.493-24.28,5.788-36.41a97.9,97.9,0,0,0-6.786-57.77c-4.59-10.22-10.977-19.65-14.6-30.23-8.432-24.36-1.507-51.5,9.7-74.7C270.358,465.66,273.661,459.37,273.152,452.69Z" transform="translate(-130.126 -295.84)"/>
      <path id="Path_1000" data-name="Path 1000" d="M337.643,298.64a28.846,28.846,0,0,1,3.153-2.8c-12.095,15.72,5.369,29.08,6.237,46,.778,15.3-.5,49.52,16.416,57.18,8.362,3.79,17.334-4.51,26.5-4.71,6.616-.14,12.663,4.07,16.7,9.31s6.526,11.48,9.45,17.42a119.82,119.82,0,0,0,9.181,15.5c2,2.93,4.331,5.85,7.5,7.5,5.488,2.87,12.164,1.26,18.082-.6q8.632-2.72,17.1-6a21.676,21.676,0,0,0,.259,3.11q-11.167,4.56-22.662,8.18c-5.908,1.86-12.584,3.47-18.082.6-3.163-1.65-5.459-4.58-7.5-7.51a117.851,117.851,0,0,1-9.171-15.49c-2.934-5.94-5.409-12.19-9.46-17.43s-10.089-9.44-16.695-9.3c-9.181.2-18.152,8.5-26.514,4.71-16.914-7.66-15.627-41.88-16.416-57.18C340.817,329.34,321.5,315.48,337.643,298.64Z" transform="translate(-331.23 -295.84)"/>
    </g>
    <path id="Path_1001" data-name="Path 1001" d="M301.95,439.08c.848,1.5,1.676,3,2.435,4.54.289.59.569,1.2.818,1.81,5.229-5.28,17.962-17.83,25.067-21.72a42.659,42.659,0,0,0-6.686-10.22S306.65,422.46,301.95,439.08Z" transform="translate(582.425 -58.66)" opacity="0.1"/>
    <path id="Path_1002" data-name="Path 1002" d="M301.95,438.26c3.922-17.79,22.1-27.42,22.1-27.42a42.458,42.458,0,0,1,6.686,10.22c-7.494,4.11-21.305,17.89-25.886,22.56Z" transform="translate(581.96 -58.66)" fill="#ff748e"/>
  </g>
</svg>
