<svg xmlns="http://www.w3.org/2000/svg" width="186.078" height="192.607" viewBox="0 0 186.078 192.607">
  <g id="Group_55" data-name="Group 55" transform="translate(-1046.323 -4128.366)">
    <path id="Path_197" data-name="Path 197" d="M75.656,17.752c46.29-37.773,54.228-6.917,53.875,15.607s-24.121,72.423-53.876,72.423S-14.7,59.971,3.268,40.209,29.365,55.525,75.656,17.752Z" transform="matrix(0.438, 0.899, -0.899, 0.438, 1141.399, 4158.17)" fill="#fae4ea"/>
    <g id="janov" transform="translate(1104.324 4129.267)">
      <path id="Path_153" data-name="Path 153" d="M-12495,9874.491s12.775-14.736,13.633-15.063a6.239,6.239,0,0,1,2.974-.539c1.322.084,23.031,8.521,23.031,8.521" transform="translate(12555.909 -9817.777)" fill="none" stroke="#8164e4" stroke-linecap="round" stroke-linejoin="round" stroke-width="1.8"/>
      <path id="Path_154" data-name="Path 154" d="M-12619.7,10053.868c0-.386,8.648-37.042,8.648-37.042l11.295,36.619" transform="translate(12689.791 -10010.153)" fill="none" stroke="#8164e4" stroke-linecap="round" stroke-linejoin="round" stroke-width="1.8"/>
      <path id="Path_155" data-name="Path 155" d="M-12417.82,10331.413l1.316,38.629,1.543,1.8,1.029,45.537" transform="translate(12516.947 -10279.267)" fill="none" stroke="#8164e4" stroke-linecap="round" stroke-linejoin="round" stroke-width="1.8"/>
      <path id="Path_156" data-name="Path 156" d="M-12380.675,10666.576l3.365,4.154h-1.286l.8,33.378" transform="translate(12484.736 -10565.982)" fill="none" stroke="#8164e4" stroke-linecap="round" stroke-linejoin="round" stroke-width="1.8"/>
      <path id="Path_157" data-name="Path 157" d="M-12830.6,10373.242l-.717,15.239s-15.693,12.093-26.757,15.309c-.257.129,0,2.314,0,2.314h1.127v44.37l-.715,1.088v4.948" transform="translate(12893.661 -10315.049)" fill="none" stroke="#8164e4" stroke-linecap="round" stroke-linejoin="round" stroke-width="1.8"/>
      <path id="Path_158" data-name="Path 158" d="M-13009.048,10853.448v-7.821h-1.415l9.905-4.76s1.928.673,1.243,4.249c0,.077-7.077.511-7.077.511" transform="translate(13023.922 -10715.079)" fill="none" stroke="#8164e4" stroke-linecap="round" stroke-linejoin="round" stroke-width="1.8"/>
      <path id="Path_159" data-name="Path 159" d="M-13012.6,10637.758v-14.536l-2.314-.771,20.323-20.968" transform="translate(13027.73 -10510.298)" fill="none" stroke="#8164e4" stroke-linecap="round" stroke-linejoin="round" stroke-width="1.8"/>
      <path id="Path_160" data-name="Path 160" d="M-12786.668,10632.726l.144-41.438-1.62-.945,14.572-10.006,10.192-4.354-14.492,10.544,1.523.931v46.307" transform="translate(12833.739 -10488.484)" fill="none" stroke="#8164e4" stroke-linecap="round" stroke-linejoin="round" stroke-width="1.8"/>
      <path id="Path_162" data-name="Path 162" d="M-12566.133,9970.655v6.241" transform="translate(12644.688 -9970.655)" fill="none" stroke="#8164e4" stroke-linecap="round" stroke-width="1.8"/>
      <path id="Path_163" data-name="Path 163" d="M-12579.3,9978.554l2.892.533" transform="translate(12656.413 -9977.259)" fill="none" stroke="#8164e4" stroke-linecap="round" stroke-width="1.8"/>
      <path id="Path_164" data-name="Path 164" d="M-12557.27,10278.707v42.578l-1.058,2.012v53.07" transform="translate(12634.54 -10233.89)" fill="none" stroke="#8164e4" stroke-linecap="round" stroke-linejoin="round" stroke-width="1.8"/>
      <path id="Path_166" data-name="Path 166" d="M-12520.312,10772.891l9.363-4.492,6.927,4.492Z" transform="translate(12604.479 -10652.941)" fill="none" stroke="#8164e4" stroke-linecap="round" stroke-linejoin="round" stroke-width="1.8"/>
      <path id="Path_167" data-name="Path 167" d="M-12509.281,10812.99v16.426" transform="translate(12595.186 -10691.231)" fill="none" stroke="#8164e4" stroke-linecap="round" stroke-width="1.8"/>
      <path id="Path_168" data-name="Path 168" d="M-12509.283,10812.99s.182,12.146.176,16.128" transform="translate(12608.198 -10691.088)" fill="none" stroke="#8164e4" stroke-linecap="round" stroke-width="1.8"/>
      <path id="Path_169" data-name="Path 169" d="M-12492.336,10845.316v-13.781h6.928v13.781" transform="translate(12580.689 -10707.096)" fill="none" stroke="#8164e4" stroke-linecap="round" stroke-linejoin="round" stroke-width="1.8"/>
      <path id="Path_170" data-name="Path 170" d="M-12829.862,10601.947l14.232,2.206" transform="translate(12869.427 -10510.694)" fill="none" stroke="#8164e4" stroke-linecap="round" stroke-width="1.8"/>
      <path id="Path_171" data-name="Path 171" d="M-12764.654,10662.479l5.612-2.625" transform="translate(12813.356 -10560.81)" fill="none" stroke="#8164e4" stroke-linecap="round" stroke-width="1.8"/>
      <path id="Path_172" data-name="Path 172" d="M-12988.635,10649.037l17.439-15.6" transform="translate(13005.249 -10537.629)" fill="none" stroke="#8164e4" stroke-linecap="round" stroke-width="1.8"/>
      <path id="Path_173" data-name="Path 173" d="M-12957.338,10726.959v14.106" transform="translate(12978.476 -10616.497)" fill="none" stroke="#8164e4" stroke-linecap="round" stroke-width="1.8"/>
      <path id="Path_174" data-name="Path 174" d="M-12913.161,10697.99v34.818" transform="translate(12940.686 -10592.855)" fill="none" stroke="#8164e4" stroke-linecap="round" stroke-width="1.8"/>
      <path id="Path_175" data-name="Path 175" d="M-12674.158,10498.146l-.313,11.917" transform="translate(12736.499 -10421.898)" fill="none" stroke="#8164e4" stroke-linecap="round" stroke-width="1.8"/>
      <path id="Path_176" data-name="Path 176" d="M-12568.564,10095.232l-.377,20.809" transform="translate(12646.367 -10077.225)" fill="none" stroke="#8164e4" stroke-linecap="round" stroke-width="1.8"/>
      <path id="Path_177" data-name="Path 177" d="M-12505.569,10948.169v-9.3h-21.472l-12.271,9.3" transform="translate(12620.876 -10798.624)" fill="none" stroke="#8164e4" stroke-linecap="round" stroke-linejoin="round" stroke-width="1.8"/>
      <path id="Path_178" data-name="Path 178" d="M-12591.592,10938.867l-11.146,8.245" transform="translate(12675.713 -10798.624)" fill="none" stroke="#8164e4" stroke-linecap="round" stroke-width="1.8"/>
      <path id="Path_179" data-name="Path 179" d="M-12549.558,10580.013l18.208,2.989" transform="translate(12629.931 -10491.931)" fill="none" stroke="#8164e4" stroke-linecap="round" stroke-width="1.8"/>
      <path id="Path_180" data-name="Path 180" d="M-12502.064,10404.822l5.4,1.031v-6.818s-2.057-4.245-5.4-1.543Z" transform="translate(12589.013 -10335.024)" fill="none" stroke="#8164e4" stroke-linecap="round" stroke-linejoin="round" stroke-width="1.8"/>
      <path id="Path_181" data-name="Path 181" d="M.111,9.945,3.455,7.266V.578S1.672-1.953,0,3.578C0,3.707.111,9.945.111,9.945Z" transform="matrix(1, 0.017, -0.017, 1, 67.45, 65.189)" fill="none" stroke="#8164e4" stroke-linecap="round" stroke-linejoin="round" stroke-width="1.8"/>
      <path id="Path_182" data-name="Path 182" d="M-13097.572,10927.918l85.655,14.929h41.521" transform="translate(13097.572 -10789.402)" fill="none" stroke="#8164e4" stroke-linecap="round" stroke-width="1.8"/>
      <path id="Path_183" data-name="Path 183" d="M-12940.175,10881.331v7.169" transform="translate(12963.488 -10749.253)" fill="none" stroke="#8164e4" stroke-linecap="round" stroke-width="1.8"/>
    </g>
  </g>
</svg>
