<?xml version="1.0" encoding="UTF-8"?>
<svg width="37px" height="38px" viewBox="0 0 37 38" version="1.1" xmlns="http://www.w3.org/2000/svg" xmlns:xlink="http://www.w3.org/1999/xlink">
    <!-- Generator: Sketch 56.2 (81672) - https://sketch.com -->
    <title>location</title>
    <desc>Created with Sketch.</desc>
    <g id="Page-1" stroke="none" stroke-width="1" fill="none" fill-rule="evenodd">
        <g id="location" transform="translate(1.000000, 1.000000)" fill="#202334" fill-rule="nonzero" stroke="#202335" stroke-width="0.5">
            <path d="M23.705,23.905 C22.252,25.958 20.805,27.794 19.84,28.976 C19.7,29.148 19.569,29.308 19.44,29.461 L22.34,29.461 C22.6652957,29.461 22.929,29.7247043 22.929,30.05 C22.929,30.3752957 22.6652957,30.639 22.34,30.639 L12.94,30.639 C12.6147043,30.639 12.351,30.3752957 12.351,30.05 C12.351,29.7247043 12.6147043,29.461 12.94,29.461 L15.84,29.461 L15.44,28.976 C14.479,27.798 13.029,25.958 11.576,23.905 C10.1338272,21.9090096 8.83586683,19.81269 7.692,17.632 C6.6610201,15.8481503 6.04255696,13.8560839 5.88197504,11.802 C5.87556511,8.67292301 7.11348732,5.6696755 9.323,3.454 C9.46900216,3.29316322 9.69167799,3.22574141 9.90237575,3.27857656 C10.1130735,3.33141171 10.2775883,3.49592648 10.3304234,3.70662425 C10.3832586,3.91732201 10.3158368,4.13999784 10.155,4.286 C8.16619662,6.27929778 7.05103343,8.98123026 7.055,11.797 C7.21885434,13.6663279 7.79427257,15.4762487 8.74,17.097 C9.85941094,19.2270668 11.1292985,21.2745933 12.54,23.224 C13.973,25.25 15.406,27.065 16.356,28.232 C16.672,28.62 16.956,28.963 17.198,29.252 C17.3110199,29.3826547 17.4752454,29.4577379 17.648,29.4577379 C17.8207546,29.4577379 17.9849801,29.3826547 18.098,29.252 C18.34,28.962 18.624,28.619 18.94,28.232 C19.89,27.066 21.322,25.251 22.756,23.224 C24.1666987,21.2745914 25.4365861,19.2270651 26.556,17.097 C27.5005844,15.4777685 28.0749937,13.6695062 28.238,11.802 C28.2516195,8.24310167 26.4761995,4.9154838 23.512489,2.94511257 C20.5487785,0.974741344 16.793377,0.625289097 13.517,2.015 C13.2173855,2.14174935 12.8717494,2.00161448 12.745,1.702 C12.6182506,1.40238552 12.7583855,1.05674935 13.058,0.93 C16.6964158,-0.600793494 20.859839,-0.206491441 24.1461933,1.98012081 C27.4325476,4.16673307 29.4045095,7.85467742 29.3980161,11.802 C29.2371815,13.8569783 28.618751,15.8499647 27.588,17.635 C26.4444343,19.8146901 25.1468064,21.9100099 23.705,23.905 L23.705,23.905 Z" id="Path_185"></path>
            <path d="M17.6473817,6.484 C17.322086,6.484 17.05,6.21929572 17.05,5.894 C17.05,5.56870428 17.3137043,5.30498297 17.639,5.30498297 C20.450131,5.30111679 22.8723346,7.28400384 23.4237103,10.0405338 C23.975086,12.7970637 22.5019889,15.5591094 19.9056576,16.6368554 C17.3093264,17.7146014 14.3132475,16.8077259 12.7504177,14.471054 C11.187588,12.1343821 11.4935011,9.01904443 13.481,7.031 C13.6271964,6.87034256 13.8499513,6.80319139 14.0605831,6.85628028 C14.2712149,6.90936916 14.43553,7.07407976 14.4881124,7.28483857 C14.5406949,7.49559739 14.4730084,7.71819026 14.312,7.864 C12.7283795,9.45086423 12.4859824,11.9353048 13.7330092,13.7983442 C14.9800361,15.6613836 17.3692954,16.3843229 19.4400031,15.5251597 C21.5107109,14.6659966 22.68635,12.4639353 22.2481392,10.2653077 C21.8099284,8.06668015 19.8798724,6.48361825 17.638,6.484 L17.6473817,6.484 Z" id="Path_186"></path>
            <path d="M3.838,25.674 C4.16430087,25.0983736 4.77633295,24.74416 5.438,24.7479087 L9.628,24.7479087 C9.95329572,24.7479087 10.217,25.0117043 10.217,25.337 C10.217,25.6622957 9.95329572,25.926 9.628,25.926 L5.438,25.926 C5.20255771,25.9218036 4.98314711,26.0448876 4.864,26.248 L1.249,33.729 C1.15059511,33.8974803 1.15251493,34.1063569 1.254,34.273 C1.37388099,34.471629 1.59106851,34.5907195 1.823,34.585 L33.456,34.585 C33.6879315,34.5907195 33.905119,34.471629 34.025,34.273 C34.1264851,34.1063569 34.1284049,33.8974803 34.03,33.729 L30.415,26.248 C30.2960064,26.0447311 30.0764958,25.921591 29.841,25.926 L25.65,25.926 C25.3247043,25.926 25.061,25.6622957 25.061,25.337 C25.061,25.0117043 25.3247043,24.7479087 25.65,24.7479087 L29.84,24.7479087 C30.5016106,24.7443726 31.1135429,25.0985284 31.44,25.674 L35.055,33.155 C35.3564275,33.6886734 35.3495623,34.3427708 35.037,34.87 C34.7081199,35.4306059 34.1039075,35.7718351 33.454,35.764 L1.823,35.764 C1.17309255,35.7718351 0.568880113,35.4306059 0.24,34.87 C-0.0725623485,34.3427708 -0.0794275115,33.6886734 0.222,33.155 L3.838,25.674 Z" id="Path_187"></path>
            <path d="M6.468,27.694 L8.82,27.694 C8.93614059,27.6945201 9.04954445,27.7293066 9.146,27.794 L10.91,28.972 C11.1713771,29.1558043 11.2385294,29.5144916 11.0613464,29.7804018 C10.8841634,30.0463119 10.5272755,30.1224499 10.257,29.952 L8.643,28.873 L6.468,28.873 C6.14270428,28.873 5.879,28.6092957 5.879,28.284 C5.879,27.9587043 6.14270428,27.695 6.468,27.695 L6.468,27.694 Z" id="Path_188"></path>
            <path d="M9.995,31.818 C9.995,32.1429056 9.73190512,32.4064484 9.407,32.407 L4.707,32.407 C4.38170428,32.407 4.118,32.1432957 4.118,31.818 C4.118,31.4927043 4.38170428,31.229 4.707,31.229 L9.407,31.229 C9.73190512,31.2295516 9.995,31.4930944 9.995,31.818 L9.995,31.818 Z" id="Path_189"></path>
            <path d="M24.695,30.051 C24.4354423,30.0510728 24.2064318,29.88123 24.1311518,29.6328289 C24.0558718,29.3844278 24.1520692,29.116028 24.368,28.972 L26.132,27.794 C26.2287647,27.7291726 26.3425275,27.6943828 26.459,27.694 L28.811,27.694 C29.1362957,27.694 29.4,27.9577043 29.4,28.283 C29.4,28.6082957 29.1362957,28.872 28.811,28.872 L26.635,28.872 L25.019,29.951 C24.9232146,30.0155341 24.8104948,30.0503242 24.695,30.051 Z" id="Path_190"></path>
            <path d="M30.575,31.229 C30.9002957,31.229 31.164,31.4927043 31.164,31.818 C31.164,32.1432957 30.9002957,32.407 30.575,32.407 L25.875,32.407 C25.5497043,32.407 25.286,32.1432957 25.286,31.818 C25.286,31.4927043 25.5497043,31.229 25.875,31.229 L30.575,31.229 Z" id="Path_191"></path>
        </g>
    </g>
</svg>