<?xml version="1.0" encoding="UTF-8"?>
<svg width="33px" height="21px" viewBox="0 0 33 21" version="1.1" xmlns="http://www.w3.org/2000/svg" xmlns:xlink="http://www.w3.org/1999/xlink">
    <!-- Generator: Sketch 56.2 (81672) - https://sketch.com -->
    <title>mail</title>
    <desc>Created with Sketch.</desc>
    <g id="Page-1" stroke="none" stroke-width="1" fill="none" fill-rule="evenodd" stroke-linecap="round">
        <g id="mail" transform="translate(1.000000, 1.000000)" stroke="#202334" stroke-width="1.5">
            <path d="M0.503,4.158 L0.503,1.722 C0.509834101,1.36840908 0.665893142,1.03420173 0.93261282,0.801965093 C1.1993325,0.569728459 1.55183057,0.461127869 1.903,0.503 L29.414,0.503 C29.7600926,0.463417846 30.1065273,0.57428954 30.3653292,0.807459893 C30.6241311,1.04063025 30.770403,1.37366791 30.767,1.722 L30.767,16.74 C30.767,16.74 31.039,18.273 29.189,18.273 L1.903,18.273 C1.903,18.273 0.503,18.318 0.503,17.056 L0.503,7.87183634" id="Path_196" stroke-linejoin="round"></path>
            <polyline id="Path_194" stroke-linejoin="round" points="0.928 1.042 15.493 11.05 30.058 1.042"></polyline>
            <path d="M1.28,17.542 L10.0688219,11.05" id="Line_14"></path>
            <path d="M30.043,17.542 L20.9338971,11.05" id="Line_15"></path>
        </g>
    </g>
</svg>