<svg xmlns="http://www.w3.org/2000/svg" viewBox="0 0 491.64 354.53"><title>Asset 2</title><g id="Layer_2" data-name="Layer 2"><g id="Layer_1-2" data-name="Layer 1"><path d="M491.64,120q-29.47,32.51-58.95,65-56.58,62.65-113.08,125.37c-12.31,13.65-24.69,27.24-36.89,41-2.27,2.55-4.42,3.67-7.85,2.87-17.69-4.14-35.42-8.16-53.15-12.17-14.61-3.31-29.24-6.55-43.87-9.83q-21-4.72-42-9.47c-12.13-2.73-24.27-5.38-36.38-8.16-14.6-3.34-29.17-6.81-43.77-10.15-10.56-2.42-21.17-4.63-31.7-7.15a10.29,10.29,0,0,1-5.49-3.08C6.1,278.49-1.41,260.88.22,240.38c1.25-15.67,7.7-29.15,18.8-40.31q57.68-58,115.4-115.9,37.72-37.89,75.44-75.8A26.67,26.67,0,0,1,227.67.22c12.71-.85,25.15.88,37.58,3.36,14.37,2.86,28.82,5.36,43.24,8q20,3.67,40,7.36,21.15,3.91,42.3,7.89c13.95,2.61,27.89,5.29,41.84,7.86s27.62,5,41.44,7.52c4.39.78,8.85,1.25,13.16,2.34,1.14.29,2.42,2.32,2.59,3.69.81,6.31,1.24,12.66,1.81,19ZM479.22,57.21c-2.1,1.74-3.22,2.5-4.15,3.45q-36.17,36.78-72.3,73.58Q335,203.15,267.26,272.12c-3.29,3.36-6.33,3.27-10.31,2.35-9-2.09-18.08-3.9-27.15-5.71-12.2-2.44-24.43-4.7-36.62-7.16-13.28-2.68-26.53-5.53-39.8-8.24-12-2.46-24.09-4.78-36.12-7.26-12.65-2.61-25.26-5.4-37.92-8-16.71-3.41-33.43-6.77-50.2-9.91a6.71,6.71,0,0,0-5.48,1.8c-7.95,10.06-8.9,21.37-4.19,32.94,5.24,12.89,12.06,23.63,28.25,25.59,14,1.69,27.72,5.94,41.55,9.08,14.92,3.39,29.83,6.85,44.76,10.2,14.31,3.22,28.65,6.29,43,9.51,18.2,4.1,36.38,8.29,54.56,12.45,11.81,2.7,23.64,5.31,35.41,8.21,3.25.8,5.27.08,7.5-2.38q26.43-29.13,53.09-58.05,76.21-83.07,152.36-166.18a9.74,9.74,0,0,0,2.24-6.35c-.52-12.13-1.4-24.24-2.16-36.35C479.78,65.36,479.54,62,479.22,57.21Zm-239.68,50.6c5.66-7.48,13.92-11.39,14.89-21.09.24-2.49,2.59-5.16,4.64-7,8.8-7.91,21.83-7.07,31.36,1.29,8.36,7.34,10.59,17.09,11.85,27.4.63,5.14,4.1,9.57,8.15,10.07,4.91.61,7.62-2.69,9.72-6.4,5.59-9.9,3.91-19.59-1.1-29.15-10.48-20-28.45-28.38-49.61-28.7C255,54,240.59,57.34,235.58,74.84,232.35,86.1,234.19,96.41,239.54,107.81Zm53.68-14c-2.55-6.91-7.56-10.92-13.58-13.88-3.41-1.68-6.35-1.81-9.4,1.43-22.09,23.54-44.36,46.93-66.55,70.39-1.58,1.67-3,3.53-4.43,5.3l.79,1.33c11.69-.83,23.71-.57,33.35-9.29,11.86-10.72,23.58-21.6,35.32-32.44C276.92,109,285.06,101.38,293.22,93.77Zm-145,109.83c4.13-3.18,7.25-6.09,6.87-11.89-.55-8.39,2.87-12.91,11-15.86,11.54-4.21,23.6-3.21,35.56-3.23,12.76,0,25.56.14,37.56-5.36C256,159.52,261.5,148.84,262.23,134c0-1.12-.71-2.27-1.09-3.41a11.94,11.94,0,0,0-3.22,1.51c-5.9,5.39-12.07,10.55-17.45,16.43a38.79,38.79,0,0,1-25.54,12.74c-11.27,1.13-22.62,1.42-34,1.91-10.08.44-19.63,2.48-27.86,8.7C142.76,179.72,140.51,193.26,148.19,203.6Zm51-25.3-.71-1.6c-6.14.29-12.29.41-18.4,1-1.52.14-3.19,1.51-4.31,2.74q-19.65,21.65-39.14,43.45a40.12,40.12,0,0,0-4.95,6.42,4.12,4.12,0,0,0,.38,3.87c.59.65,2.71.59,3.72,0A32.15,32.15,0,0,0,141.6,230q23-20,45.83-40C191.56,186.28,195.31,182.19,199.23,178.3ZM295.51,55.14c2.12,1.22,3.36,1.82,4.48,2.59,4.45,3.07,9.22,5.81,13.18,9.42,2.92,2.66,4.48,2.24,6.38-.57a27.41,27.41,0,0,0,2.57-4,7.71,7.71,0,0,1,6.7-5.15c5.67-.81,10.7-7.6,10-12.4-1-6.58-8-11.93-16.21-12.38-6.59-.36-12.29,4.1-14.39,10.42-.8,2.42-2.83,4.6-4.75,6.41C301.33,51.46,298.69,52.91,295.51,55.14ZM188.14,223.33c-5.59-2.61-11.41-4.82-16.69-8-3.72-2.21-5.42-1.07-7.53,2.59C171.54,222.41,179.62,223.78,188.14,223.33Z"/></g></g></svg>