<svg xmlns="http://www.w3.org/2000/svg" xmlns:xlink="http://www.w3.org/1999/xlink" width="69.727" height="72.813" viewBox="0 0 69.727 72.813">
  <defs>
    <linearGradient id="linear-gradient" x1="0.5" x2="0.5" y2="1" gradientUnits="objectBoundingBox">
      <stop offset="0" stop-color="#5ba1dd"/>
      <stop offset="1" stop-color="#8164e4"/>
    </linearGradient>
  </defs>
  <g id="nurse" transform="translate(-1062.772 -3584.855)">
    <path id="Path_53" data-name="Path 53" d="M18.412,12.112c5.012,0,14.477,11.694,24.774,14.531s41.893,25.965-6.957,36.14S5.047,46.546,5.047,30.487,13.4,12.112,18.412,12.112Z" transform="translate(1060.838 3592.617)" fill="#fce0e6"/>
    <g id="nurse-2" data-name="nurse" transform="translate(1041.392 3584.857)">
      <g id="Group_47" data-name="Group 47" transform="translate(61.362 2.359)">
        <g id="Group_46" data-name="Group 46">
          <path id="Path_51" data-name="Path 51" d="M239.549,20.659h-.705v-.706a.927.927,0,0,0-1.854,0v.706h-.705a.927.927,0,1,0,0,1.854h.705v.705a.927.927,0,0,0,1.854,0v-.705h.705a.927.927,0,0,0,0-1.854Z" transform="translate(-235.357 -19.026)" fill="#5d9ddd"/>
        </g>
      </g>
      <g id="Group_49" data-name="Group 49" transform="translate(36.736 0)">
        <g id="Group_48" data-name="Group 48" transform="translate(0 0)">
          <path id="Path_52" data-name="Path 52" d="M91.069,60.311,88.36,44.451a4.544,4.544,0,0,0-3.185-3.606L73.014,37.175a2.02,2.02,0,0,0-1.555.161,2.345,2.345,0,0,1-.747-1.652V32.648l.094-.081.148-.129h1.191a5.923,5.923,0,0,0,5.911-6.3l-.33-5.215v-.078a2.8,2.8,0,0,0-.032-.419l-.37-5.841a.927.927,0,1,0-1.85.117l.219,3.456a2.786,2.786,0,0,0-.76-.106h-.052a1.676,1.676,0,0,0-1.256-.747C64,16.443,61.233,13.569,59.21,11.471c-.42-.436-1.11-.469-2.05-.1a7.165,7.165,0,0,0-4.474,6.438c0,.005,0,.01,0,.015v.239a2.781,2.781,0,0,0-.536.1l.286-4.517a7.788,7.788,0,0,1,3.291-5.907l.07.183a3.182,3.182,0,0,0,2.955,2.033h10.58a3.182,3.182,0,0,0,2.955-2.033l.016-.042a7.816,7.816,0,0,1,2.353,2.878.927.927,0,0,0,1.672-.8A9.661,9.661,0,0,0,72.988,6.09l.638-1.668A2.3,2.3,0,0,0,71.932,1.34L66.612.259a12.838,12.838,0,0,0-5.139,0l-5.32,1.08a2.3,2.3,0,0,0-1.694,3.082l.589,1.54a9.628,9.628,0,0,0-4.462,7.565l-.439,6.939a2.787,2.787,0,0,0-.029.382v.078l-.33,5.215a5.923,5.923,0,0,0,5.911,6.3H56.89l.148.129.094.081v3.036a2.345,2.345,0,0,1-.747,1.652,2.02,2.02,0,0,0-1.555-.161L42.669,40.844a4.545,4.545,0,0,0-3.185,3.606l-1.018,5.958a.927.927,0,0,0,1.827.312l1.018-5.958A2.7,2.7,0,0,1,43.2,42.619L55.365,38.95a.171.171,0,0,1,.2.086h0l5.806,11.471a2.854,2.854,0,0,0,5.1,0l5.806-11.471a.17.17,0,0,1,.2-.086l12.161,3.669a2.7,2.7,0,0,1,1.893,2.143l2.709,15.86a.86.86,0,0,1-.848,1H82.651l-1.515-8.869a.927.927,0,0,0-1.827.312l1.462,8.557h-33.7l1.462-8.557a.927.927,0,0,0-1.827-.312l-1.515,8.869H39.45a.86.86,0,0,1-.848-1l.943-5.521a.927.927,0,0,0-1.827-.312l-.943,5.521a2.714,2.714,0,0,0,2.675,3.171H88.394a2.714,2.714,0,0,0,2.675-3.17ZM56.217,3.381a.445.445,0,0,1,.305-.225l5.32-1.08a11,11,0,0,1,4.4,0l5.32,1.08h0a.451.451,0,0,1,.331.6l-1.339,3.5a1.317,1.317,0,0,1-1.223.842H58.753a1.317,1.317,0,0,1-1.223-.842l-1.339-3.5A.445.445,0,0,1,56.217,3.381ZM76.205,26.258a4.072,4.072,0,0,1-3.431,4.278,10.311,10.311,0,0,0,2.3-4.832,2.769,2.769,0,0,0,1.076-.279ZM52.732,29.3a4.03,4.03,0,0,1-1.094-3.042l.053-.833a2.771,2.771,0,0,0,1.076.279,10.311,10.311,0,0,0,2.3,4.832A4.025,4.025,0,0,1,52.732,29.3Zm12.2,20.141-.116.23a1.062,1.062,0,0,1-.055.093c-.006.01-.011.02-.017.03s-.025.032-.038.048a.993.993,0,0,1-.147.155c-.011.009-.024.017-.036.026a1,1,0,0,1-1.494-.351l-3.85-7.606h9.488Zm4.672-9.23H58.24L57.523,38.8a4.185,4.185,0,0,0,1.463-3.113v-1.6a8.871,8.871,0,0,0,4.925,1.41h.021a8.872,8.872,0,0,0,4.925-1.41v1.6A4.184,4.184,0,0,0,70.32,38.8ZM69.6,31.162c-1.714,1.476-3.036,2.446-5.674,2.478-2.638-.032-3.96-1-5.674-2.478-2.276-1.959-3.661-4.352-3.7-6.4a.927.927,0,0,0-.927-.907h-.706a.94.94,0,0,1-.939-.939V20.848a.937.937,0,0,1,.01-.127c0-.014,0-.028.007-.043a.94.94,0,0,1,.923-.769h.7a.927.927,0,0,0,.927-.927V17.833A5.3,5.3,0,0,1,58.112,13c2.718,2.773,6.059,5.295,15.2,6.141a.927.927,0,0,0,.913.767h.7a.94.94,0,0,1,.923.769c0,.014,0,.029.007.043a.934.934,0,0,1,.01.127v2.067a.94.94,0,0,1-.939.939h-.706a.927.927,0,0,0-.927.907C73.256,26.81,71.871,29.2,69.6,31.162Z" transform="translate(-36.736 0)" fill="url(#linear-gradient)"/>
        </g>
      </g>
    </g>
  </g>
</svg>
