<svg xmlns="http://www.w3.org/2000/svg" xmlns:xlink="http://www.w3.org/1999/xlink" width="48.237" height="60.471" viewBox="0 0 48.237 60.471">
  <defs>
    <linearGradient id="linear-gradient" x1="0.5" x2="0.5" y2="1" gradientUnits="objectBoundingBox">
      <stop offset="0" stop-color="#8e9afd"/>
      <stop offset="1" stop-color="#6ebff8"/>
    </linearGradient>
  </defs>
  <g id="surgeon" transform="translate(0 0.001)">
    <path id="Path_14" data-name="Path 14" d="M68.109,396.339a2.763,2.763,0,1,0,2.763-2.757A2.763,2.763,0,0,0,68.109,396.339Zm0,0" transform="translate(-60.065 -347.098)" fill="url(#linear-gradient)"/>
    <path id="Path_15" data-name="Path 15" d="M36.579,319.208a20.414,20.414,0,0,0-3.568-1.326,8.893,8.893,0,0,1-17.785,0,20.437,20.437,0,0,0-2.647.91v4.742a6.306,6.306,0,1,1-3.543,0v-2.815a20.52,20.52,0,0,0-9.036,17v1.324a1.771,1.771,0,0,0,1.772,1.77h30.7v-6.5c0-3.047,1.756-5.6,4.107-6.268Zm0,0" transform="translate(0 -280.339)" fill="url(#linear-gradient)"/>
    <path id="Path_16" data-name="Path 16" d="M307.845,432.395h-1.131c-.835,0-1.769,1.239-1.769,2.9v6.5h4.67v-6.5C309.615,433.634,308.68,432.395,307.845,432.395Zm0,0" transform="translate(-268.929 -381.327)" fill="url(#linear-gradient)"/>
    <path id="Path_17" data-name="Path 17" d="M339.715,347.5v6.656c2.35.664,4.106,3.222,4.106,6.268v6.5h2.237a1.77,1.77,0,0,0,1.772-1.77v-1.324A20.506,20.506,0,0,0,339.715,347.5Zm0,0" transform="translate(-299.592 -306.458)" fill="url(#linear-gradient)"/>
    <path id="Path_18" data-name="Path 18" d="M164.247,322.014a5.354,5.354,0,0,1-5.352-5.345v-.036a16.136,16.136,0,0,0,10.7,0v.034A5.354,5.354,0,0,1,164.247,322.014Zm0,0" transform="translate(-140.128 -279.237)" fill="url(#linear-gradient)"/>
    <path id="Path_19" data-name="Path 19" d="M142.171,240.921c-1.437,0-10.592,3.66-10.592,3.66a13.177,13.177,0,0,0,2.048,3.191,11.375,11.375,0,0,0,16.589,0C157.366,240.2,145.222,240.921,142.171,240.921Z" transform="translate(-117.802 -216.596)" fill="url(#linear-gradient)"/>
    <path id="Path_20" data-name="Path 20" d="M127.606,94.235a11.505,11.505,0,0,0-3.372-2.423,17.3,17.3,0,0,1-5.049,8.636,16.887,16.887,0,0,1-11.131,4.658,11.256,11.256,0,0,0,1.06,4.1,21.214,21.214,0,0,1,20.593,0,11.274,11.274,0,0,0,1.083-4.835V102.09A11.28,11.28,0,0,0,127.606,94.235Zm0,0" transform="translate(-95.293 -80.969)" fill="url(#linear-gradient)"/>
    <path id="Path_21" data-name="Path 21" d="M52.05,34.24a14.854,14.854,0,0,1-4.686-10.833V21.121q0-.545.041-1.094a9.8,9.8,0,0,0,3.353.568,13.278,13.278,0,0,0,8.884-3.7A12.769,12.769,0,0,0,63.879,6.3,14.967,14.967,0,0,1,77.21,21.121v2.286A14.852,14.852,0,0,1,72.524,34.24,24.045,24.045,0,0,1,80.27,38.1,15.182,15.182,0,0,0,81.294,32.6V17.29A17.319,17.319,0,0,0,63.985,0h-3.4A17.319,17.319,0,0,0,43.28,17.29V32.6A15.173,15.173,0,0,0,44.3,38.1,24.043,24.043,0,0,1,52.05,34.24Zm0,0" transform="translate(-38.169)" fill="url(#linear-gradient)"/>
  </g>
</svg>
