<svg xmlns="http://www.w3.org/2000/svg" xmlns:xlink="http://www.w3.org/1999/xlink" width="77.226" height="75.862" viewBox="0 0 77.226 75.862">
  <defs>
    <linearGradient id="linear-gradient" x1="1" y1="0.109" x2="0.046" y2="1" gradientUnits="objectBoundingBox">
      <stop offset="0" stop-color="#58a5dc"/>
      <stop offset="1" stop-color="#8164e4"/>
    </linearGradient>
  </defs>
  <g id="syringe" transform="translate(-980.137 -2495.184)">
    <path id="Path_27" data-name="Path 27" d="M18.846,18.931c10.633,14.464,38.89-3.1,38.89,10.907S39.382,55.209,25.371,55.209A25.371,25.371,0,0,1,0,29.838C0,15.827,8.213,4.468,18.846,18.931Z" transform="translate(980.137 2499.791)" fill="#fce0e6"/>
    <path id="injection" d="M73.806,14.226a1.111,1.111,0,0,0,0-1.572L59.458-1.694a1.11,1.11,0,0,0-1.572,0L55.836.356a1.112,1.112,0,0,0,0,1.572l1.693,1.693L55.821,5.328A1.112,1.112,0,0,0,57.393,6.9L59.1,5.193l7.818,7.818L59.1,20.828l-7.818-7.818,2.157-2.157a1.112,1.112,0,0,0-1.572-1.572l-2.157,2.157c-4.435-4.285-4.378-4.725-5.185-4.725-.79,0-.96.629-3.308,2.848a1.111,1.111,0,0,0,0,1.572l2.458,2.459c-23.765,23.765-23.363,23.342-23.467,23.5a17.741,17.741,0,0,0-4.571,12.728L12.816,52.64a3.424,3.424,0,0,0-1.01,2.437,3.569,3.569,0,0,0,1.114,2.542L-1.4,71.945a1.11,1.11,0,0,0,0,1.572,1.111,1.111,0,0,0,1.572,0L14.493,59.191l.1.1a3.443,3.443,0,0,0,4.873,0l2.824-2.823a17.73,17.73,0,0,0,13.37-5.182L49.9,37.058a1.112,1.112,0,0,0-1.572-1.572L43.18,40.631c-.949-.16-3.566-1.013-5.593-5.545-1.821-4.071-4.028-5.87-5.6-6.665l.87-.869L38.29,32.98a1.112,1.112,0,0,0,1.572-1.572l-5.429-5.429,2.335-2.336,2.486,2.487a1.112,1.112,0,0,0,1.572-1.573l-2.487-2.485,2.336-2.336,2.486,2.486a1.112,1.112,0,0,0,1.573-1.572l-2.486-2.486,3-3,11.7,11.7L52.88,30.931A1.112,1.112,0,1,0,54.453,32.5l4.066-4.067c2.368,2.228,2.457,2.785,3.245,2.785a1.11,1.11,0,0,0,.786-.326c2.314-2.449,2.848-2.526,2.848-3.309,0-.807-.4-.7-4.725-5.185l7.818-7.818c1.553,1.428,1.715,2.019,2.48,2.019a1.109,1.109,0,0,0,.786-.325ZM17.035,58.082c-.83,0-1.045-.662-2.646-2.14a1.222,1.222,0,0,1,0-1.729l1.776-1.777a6.534,6.534,0,0,0,3.512,3.511c-1.613,1.488-1.812,2.135-2.642,2.135ZM35.558,35.993c1.813,4.055,4.143,5.73,5.84,6.419l-7.305,7.306a15.523,15.523,0,0,1-12.2,4.5,4.336,4.336,0,0,1-4.007-4.007,15.516,15.516,0,0,1,3.321-10.87c5.49,5.326,5.316,5.683,6.143,5.683a1.113,1.113,0,0,0,.786-1.9L22.711,37.7l2.335-2.335c2.385,2.244,2.483,2.812,3.272,2.812a1.113,1.113,0,0,0,.786-1.9l-2.486-2.485,2.335-2.336c2.385,2.245,2.482,2.812,3.272,2.812a1.113,1.113,0,0,0,.786-1.9l-1.936-1.935c1.142.6,2.918,2.059,4.481,5.556Zm26.206-7.457L43.575,10.347l.95-.95L62.714,27.586Zm9.207-14.618L58.194,1.142l.477-.478L71.448,13.44Zm0,0" transform="translate(983.231 2497.203)" fill="url(#linear-gradient)"/>
  </g>
</svg>
