<svg xmlns="http://www.w3.org/2000/svg" xmlns:xlink="http://www.w3.org/1999/xlink" width="84.047" height="81.725" viewBox="0 0 84.047 81.725">
  <defs>
    <linearGradient id="linear-gradient" x1="0.731" x2="0.374" y2="1.39" gradientUnits="objectBoundingBox">
      <stop offset="0" stop-color="#5ba1dd"/>
      <stop offset="1" stop-color="#8164e4"/>
    </linearGradient>
  </defs>
  <g id="cpr" transform="translate(-1064.117 -3370.074)">
    <path id="Path_50" data-name="Path 50" d="M27.5,14.811c22.746,13.133,43.857-2.5,43.857,12.689S42.688,55,27.5,55A27.5,27.5,0,0,1,0,27.5C0,12.312,4.754,1.678,27.5,14.811Z" transform="translate(1074.705 3435.719) rotate(-73)" fill="#fce0e6"/>
    <g id="heart" transform="translate(1064.117 3340.961)">
      <g id="Group_33" data-name="Group 33" transform="translate(10.791 55.859)">
        <g id="Group_32" data-name="Group 32">
          <path id="Path_43" data-name="Path 43" d="M127.344,189.2h-6.977l-4.781-4.417a1.4,1.4,0,0,0-2.343,1.025V193.2l-3.593-3.593a1.387,1.387,0,0,0-.987-.409h-4.5l-4.366-4.327a1.4,1.4,0,0,0-2.379.991v7.326l-3.7-3.7a1.387,1.387,0,0,0-.987-.409H85.458a.958.958,0,0,0,0,1.916H92.51l4.437,4.437a1.4,1.4,0,0,0,2.383-.987v-7.334l3.633,3.6a1.387,1.387,0,0,0,.983.4h4.5l4.328,4.328a1.4,1.4,0,0,0,2.383-.987V187l4.058,3.749a1.392,1.392,0,0,0,.947.37h7.18a.958.958,0,0,0,0-1.916Z" transform="translate(-84.5 -184.414)" fill="url(#linear-gradient)"/>
        </g>
      </g>
      <g id="Group_35" data-name="Group 35" transform="translate(20.369 81.821)">
        <g id="Group_34" data-name="Group 34">
          <path id="Path_44" data-name="Path 44" d="M177.432,387.717H160.458a.958.958,0,0,0,0,1.916h16.974a.958.958,0,0,0,0-1.916Z" transform="translate(-159.5 -387.717)" fill="#7578e2"/>
        </g>
      </g>
      <g id="Group_37" data-name="Group 37" transform="translate(41.812 81.821)">
        <g id="Group_36" data-name="Group 36">
          <path id="Path_45" data-name="Path 45" d="M330.854,387.717h-2.479a.958.958,0,0,0,0,1.916h2.479a.958.958,0,0,0,0-1.916Z" transform="translate(-327.417 -387.717)" fill="#7a6fe3"/>
        </g>
      </g>
      <g id="Group_39" data-name="Group 39" transform="translate(0 37.039)">
        <g id="Group_38" data-name="Group 38" transform="translate(0 0)">
          <path id="Path_46" data-name="Path 46" d="M62.594,37.039H2.789A2.792,2.792,0,0,0,0,39.828V85.865a2.792,2.792,0,0,0,2.789,2.789H5.8v2.334a1.977,1.977,0,0,0,1.975,1.975h3.5a1.977,1.977,0,0,0,1.975-1.975V88.654H52.139v2.334a1.977,1.977,0,0,0,1.975,1.975h3.5a1.977,1.977,0,0,0,1.975-1.975V88.654h3.006a2.792,2.792,0,0,0,2.789-2.789V39.828A2.793,2.793,0,0,0,62.594,37.039ZM11.329,90.988a.059.059,0,0,1-.059.059h-3.5a.059.059,0,0,1-.059-.059V88.654h3.618v2.334Zm46.343,0a.06.06,0,0,1-.059.059h-3.5a.059.059,0,0,1-.059-.059V88.654h3.618Zm5.8-5.123h0a.875.875,0,0,1-.874.874H2.789a.875.875,0,0,1-.874-.874V39.828a.875.875,0,0,1,.874-.874H62.594a.875.875,0,0,1,.874.874Z" transform="translate(0 -37.039)" fill="url(#linear-gradient)"/>
        </g>
      </g>
      <g id="Group_41" data-name="Group 41" transform="translate(4.284 41.323)">
        <g id="Group_40" data-name="Group 40" transform="translate(0 0)">
          <path id="Path_47" data-name="Path 47" d="M88.881,70.582H43.415a.958.958,0,1,0,0,1.916H88.446v33.574H35.46V72.5h3.485a.958.958,0,1,0,0-1.916h-3.92a1.482,1.482,0,0,0-1.48,1.48v34.445a1.482,1.482,0,0,0,1.48,1.48H88.881a1.482,1.482,0,0,0,1.48-1.48V72.062A1.482,1.482,0,0,0,88.881,70.582Z" transform="translate(-33.545 -70.582)" fill="url(#linear-gradient)"/>
        </g>
      </g>
      <g id="Group_43" data-name="Group 43" transform="translate(45.246 45.476)">
        <g id="Group_42" data-name="Group 42">
          <path id="Path_48" data-name="Path 48" d="M365.257,105.834a3.062,3.062,0,0,0-2.182-2.563,3.431,3.431,0,0,0-3.275.662,3.431,3.431,0,0,0-3.275-.662,3.062,3.062,0,0,0-2.182,2.563c-.227,1.581.573,3.951,3.5,5.859.439.286,1.1.666,1.382.828l.061.035a.958.958,0,0,0,.478.128h.075a.957.957,0,0,0,.478-.128l.061-.035c.282-.162.943-.542,1.382-.828C364.685,109.785,365.484,107.415,365.257,105.834Zm-4.545,4.255c-.259.169-.62.383-.912.553-.293-.17-.653-.385-.912-.553-2.174-1.418-2.785-3.031-2.649-3.982a1.151,1.151,0,0,1,.838-1,1.745,1.745,0,0,1,.5-.079,2.117,2.117,0,0,1,1.516.879.958.958,0,0,0,1.4,0,1.852,1.852,0,0,1,2.021-.8,1.151,1.151,0,0,1,.838,1C363.5,107.057,362.886,108.671,360.712,110.089Z" transform="translate(-354.307 -103.107)" fill="url(#linear-gradient)"/>
        </g>
      </g>
      <g id="Group_45" data-name="Group 45" transform="translate(54.154 79.887)">
        <g id="Group_44" data-name="Group 44">
          <path id="Path_49" data-name="Path 49" d="M426.958,372.569a2.892,2.892,0,1,0,2.892,2.892A2.9,2.9,0,0,0,426.958,372.569Zm0,3.869a.977.977,0,1,1,.977-.977A.978.978,0,0,1,426.958,376.438Z" transform="translate(-424.066 -372.569)" fill="#6e84e1"/>
        </g>
      </g>
    </g>
  </g>
</svg>
