<svg xmlns="http://www.w3.org/2000/svg" width="234.373" height="192.104" viewBox="0 0 234.373 192.104">
  <g id="building_2" data-name="building 2" transform="translate(-167.293 -4064.487)">
    <path id="Path_140" data-name="Path 140" d="M37.3,121.255c48.188,39.321,60.481-38.415,60.114-61.863S82.724,0,51.749,0-13.374,22.249,5.328,42.821-10.889,81.934,37.3,121.255Z" transform="matrix(0.839, -0.545, 0.545, 0.839, 167.294, 4145.74)" fill="#fce0e6"/>
    <g id="Group_51" data-name="Group 51" transform="translate(-704.984 3573.456)">
      <g id="townhall" transform="translate(924.649 491.932)">
        <path id="Path_54" data-name="Path 54" d="M13951.649,5052.6l12.644-23.983.912-43.142" transform="translate(-13951.649 -4953.171)" fill="none" stroke="#8164e4" stroke-linecap="round" stroke-linejoin="round" stroke-width="1.8"/>
        <path id="Path_55" data-name="Path 55" d="M14009.232,4918.2l4.352-13.611,28.562,6.08" transform="translate(-13997.574 -4887.046)" fill="none" stroke="#8164e4" stroke-linecap="round" stroke-linejoin="round" stroke-width="1.8"/>
        <path id="Path_56" data-name="Path 56" d="M14039.119,4820.528l3.678-11.6,21.589,5.28" transform="translate(-14023.081 -4808.932)" fill="none" stroke="#8164e4" stroke-linecap="round" stroke-linejoin="round" stroke-width="1.8"/>
        <path id="Path_57" data-name="Path 57" d="M14168.225,4852.028V4865.3" transform="translate(-14127.962 -4844.638)" fill="none" stroke="#8164e4" stroke-linecap="round" stroke-width="1.8"/>
        <path id="Path_58" data-name="Path 58" d="M14168.225,4852.029v2.552" transform="translate(-14150.699 -4838.828)" fill="none" stroke="#8164e4" stroke-linecap="round" stroke-width="1.8"/>
        <path id="Path_59" data-name="Path 59" d="M14168.225,4852.029v29.489" transform="translate(-14124.479 -4825.709)" fill="none" stroke="#8164e4" stroke-linecap="round" stroke-width="1.8"/>
        <path id="Path_60" data-name="Path 60" d="M14108.564,5132.1l8.463-11.718,28.255,4.3" transform="translate(-14079.792 -5063.273)" fill="none" stroke="#8164e4" stroke-linecap="round" stroke-linejoin="round" stroke-width="1.8"/>
        <path id="Path_61" data-name="Path 61" d="M0,0V60.343" transform="translate(117.57 67.341) rotate(99)" fill="none" stroke="#8164e4" stroke-linecap="round" stroke-width="1.8"/>
        <path id="Path_62" data-name="Path 62" d="M14383.542,5163.652l-19.922-3.256-2.01,1.236-46.268-7.4" transform="translate(-14248.654 -5090.919)" fill="none" stroke="#8164e4" stroke-linecap="round" stroke-linejoin="round" stroke-width="1.8"/>
        <path id="Path_77" data-name="Path 77" d="M14168.225,4852.029v14.07" transform="translate(-14147.399 -4849.789)" fill="none" stroke="#8164e4" stroke-linecap="round" stroke-width="1.8"/>
        <path id="Path_78" data-name="Path 78" d="M14168.225,4852.029v83.759" transform="translate(-14151.065 -4831.366)" fill="none" stroke="#8164e4" stroke-linecap="round" stroke-width="1.8"/>
        <path id="Path_79" data-name="Path 79" d="M14168.225,4852.029v32.034l19.618-2.892h50.826l4.141,2.892h5.419l8.431,4.909" transform="translate(-14166.836 -4751.528)" fill="none" stroke="#8164e4" stroke-linecap="round" stroke-linejoin="round" stroke-width="1.8"/>
        <path id="Path_80" data-name="Path 80" d="M13969.285,5388.044l16.761-15.961,5.657.471,2.733-2.168,120.675,7.354v3.854" transform="translate(-13966.052 -5267.436)" fill="none" stroke="#8164e4" stroke-linecap="round" stroke-linejoin="round" stroke-width="1.8"/>
        <path id="Path_81" data-name="Path 81" d="M14168.225,4852.03v31.484" transform="translate(-14129.979 -4782.556)" fill="none" stroke="#8164e4" stroke-linecap="round" stroke-width="1.8"/>
        <path id="Path_82" data-name="Path 82" d="M0,0V29.272" transform="matrix(1, -0.017, 0.017, 1, 64.762, 73.296)" fill="none" stroke="#8164e4" stroke-linecap="round" stroke-width="1.8"/>
        <path id="Path_83" data-name="Path 83" d="M0,0V25.457" transform="matrix(0.999, -0.035, 0.035, 0.999, 115.255, 80.383)" fill="none" stroke="#8164e4" stroke-linecap="round" stroke-width="1.8"/>
        <path id="Path_84" data-name="Path 84" d="M0,0V24.072" transform="translate(134.341 82.99) rotate(-3)" fill="none" stroke="#8164e4" stroke-linecap="round" stroke-width="1.8"/>
        <path id="Path_85" data-name="Path 85" d="M14108.02,5183.024l8.334-10.908,99.151,13.972" transform="translate(-14079.347 -5105.521)" fill="none" stroke="#8164e4" stroke-linecap="round" stroke-width="1.8"/>
        <path id="Path_86" data-name="Path 86" d="M0,0V3.475" transform="translate(133.849 74.75) rotate(-3)" fill="none" stroke="#8164e4" stroke-linecap="round" stroke-width="1.8"/>
        <path id="Path_87" data-name="Path 87" d="M0,0V3.514" transform="matrix(0.999, -0.035, 0.035, 0.999, 115.115, 71.917)" fill="none" stroke="#8164e4" stroke-linecap="round" stroke-width="1.8"/>
        <path id="Path_88" data-name="Path 88" d="M0,0V4.685" transform="matrix(1, -0.017, 0.017, 1, 64.6, 63.709)" fill="none" stroke="#8164e4" stroke-linecap="round" stroke-width="1.8"/>
        <path id="Path_89" data-name="Path 89" d="M14168.225,4852.029v4.752" transform="translate(-14129.979 -4792.389)" fill="none" stroke="#8164e4" stroke-linecap="round" stroke-width="1.8"/>
        <path id="Path_90" data-name="Path 90" d="M14708.733,5432.786l-12.54,2.574v12.133h7.477l5.063,2.819h8.664l12.242,5.266" transform="translate(-14559.671 -5318.394)" fill="none" stroke="#8164e4" stroke-linecap="round" stroke-linejoin="round" stroke-width="1.8"/>
        <path id="Path_91" data-name="Path 91" d="M13971.173,5416.278l16.508-13.306,5.784.327,2.455-1.618,111.93,5.373" transform="translate(-13967.594 -5292.993)" fill="none" stroke="#8164e4" stroke-linecap="round" stroke-linejoin="round" stroke-width="1.8"/>
        <path id="Path_94" data-name="Path 94" d="M0,0V15.959" transform="matrix(1, -0.017, 0.017, 1, 84.391, 113.998)" fill="none" stroke="#8164e4" stroke-linecap="round" stroke-width="1.8"/>
        <path id="Path_95" data-name="Path 95" d="M0,0V14.852" transform="matrix(0.999, -0.035, 0.035, 0.999, 108.808, 115.106)" fill="none" stroke="#8164e4" stroke-linecap="round" stroke-width="1.8"/>
        <path id="Path_92" data-name="Path 92" d="M13959.691,5543.718l87.219,6.2,92.406.012" transform="translate(-13958.217 -5408.985)" fill="none" stroke="#8164e4" stroke-linecap="round" stroke-linejoin="round" stroke-width="1.8"/>
        <path id="Path_93" data-name="Path 93" d="M14443.224,5462.342l-.29-12.328,12.766.509.29,11.819" transform="translate(-14352.851 -5332.463)" fill="none" stroke="#8164e4" stroke-linecap="round" stroke-linejoin="round" stroke-width="1.8"/>
        <path id="Path_96" data-name="Path 96" d="M14168.225,4852.03v15.442" transform="translate(-14129.979 -4740.221)" fill="none" stroke="#8164e4" stroke-linecap="round" stroke-width="1.8"/>
        <path id="Path_97" data-name="Path 97" d="M14168.225,4852.03v12.694" transform="translate(-14151.065 -4736.737)" fill="none" stroke="#8164e4" stroke-linecap="round" stroke-width="1.8"/>
      </g>
      <g id="clock" transform="translate(948.643 525.408)">
        <line id="Line_2" data-name="Line 2" y1="1.467" transform="translate(6.601 0)" fill="none" stroke="#8164e4" stroke-linecap="round" stroke-width="1.8"/>
        <line id="Line_3" data-name="Line 3" x1="0.917" y2="1.1" transform="translate(8.985 1.467)" fill="none" stroke="#8164e4" stroke-linecap="round" stroke-width="1.8"/>
        <line id="Line_4" data-name="Line 4" x1="1.467" y2="0.55" transform="translate(10.635 3.851)" fill="none" stroke="#8164e4" stroke-linecap="round" stroke-width="1.8"/>
        <line id="Line_5" data-name="Line 5" x1="1.65" y1="0.183" transform="translate(11.185 6.418)" fill="none" stroke="#8164e4" stroke-linecap="round" stroke-width="1.8"/>
        <line id="Line_6" data-name="Line 6" x1="1.467" y1="0.917" transform="translate(10.635 8.435)" fill="none" stroke="#8164e4" stroke-linecap="round" stroke-width="1.8"/>
        <line id="Line_7" data-name="Line 7" x1="0.733" y1="1.284" transform="translate(8.985 9.718)" fill="none" stroke="#8164e4" stroke-linecap="round" stroke-width="1.8"/>
        <line id="Line_8" data-name="Line 8" y1="1.467" transform="translate(6.418 9.718)" fill="none" stroke="#8164e4" stroke-linecap="round" stroke-width="1.8"/>
        <line id="Line_9" data-name="Line 9" y1="1.284" x2="0.917" transform="translate(2.934 8.801)" fill="none" stroke="#8164e4" stroke-linecap="round" stroke-width="1.8"/>
        <line id="Line_10" data-name="Line 10" y1="0.733" x2="1.467" transform="translate(0.917 7.151)" fill="none" stroke="#8164e4" stroke-linecap="round" stroke-width="1.8"/>
        <line id="Line_11" data-name="Line 11" x2="1.834" y2="0.183" transform="translate(0 4.767)" fill="none" stroke="#8164e4" stroke-linecap="round" stroke-width="1.8"/>
        <line id="Line_12" data-name="Line 12" x2="1.467" y2="0.917" transform="translate(0.917 2.017)" fill="none" stroke="#8164e4" stroke-linecap="round" stroke-width="1.8"/>
        <line id="Line_13" data-name="Line 13" x2="0.733" y2="1.284" transform="translate(3.484 0.367)" fill="none" stroke="#8164e4" stroke-linecap="round" stroke-width="1.8"/>
      </g>
    </g>
  </g>
</svg>
