<svg xmlns="http://www.w3.org/2000/svg" width="234.287" height="192.192" viewBox="0 0 234.287 192.192">
  <g id="building_2" data-name="building 2" transform="translate(-167.293 -4064.399)">
    <path id="Path_140" data-name="Path 140" d="M37.3,121.255c48.188,39.321,60.481-38.415,60.114-61.863S82.724,0,51.749,0-13.374,22.249,5.328,42.821-10.889,81.934,37.3,121.255Z" transform="matrix(0.839, -0.545, 0.545, 0.839, 167.294, 4145.74)" fill="#fae5e9"/>
    <g id="Group_55" data-name="Group 55" transform="translate(-703.984 3573.068)">
      <g id="townhall" transform="translate(924.649 491.932)">
        <path id="Path_54" data-name="Path 54" d="M13951.65,5052.305l12.588-23.878.908-42.956" transform="translate(-13951.65 -4953.312)" fill="none" stroke="#552ae8" stroke-linecap="round" stroke-linejoin="round" stroke-width="1.2"/>
        <path id="Path_55" data-name="Path 55" d="M14009.232,4918.139l4.334-13.553,28.438,6.054" transform="translate(-13997.624 -4887.123)" fill="none" stroke="#552ae8" stroke-linecap="round" stroke-linejoin="round" stroke-width="1.2"/>
        <path id="Path_56" data-name="Path 56" d="M14039.119,4820.478l3.662-11.546,21.494,5.257" transform="translate(-14023.15 -4808.932)" fill="none" stroke="#552ae8" stroke-linecap="round" stroke-linejoin="round" stroke-width="1.2"/>
        <path id="Path_57" data-name="Path 57" d="M14168.225,4852.028v13.215" transform="translate(-14128.137 -4844.67)" fill="none" stroke="#552ae8" stroke-linecap="round" stroke-width="1.2"/>
        <path id="Path_58" data-name="Path 58" d="M14168.225,4852.029v2.542" transform="translate(-14150.775 -4838.886)" fill="none" stroke="#552ae8" stroke-linecap="round" stroke-width="1.2"/>
        <path id="Path_59" data-name="Path 59" d="M14168.225,4852.029v29.361" transform="translate(-14124.669 -4825.824)" fill="none" stroke="#552ae8" stroke-linecap="round" stroke-width="1.2"/>
        <path id="Path_60" data-name="Path 60" d="M14108.564,5132.049l8.428-11.667,28.133,4.278" transform="translate(-14079.917 -5063.521)" fill="none" stroke="#552ae8" stroke-linecap="round" stroke-linejoin="round" stroke-width="1.2"/>
        <path id="Path_61" data-name="Path 61" d="M0,0V60.081" transform="translate(117.06 67.049) rotate(99)" fill="none" stroke="#552ae8" stroke-linecap="round" stroke-width="1.2"/>
        <path id="Path_62" data-name="Path 62" d="M14383.247,5163.612l-19.834-3.242-2,1.23-46.068-7.365" transform="translate(-14248.944 -5091.194)" fill="none" stroke="#552ae8" stroke-linecap="round" stroke-linejoin="round" stroke-width="1.2"/>
        <path id="Path_77" data-name="Path 77" d="M14168.225,4852.029v14.009" transform="translate(-14147.489 -4849.799)" fill="none" stroke="#552ae8" stroke-linecap="round" stroke-width="1.2"/>
        <path id="Path_78" data-name="Path 78" d="M14168.225,4852.029v83.4" transform="translate(-14151.141 -4831.455)" fill="none" stroke="#552ae8" stroke-linecap="round" stroke-width="1.2"/>
        <path id="Path_79" data-name="Path 79" d="M14168.225,4852.029v31.9l19.535-2.879h50.6l4.125,2.879h5.395l8.395,4.888" transform="translate(-14166.842 -4751.965)" fill="none" stroke="#552ae8" stroke-linecap="round" stroke-linejoin="round" stroke-width="1.2"/>
        <path id="Path_80" data-name="Path 80" d="M13969.285,5387.967l16.688-15.892,5.633.47,2.721-2.159,120.152,7.322v3.836" transform="translate(-13966.066 -5267.882)" fill="none" stroke="#552ae8" stroke-linecap="round" stroke-linejoin="round" stroke-width="1.2"/>
        <path id="Path_81" data-name="Path 81" d="M14168.225,4852.03v31.347" transform="translate(-14130.146 -4782.858)" fill="none" stroke="#552ae8" stroke-linecap="round" stroke-width="1.2"/>
        <path id="Path_82" data-name="Path 82" d="M0,0V29.145" transform="matrix(1, -0.017, 0.017, 1, 64.481, 72.977)" fill="none" stroke="#552ae8" stroke-linecap="round" stroke-width="1.2"/>
        <path id="Path_83" data-name="Path 83" d="M0,0V25.346" transform="matrix(0.999, -0.035, 0.035, 0.999, 114.755, 80.034)" fill="none" stroke="#552ae8" stroke-linecap="round" stroke-width="1.2"/>
        <path id="Path_84" data-name="Path 84" d="M0,0V23.967" transform="translate(133.758 82.63) rotate(-3)" fill="none" stroke="#552ae8" stroke-linecap="round" stroke-width="1.2"/>
        <path id="Path_85" data-name="Path 85" d="M14108.021,5182.977l8.3-10.86,98.723,13.911" transform="translate(-14079.473 -5105.811)" fill="none" stroke="#552ae8" stroke-linecap="round" stroke-width="1.2"/>
        <path id="Path_86" data-name="Path 86" d="M0,0V3.46" transform="translate(133.268 74.425) rotate(-3)" fill="none" stroke="#552ae8" stroke-linecap="round" stroke-width="1.2"/>
        <path id="Path_87" data-name="Path 87" d="M0,0V3.5" transform="matrix(0.999, -0.035, 0.035, 0.999, 114.616, 71.605)" fill="none" stroke="#552ae8" stroke-linecap="round" stroke-width="1.2"/>
        <path id="Path_88" data-name="Path 88" d="M0,0V4.664" transform="matrix(1, -0.017, 0.017, 1, 64.319, 63.432)" fill="none" stroke="#552ae8" stroke-linecap="round" stroke-width="1.2"/>
        <path id="Path_89" data-name="Path 89" d="M14168.225,4852.029v4.731" transform="translate(-14130.146 -4792.648)" fill="none" stroke="#552ae8" stroke-linecap="round" stroke-width="1.2"/>
        <path id="Path_90" data-name="Path 90" d="M14708.68,5432.786l-12.486,2.563v12.081h7.445l5.041,2.807h8.627l12.189,5.242" transform="translate(-14560.264 -5318.891)" fill="none" stroke="#552ae8" stroke-linecap="round" stroke-linejoin="round" stroke-width="1.2"/>
        <path id="Path_91" data-name="Path 91" d="M13971.173,5416.215l16.437-13.249,5.759.325,2.443-1.61,111.443,5.349" transform="translate(-13967.608 -5293.465)" fill="none" stroke="#552ae8" stroke-linecap="round" stroke-linejoin="round" stroke-width="1.2"/>
        <path id="Path_94" data-name="Path 94" d="M0,0V15.89" transform="matrix(1, -0.017, 0.017, 1, 84.025, 113.503)" fill="none" stroke="#552ae8" stroke-linecap="round" stroke-width="1.2"/>
        <path id="Path_95" data-name="Path 95" d="M0,0V14.788" transform="matrix(0.999, -0.035, 0.035, 0.999, 108.336, 114.606)" fill="none" stroke="#552ae8" stroke-linecap="round" stroke-width="1.2"/>
        <path id="Path_92" data-name="Path 92" d="M13959.692,5543.718l86.841,6.173,92.006.012" transform="translate(-13958.225 -5409.57)" fill="none" stroke="#552ae8" stroke-linecap="round" stroke-linejoin="round" stroke-width="1.2"/>
        <path id="Path_93" data-name="Path 93" d="M14443.222,5462.289l-.287-12.275,12.711.506.287,11.769" transform="translate(-14353.242 -5332.974)" fill="none" stroke="#552ae8" stroke-linecap="round" stroke-linejoin="round" stroke-width="1.2"/>
        <path id="Path_96" data-name="Path 96" d="M14168.225,4852.03v15.376" transform="translate(-14130.146 -4740.707)" fill="none" stroke="#552ae8" stroke-linecap="round" stroke-width="1.2"/>
        <path id="Path_97" data-name="Path 97" d="M14168.225,4852.03v12.64" transform="translate(-14151.141 -4737.238)" fill="none" stroke="#552ae8" stroke-linecap="round" stroke-width="1.2"/>
      </g>
      <g id="clock" transform="translate(948.538 525.263)">
        <line id="Line_2" data-name="Line 2" y1="1.461" transform="translate(6.572 0)" fill="none" stroke="#552ae8" stroke-linecap="round" stroke-width="1.2"/>
        <line id="Line_3" data-name="Line 3" x1="0.913" y2="1.095" transform="translate(8.946 1.461)" fill="none" stroke="#552ae8" stroke-linecap="round" stroke-width="1.2"/>
        <line id="Line_4" data-name="Line 4" x1="1.461" y2="0.548" transform="translate(10.589 3.834)" fill="none" stroke="#552ae8" stroke-linecap="round" stroke-width="1.2"/>
        <line id="Line_5" data-name="Line 5" x1="1.643" y1="0.183" transform="translate(11.137 6.39)" fill="none" stroke="#552ae8" stroke-linecap="round" stroke-width="1.2"/>
        <line id="Line_6" data-name="Line 6" x1="1.461" y1="0.913" transform="translate(10.589 8.398)" fill="none" stroke="#552ae8" stroke-linecap="round" stroke-width="1.2"/>
        <line id="Line_7" data-name="Line 7" x1="0.73" y1="1.278" transform="translate(8.946 9.676)" fill="none" stroke="#552ae8" stroke-linecap="round" stroke-width="1.2"/>
        <line id="Line_8" data-name="Line 8" y1="1.461" transform="translate(6.39 9.676)" fill="none" stroke="#552ae8" stroke-linecap="round" stroke-width="1.2"/>
        <line id="Line_9" data-name="Line 9" y1="1.278" x2="0.913" transform="translate(2.921 8.763)" fill="none" stroke="#552ae8" stroke-linecap="round" stroke-width="1.2"/>
        <line id="Line_10" data-name="Line 10" y1="0.73" x2="1.461" transform="translate(0.913 7.12)" fill="none" stroke="#552ae8" stroke-linecap="round" stroke-width="1.2"/>
        <line id="Line_11" data-name="Line 11" x2="1.826" y2="0.183" transform="translate(0 4.747)" fill="none" stroke="#552ae8" stroke-linecap="round" stroke-width="1.2"/>
        <line id="Line_12" data-name="Line 12" x2="1.461" y2="0.913" transform="translate(0.913 2.008)" fill="none" stroke="#552ae8" stroke-linecap="round" stroke-width="1.2"/>
        <line id="Line_13" data-name="Line 13" x2="0.73" y2="1.278" transform="translate(3.469 0.365)" fill="none" stroke="#552ae8" stroke-linecap="round" stroke-width="1.2"/>
      </g>
    </g>
  </g>
</svg>
