<svg xmlns="http://www.w3.org/2000/svg" width="35" height="32.301" viewBox="0 0 35 32.301">
  <g id="phone" transform="translate(-1319 -4297)">
    <g id="Rectangle_32" data-name="Rectangle 32" transform="translate(1329 4297)" fill="none" stroke="#202235" stroke-width="1.5">
      <rect width="25" height="28" rx="2" stroke="none"/>
      <rect x="0.75" y="0.75" width="23.5" height="26.5" rx="1.25" fill="none"/>
    </g>
    <g id="Rectangle_33" data-name="Rectangle 33" transform="translate(1319 4297)" fill="none" stroke="#202235" stroke-width="1.5">
      <rect width="9" height="28" rx="2" stroke="none"/>
      <rect x="0.75" y="0.75" width="7.5" height="26.5" rx="1.25" fill="none"/>
    </g>
    <path id="Path_221" data-name="Path 221" d="M-5935.5,13528.772a5.556,5.556,0,0,0,5.47,4.777c4.841.064,5.422-4.777,5.422-4.777" transform="translate(7259 -9205)" fill="none" stroke="#202235" stroke-width="1.5"/>
    <g id="Rectangle_34" data-name="Rectangle 34" transform="translate(1333 4309)" fill="none" stroke="#202235" stroke-width="1">
      <rect width="5" height="3" rx="1" stroke="none"/>
      <rect x="0.5" y="0.5" width="4" height="2" rx="0.5" fill="none"/>
    </g>
    <g id="Rectangle_37" data-name="Rectangle 37" transform="translate(1333 4313)" fill="none" stroke="#202235" stroke-width="1">
      <rect width="5" height="3" rx="1" stroke="none"/>
      <rect x="0.5" y="0.5" width="4" height="2" rx="0.5" fill="none"/>
    </g>
    <g id="Rectangle_40" data-name="Rectangle 40" transform="translate(1333 4317)" fill="none" stroke="#202235" stroke-width="1">
      <rect width="5" height="3" rx="1" stroke="none"/>
      <rect x="0.5" y="0.5" width="4" height="2" rx="0.5" fill="none"/>
    </g>
    <g id="Rectangle_35" data-name="Rectangle 35" transform="translate(1339 4309)" fill="none" stroke="#202235" stroke-width="1">
      <rect width="5" height="3" rx="1" stroke="none"/>
      <rect x="0.5" y="0.5" width="4" height="2" rx="0.5" fill="none"/>
    </g>
    <g id="Rectangle_38" data-name="Rectangle 38" transform="translate(1339 4313)" fill="none" stroke="#202235" stroke-width="1">
      <rect width="5" height="3" rx="1" stroke="none"/>
      <rect x="0.5" y="0.5" width="4" height="2" rx="0.5" fill="none"/>
    </g>
    <g id="Rectangle_41" data-name="Rectangle 41" transform="translate(1339 4317)" fill="none" stroke="#202235" stroke-width="1">
      <rect width="5" height="3" rx="1" stroke="none"/>
      <rect x="0.5" y="0.5" width="4" height="2" rx="0.5" fill="none"/>
    </g>
    <g id="Rectangle_36" data-name="Rectangle 36" transform="translate(1345 4309)" fill="none" stroke="#202235" stroke-width="1">
      <rect width="5" height="3" rx="1" stroke="none"/>
      <rect x="0.5" y="0.5" width="4" height="2" rx="0.5" fill="none"/>
    </g>
    <g id="Rectangle_39" data-name="Rectangle 39" transform="translate(1345 4313)" fill="none" stroke="#202235" stroke-width="1">
      <rect width="5" height="3" rx="1" stroke="none"/>
      <rect x="0.5" y="0.5" width="4" height="2" rx="0.5" fill="none"/>
    </g>
    <g id="Rectangle_42" data-name="Rectangle 42" transform="translate(1345 4317)" fill="none" stroke="#202235" stroke-width="1">
      <rect width="5" height="3" rx="1" stroke="none"/>
      <rect x="0.5" y="0.5" width="4" height="2" rx="0.5" fill="none"/>
    </g>
    <g id="Rectangle_43" data-name="Rectangle 43" transform="translate(1334 4302)" fill="none" stroke="#202235" stroke-width="1.3">
      <rect width="15" height="4" rx="1" stroke="none"/>
      <rect x="-0.65" y="-0.65" width="16.3" height="5.3" rx="1.65" fill="none"/>
    </g>
  </g>
</svg>
