<?xml version="1.0" encoding="UTF-8"?>
<svg width="34px" height="34px" viewBox="0 0 34 34" version="1.1" xmlns="http://www.w3.org/2000/svg" xmlns:xlink="http://www.w3.org/1999/xlink">
    <!-- Generator: Sketch 56.2 (81672) - https://sketch.com -->
    <title>phone</title>
    <desc>Created with Sketch.</desc>
    <g id="Page-1" stroke="none" stroke-width="1" fill="none" fill-rule="evenodd" stroke-linejoin="round">
        <g id="phone" transform="translate(1.000000, 1.000000)" fill="#202334" fill-rule="nonzero" stroke="#202335" stroke-width="0.5">
            <path d="M2.924,12.576 C6.91291503,20.2445516 13.3847457,26.3335297 21.282,29.848 C24.292,30.985 26.871,31.082 27.85,30.102 C28.05,29.902 28.25,29.707 28.472,29.502 C29.572,28.457 30.819,27.273 30.765,25.958 C30.728,25.058 30.065,24.084 28.811,23.072 C25.042,20.041 23.989,21.111 22.241,22.883 L21.898,23.229 C21.063,24.066 19.706,23.876 17.864,22.683 C16.1710367,21.5020231 14.5990494,20.1564717 13.171,18.666 C8.639,14.134 7.191,11.366 8.609,9.942 L8.95,9.605 C10.73,7.857 11.798,6.805 8.767,3.032 C7.756,1.772 6.786,1.114 5.884,1.076 L5.8,1.076 C4.52,1.076 3.364,2.29 2.342,3.369 C2.136,3.585 1.942,3.795 1.742,3.991 C0.801,4.931 0.863,7.344 1.868,10.191 L0.89,10.621 C-0.317,7.261 -0.293,4.512 0.985,3.235 C1.174,3.046 1.367,2.842 1.567,2.635 C2.767,1.37 4.126,-0.053 5.93,0.009 C7.171,0.061 8.374,0.831 9.605,2.364 C13.247,6.89 11.605,8.503 9.705,10.375 L9.37,10.707 C9.059,11.018 8.47,12.456 13.932,17.916 C15.3064166,19.3531452 16.8190529,20.6514131 18.448,21.792 C19.213,22.292 20.58,23.041 21.141,22.48 L21.478,22.139 C23.346,20.245 24.958,18.609 29.478,22.245 C31.011,23.477 31.778,24.678 31.832,25.921 C31.906,27.721 30.472,29.083 29.206,30.285 C28.997,30.485 28.793,30.677 28.606,30.865 C27.7689575,31.5778568 26.6843583,31.9314836 25.588,31.849 C23.9796608,31.7939096 22.3936672,31.4553838 20.903,30.849 C12.7437678,27.2351701 6.06069756,20.9471721 1.957,13.023 L2.924,12.576 Z"></path>
        </g>
    </g>
</svg>