<svg xmlns="http://www.w3.org/2000/svg" xmlns:xlink="http://www.w3.org/1999/xlink" width="73.554" height="74.222" viewBox="0 0 73.554 74.222">
  <defs>
    <linearGradient id="linear-gradient" x1="1" y1="0.109" x2="0.046" y2="1" gradientUnits="objectBoundingBox">
      <stop offset="0" stop-color="#58a5dc"/>
      <stop offset="1" stop-color="#8164e4"/>
    </linearGradient>
  </defs>
  <g id="syringe" transform="translate(-982.698 -2489.095)">
    <path id="Path_27" data-name="Path 27" d="M18.321,20.009c10.337,16.785,37.806-3.6,37.806,12.657S38.285,62.109,24.664,62.109,0,48.927,0,32.666,7.984,3.224,18.321,20.009Z" transform="translate(1013.752 2478.516) rotate(30)" fill="#fce0e6"/>
    <path id="injection" d="M64.01,12.119a.967.967,0,0,0,0-1.368L51.522-1.736a.966.966,0,0,0-1.368,0L48.37.048a.968.968,0,0,0,0,1.368L49.843,2.89,48.358,4.375a.968.968,0,0,0,1.368,1.369l1.487-1.487,6.8,6.8-6.8,6.8-6.8-6.8,1.877-1.877a.968.968,0,0,0-1.368-1.369L43.04,9.693c-3.86-3.729-3.81-4.112-4.513-4.112s-.835.547-2.879,2.479a.967.967,0,0,0,0,1.368l2.139,2.14C17.1,32.25,17.454,31.883,17.364,32.019A15.44,15.44,0,0,0,13.386,43.1L10.93,45.551a2.98,2.98,0,0,0-.879,2.121,3.106,3.106,0,0,0,.969,2.212L-1.447,62.353a.966.966,0,0,0,0,1.368.967.967,0,0,0,1.368,0L12.389,51.253l.091.091a3,3,0,0,0,4.241,0l2.457-2.457a15.431,15.431,0,0,0,11.636-4.51L43.2,31.99a.967.967,0,1,0-1.368-1.368L37.356,35.1c-.826-.14-3.1-.882-4.867-4.826-1.585-3.543-3.506-5.109-4.87-5.8l.757-.756L33.1,28.441a.968.968,0,0,0,1.368-1.369l-4.725-4.725,2.032-2.033L33.94,22.48a.968.968,0,0,0,1.369-1.369l-2.164-2.163,2.033-2.033,2.163,2.164a.968.968,0,1,0,1.369-1.368l-2.163-2.164,2.609-2.61L49.337,23.118,45.8,26.657a.968.968,0,0,0,1.369,1.368l3.539-3.539c2.061,1.939,2.138,2.424,2.824,2.424a.966.966,0,0,0,.684-.283c2.014-2.131,2.479-2.2,2.479-2.88,0-.7-.344-.613-4.112-4.513l6.8-6.8c1.351,1.243,1.493,1.757,2.158,1.757a.965.965,0,0,0,.684-.283ZM14.6,50.288c-.723,0-.909-.576-2.3-1.863a1.063,1.063,0,0,1,0-1.5l1.546-1.547A5.686,5.686,0,0,0,16.9,48.429c-1.4,1.295-1.577,1.858-2.3,1.858ZM30.722,31.063c1.578,3.529,3.605,4.987,5.083,5.587l-6.358,6.358a13.51,13.51,0,0,1-10.614,3.92,3.774,3.774,0,0,1-3.487-3.487,13.5,13.5,0,0,1,2.891-9.46c4.778,4.635,4.627,4.946,5.346,4.946a.969.969,0,0,0,.684-1.652L19.541,32.55l2.032-2.032c2.076,1.953,2.161,2.447,2.848,2.447a.969.969,0,0,0,.684-1.652L22.942,29.15l2.032-2.033c2.076,1.954,2.16,2.447,2.848,2.447a.969.969,0,0,0,.684-1.652l-1.685-1.684c.994.525,2.539,1.792,3.9,4.835Zm22.807-6.49L37.7,8.744l.827-.827L54.356,23.746Zm8.013-12.723L50.423.732l.416-.416L61.958,11.435Zm0,0" transform="translate(990.959 2499.313)" fill="url(#linear-gradient)"/>
  </g>
</svg>
