<svg xmlns="http://www.w3.org/2000/svg" xmlns:xlink="http://www.w3.org/1999/xlink" width="807.841" height="730.326" viewBox="0 0 807.841 730.326">
  <defs>
    <linearGradient id="linear-gradient" x1="0.5" y1="1" x2="0.5" gradientUnits="objectBoundingBox">
      <stop offset="0" stop-color="gray" stop-opacity="0.251"/>
      <stop offset="0.54" stop-color="gray" stop-opacity="0.122"/>
      <stop offset="1" stop-color="gray" stop-opacity="0.102"/>
    </linearGradient>
  </defs>
  <g id="undraw_science_fqhl" transform="translate(-68.474)">
    <ellipse id="Ellipse_67" data-name="Ellipse 67" cx="86.636" cy="13.521" rx="86.636" ry="13.521" transform="translate(669.176 668.097)" fill="#6c63ff" opacity="0.1"/>
    <ellipse id="Ellipse_68" data-name="Ellipse 68" cx="97.351" cy="9.768" rx="97.351" ry="9.768" transform="translate(384.31 710.79)" fill="#6c63ff" opacity="0.1"/>
    <ellipse id="Ellipse_69" data-name="Ellipse 69" cx="73.893" cy="4.56" rx="73.893" ry="4.56" transform="translate(112.824 711.504)" fill="#6c63ff" opacity="0.1"/>
    <path id="Path_604" data-name="Path 604" d="M428.6,88.721c27.408-24.4,70.44-29.4,109.6-27.455,123.005,6.108,234.037,65.5,330.084,132.67,34.774,24.312,69,50.519,91.571,84.008,45.978,68.16,32.316,162.593-31.565,218.752-21.741,19.1-48.089,33.78-75.141,46.738-48.1,23.092-100,41.624-154.58,46.916-38.931,3.753-78.341.7-117.037-4.551-108.132-14.675-214.266-47.1-303.22-102.559-39.016-24.4-75.8-54.611-91.881-93.973s-5.789-89.244,34.052-112.543c16.477-9.637,36.182-13.99,55.464-18.072,28.394-6.015,57.238-11.945,82.863-24.181,26.461-12.63,57.791-37.054,52.546-65.007C405.747,139.465,401.234,113.117,428.6,88.721Z" transform="translate(-110.691 -56.583)" fill="#6c63ff" opacity="0.1"/>
    <path id="Path_605" data-name="Path 605" d="M671.234,432.788V253.625h24.4V200.14H520.821v53.485h24.4V432.788a177.644,177.644,0,1,0,126.057.015Z" transform="translate(-126.199 -65.171)" fill="#96b7fe" opacity="0.9"/>
    <rect id="Rectangle_114" data-name="Rectangle 114" width="126.055" height="2.411" transform="translate(418.981 187.9)" opacity="0.1"/>
    <path id="Path_606" data-name="Path 606" d="M514,617.325s106.969-1.877,160.454-28.647,84.046-2.871,81.174,13.371-18.138,47.742-79.26,51.608S514,617.325,514,617.325Z" transform="translate(-131.342 -88.392)" fill="#6c63ff"/>
    <path id="Path_607" data-name="Path 607" d="M514,617.325s106.969-1.877,160.454-28.647,84.046-2.871,81.174,13.371-18.138,47.742-79.26,51.608S514,617.325,514,617.325Z" transform="translate(-131.342 -88.392)" opacity="0.1"/>
    <path id="Path_608" data-name="Path 608" d="M465.167,601.626s-11.429,158.53,138.469,161.392S752.613,603.5,752.613,603.5s-55.361,60.156-186.22,10.5C566.393,614.04,498.59,595.893,465.167,601.626Z" transform="translate(-128.318 -89.864)" fill="#6c63ff"/>
    <path id="Path_609" data-name="Path 609" d="M752.126,604.272c-2.993,36.52-22.407,150.836-148.434,148.424-123.54-2.336-137.53-110.338-138.628-148.33-.685,20.39-.075,156.184,138.6,158.84C753.6,766.02,752.643,603.69,752.643,603.69S752.455,603.925,752.126,604.272Z" transform="translate(-128.319 -90.06)" opacity="0.1"/>
    <circle id="Ellipse_70" data-name="Ellipse 70" cx="19.451" cy="19.451" r="19.451" transform="translate(456.776 423.907)" fill="#6c63ff" opacity="0.3"/>
    <circle id="Ellipse_71" data-name="Ellipse 71" cx="12.039" cy="12.039" r="12.039" transform="translate(475.299 353.504)" fill="#6c63ff" opacity="0.3"/>
    <circle id="Ellipse_72" data-name="Ellipse 72" cx="12.039" cy="12.039" r="12.039" transform="translate(448.435 284.022)" fill="#6c63ff" opacity="0.3"/>
    <path id="Path_610" data-name="Path 610" d="M486.97,542.884c-1.032,8.2-.826,18.466,6.5,22.295-6.146-3.209,19.048-39.6,15.473-47.029C501.3,502.292,487.909,535.265,486.97,542.884Z" transform="translate(-129.647 -84.522)" fill="#fff" opacity="0.2"/>
    <circle id="Ellipse_73" data-name="Ellipse 73" cx="19.451" cy="19.451" r="19.451" transform="translate(431.292 60.316)" fill="#6c63ff" opacity="0.3"/>
    <circle id="Ellipse_74" data-name="Ellipse 74" cx="14.46" cy="14.46" r="14.46" transform="translate(494.638 31.959)" fill="#6c63ff" opacity="0.3"/>
    <circle id="Ellipse_75" data-name="Ellipse 75" cx="7.516" cy="7.516" r="7.516" transform="translate(459.901 0)" fill="#6c63ff" opacity="0.3"/>
    <path id="Path_611" data-name="Path 611" d="M379.668,319.48H222.47v46.625h23.955V729.856a54.655,54.655,0,1,0,109.31,0l0-363.751h23.937Z" transform="translate(-113.362 -72.532)" fill="#96b7fe" opacity="0.9"/>
    <path id="Path_612" data-name="Path 612" d="M286.81,456.5s38.9-13.9,49.731-4.016c0,0-15.754,23.158-30.261,22.229S286.81,456.5,286.81,456.5Z" transform="translate(-117.33 -80.516)" fill="#6c63ff"/>
    <path id="Path_613" data-name="Path 613" d="M286.81,456.5s38.9-13.9,49.731-4.016c0,0-15.754,23.158-30.261,22.229S286.81,456.5,286.81,456.5Z" transform="translate(-117.33 -80.516)" opacity="0.1"/>
    <path id="Path_614" data-name="Path 614" d="M335.406,452.694V716.7a33.348,33.348,0,0,1-33.348,33.348h0A33.348,33.348,0,0,1,268.71,716.7V452.694s16.055-4.326,31.181,4.945S335.406,452.694,335.406,452.694Z" transform="translate(-116.213 -80.686)" fill="#6c63ff"/>
    <rect id="Rectangle_115" data-name="Rectangle 115" width="109.305" height="2.149" transform="translate(133.045 293.283)" opacity="0.1"/>
    <path id="Path_615" data-name="Path 615" d="M302.058,750.357h0A33.348,33.348,0,0,1,268.71,717v16.674a33.348,33.348,0,0,0,33.348,33.348h0a33.348,33.348,0,0,0,33.348-33.348V717a33.348,33.348,0,0,1-33.348,33.357Z" transform="translate(-116.213 -97.049)" opacity="0.1"/>
    <circle id="Ellipse_76" data-name="Ellipse 76" cx="6.793" cy="6.793" r="6.793" transform="translate(179.061 332.495)" fill="#6c63ff" opacity="0.3"/>
    <circle id="Ellipse_77" data-name="Ellipse 77" cx="4.326" cy="4.326" r="4.326" transform="translate(203.757 310.876)" fill="#6c63ff" opacity="0.3"/>
    <circle id="Ellipse_78" data-name="Ellipse 78" cx="4.326" cy="4.326" r="4.326" transform="translate(173.496 302.234)" fill="#6c63ff" opacity="0.3"/>
    <path id="Path_616" data-name="Path 616" d="M256.97,508.335c-1.032,8.2-.826,18.466,6.5,22.295-6.155-3.209,19.048-39.588,15.473-47.029C271.28,467.762,257.909,500.725,256.97,508.335Z" transform="translate(-115.462 -82.392)" fill="#fff" opacity="0.2"/>
    <circle id="Ellipse_79" data-name="Ellipse 79" cx="16.505" cy="16.505" r="16.505" transform="translate(183.442 184.766)" fill="#6c63ff" opacity="0.3"/>
    <circle id="Ellipse_80" data-name="Ellipse 80" cx="12.273" cy="12.273" r="12.273" transform="translate(138.159 160.697)" fill="#6c63ff" opacity="0.3"/>
    <circle id="Ellipse_81" data-name="Ellipse 81" cx="6.381" cy="6.381" r="6.381" transform="translate(179.417 133.58)" fill="#6c63ff" opacity="0.3"/>
    <path id="Path_617" data-name="Path 617" d="M989.187,492.336s-14.4-71.632-8.9-80.546c0,0,.2-8.285-.131-18.842v-1.22a24.882,24.882,0,0,0,3.021,1.764,24.4,24.4,0,0,0,16.487,2.13l-4.382-4.861a8.076,8.076,0,0,1-2.365-3.95,8.605,8.605,0,0,1,.938-4.269c4.138-10.462,4.391-23.627-3.622-31.612-6.737-6.718-8.389-15.389-15.67-21.516-5.349-4.495-8.285-11.082-11.063-17.434a99.839,99.839,0,0,1-6.052-16.515c-1.051-4.457-1.464-9.064-2.909-13.418s-4.129-8.586-8.342-10.528a30.646,30.646,0,0,1-4.532-2.008c-1.8-1.21-2.881-3.181-4.176-4.9-6.568-8.736-28.713-3.594-39.184-.047a22.061,22.061,0,0,0-7.741,4.288l.094-.16.263-.385A13.869,13.869,0,0,0,888,271.576c-1.529,2.421-2.167,5.264-3.434,7.816-1.539,3.1-10.078,11.738-6.409,15.22a3.146,3.146,0,0,0,.854.563,7.647,7.647,0,0,0,4.326.432c-.056.122-.113.244-.159.366a25.579,25.579,0,0,0-1.877,9.674,26.179,26.179,0,0,0,26.4,25.945,26.76,26.76,0,0,0,8.088-1.239c.066.328.122.657.178.985a.852.852,0,0,0,.066.4h0l-.46.647-.075-.122-13.69,19.142c-2.092,1.464-14.15,10.19-14.8,16.73-.713,7.159-1.426,15.548-1.426,15.548l-.094,1.792a5.4,5.4,0,0,1-4.354,1.182c-4.269-.7-4.269,15.726-4.269,15.726s-2.815,2.618-4.795.347-7.112,5.414-7.112,5.414l-32.363,1.4h-.741l-1.745-5.4A2.28,2.28,0,0,0,827.3,402.7a1.817,1.817,0,0,0-.394.159l-.113.075a1.365,1.365,0,0,0-.225.16.649.649,0,0,0-.122.1,1.589,1.589,0,0,0-.178.178,1.365,1.365,0,0,0-.094.122l-.056.056h0a2.205,2.205,0,0,0-.319,1.952l1.5,4.635c-6.24,1.257-12.63,4.795-7.422,14.553l-26.386-4.87,8.539,7.159,44.1,9.1c-.582,1.051-.2,2.562,1.623,4.692,7.835,9.214,22.154,11.71,27.906,12.367a49.353,49.353,0,0,0,5.63,9.562l-.507,9.177s-14.563,69.99-17.237,73.546a41.5,41.5,0,0,0,3.613-4.879c-4.232,14.385-10.143,34.071-11.692,37.017-2.5,4.692-4.8,23.758-1.961,24.988.891.375,3.359.2,6.915-.075v1.576l-.159,59.818s.713,36.7-1.248,40.188-2.487,10.828-2.487,10.828-7.863,14.478-14.075,20.3l-.141.122-.2-1.37s-7.507,9.44-24,8.914c0,0-9.956,6.465,4.8,6.812s33.6-.525,33.6-.525,13.137-20.089,24.181-17.472v15.2h3.378V731.533a13.85,13.85,0,0,0,6.005-9.111,11.026,11.026,0,0,0-3.932-10.218,6.568,6.568,0,0,1-2.158-4.785l-.122.1a6.966,6.966,0,0,0-.122-.938c-.938-7.863-2.168-24.04,2.111-36.032,5.865-16.43,7.647-39.306,3.378-52.94a121.136,121.136,0,0,1-3.378-13.258c-.1-.572-.206-1.107-.291-1.614a66.612,66.612,0,0,1,8.661,1.773c9.909,2.721,31.556,3.228,50.041,3.087.047.507.1,1.032.159,1.567a56.92,56.92,0,0,0,2.083,10.885c2.308,7,3.378,37.739,3.378,37.739s2.993,25.288,1.361,35.591c-.938,5.724-1.727,11.466-2.243,17.237v.113s-4.9,13.972-8.445,21.581c-.094.2-.178.385-.272.572a11.823,11.823,0,0,0-2.815.61s-4.795,9.608-9.6,11.185-3.2,6.812,7.647,4.889,27.211-3.491,27.211-3.491l.713-9.787,3.331-4.166-.845,9.759,3.556-.694-.469-11.879,5.452-6.822s6.568-5.855-3.2-17.378v.244c-.1-.169-.206-.338-.319-.5V704.8c-1.614-2.515-2.909-7.2-.544-15.511,4.269-15.013,6.756-28.647,6.756-28.647s9.543-36.51-1.933-53.794h.516a29.166,29.166,0,0,1-2.477-7.676c-.056-.319-.1-.647-.159-.938,8.445-.488,16.824-2.027,23.608-5.33C996.647,592.8,992.565,506.138,989.187,492.336ZM881.439,431.908v.169l-1.755.084Zm-5.977.826a1.876,1.876,0,0,0-.788.375,7.8,7.8,0,0,0-1.37,3.584l-2.721-.619s-1.877-.4-4.692-.854l-1.3-1.3C868.209,433.578,871.925,433.174,875.462,432.733Z" transform="translate(-148.579 -68.851)" fill="url(#linear-gradient)"/>
    <path id="Path_618" data-name="Path 618" d="M870.542,703.846,869.5,716.213l3.481-.7-.525-13.4Z" transform="translate(-53.627 -43.303)" fill="#1d2366"/>
    <path id="Path_619" data-name="Path 619" d="M889.072,692.865c-4.194,11.945-2.993,28.075-2.055,35.91.347,2.9.666,4.692.666,4.692s-6.268,14.281-6.793,14.807-18.466,11.466-18.466,11.466l-12.536,7.31s-12.714-5.574-6.568-7.507A9.261,9.261,0,0,0,846.6,757.3c6.08-5.8,13.784-20.221,13.784-20.221s.516-7.31,2.43-10.791,1.22-40.048,1.22-40.048l.159-59.621V618.85l23.852.178a54.748,54.748,0,0,0,1.032,7.854,121.472,121.472,0,0,0,3.322,13.212C896.551,653.709,894.815,676.491,889.072,692.865Z" transform="translate(-151.549 -90.995)" fill="#ffb0b1"/>
    <path id="Path_620" data-name="Path 620" d="M887.674,740.692s-6.268,14.281-6.793,14.807-18.457,11.466-18.457,11.466l-12.536,7.31s-12.714-5.574-6.568-7.507a9.261,9.261,0,0,0,3.284-2.243l.544,3.81,4.185-.178L887.017,736C887.355,738.89,887.674,740.692,887.674,740.692Z" transform="translate(-151.549 -98.221)" opacity="0.1"/>
    <path id="Path_621" data-name="Path 621" d="M885.788,736.88l-35.957,32.391-4.185.169-.863-6.09s-7.319,9.383-23.514,8.877c0,0-9.749,6.446,4.692,6.793s32.917-.525,32.917-.525,12.883-20.024,23.674-17.406v15.145h3.312V760.911a13.766,13.766,0,0,0,5.874-9.074,11.1,11.1,0,0,0-3.847-10.19,6.568,6.568,0,0,1-2.1-4.767Z" transform="translate(-150.094 -98.275)" fill="#1d2366"/>
    <path id="Path_622" data-name="Path 622" d="M978.2,711.451c-2.318,8.285-1.051,12.949.525,15.454v.056a28.544,28.544,0,0,1,4.194,10.218l.15.788-16.364,23.852-8.877,3.481s-14.281-4.87-11.673-6.268c.657-.347,1.68-2.149,2.815-4.692,3.5-7.507,8.3-21.45,8.3-21.45v-.122c.5-5.752,1.3-11.476,2.2-17.181,1.6-10.256-1.332-35.459-1.332-35.459s-1.042-30.636-3.312-37.608a58.179,58.179,0,0,1-2.036-10.847c-.469-4.382-.572-7.957-.572-7.957s9.383-13.061,26.639,1.042a19.274,19.274,0,0,1,3.594,3.913c11.907,16.89,2.327,54.244,2.327,54.244S982.378,696.485,978.2,711.451Z" transform="translate(-157.976 -90.956)" fill="#ffb0b1"/>
    <path id="Path_623" data-name="Path 623" d="M983.073,745.05,966.708,768.9l-8.877,3.481s-14.281-4.87-11.673-6.268c.657-.347,1.68-2.149,2.815-4.692,6.043,0,9.177,5.705,9.177,5.705l7.657-1.21s10.106-19.855,12.367-21.065.347-9.064.347-9.064v-2l.178.216v.056a28.546,28.546,0,0,1,4.222,10.247Z" transform="translate(-157.976 -98.084)" opacity="0.1"/>
    <path id="Path_624" data-name="Path 624" d="M957.923,767.719s-4.354-8-12.7-5.048c0,0-4.692,9.58-9.383,11.147s-3.134,6.784,7.507,4.87,26.639-3.481,26.639-3.481l.694-9.749L981.466,751.7s6.446-5.836-3.134-17.322v2s1.877,7.835-.347,9.055S965.627,766.5,965.627,766.5Z" transform="translate(-157.204 -98.121)" fill="#1d2366"/>
    <path id="Path_625" data-name="Path 625" d="M889.5,619.038a54.74,54.74,0,0,0,1.032,7.854c-9.824-1.445-18.935-.723-24.9-.263V618.86Z" transform="translate(-153.029 -90.996)" opacity="0.1"/>
    <path id="Path_626" data-name="Path 626" d="M983.842,630.839s-13.962.676-30.589.816c-.469-4.382-.572-7.957-.572-7.957s9.383-13.061,26.639,1.042a19.275,19.275,0,0,1,3.594,3.913A22.9,22.9,0,0,0,983.842,630.839Z" transform="translate(-158.398 -90.955)" opacity="0.1"/>
    <path id="Path_627" data-name="Path 627" d="M977.943,619.227s-61.113,2.956-79.758-2.261-37.083-.7-39.869-1.924-.516-20.193,1.877-24.894,15.848-52.237,15.848-52.237L888.924,470.7l13.587-3.753.938-.263,23.655-6.568,17.35-4.785s34.474,134.593,31.509,144.5a25.336,25.336,0,0,0-.5,11.682,29.267,29.267,0,0,0,2.477,7.713Z" transform="translate(-152.498 -80.91)" fill="#1d2366"/>
    <path id="Path_628" data-name="Path 628" d="M842.778,422.72s-12.2,13.061-2.965,20.371,15.323.7,15.323.7Z" transform="translate(-151.223 -78.899)" fill="#c7daf5"/>
    <path id="Path_629" data-name="Path 629" d="M842.778,422.72s-12.2,13.061-2.965,20.371,15.323.7,15.323.7Z" transform="translate(-151.223 -78.899)" opacity="0.1"/>
    <path id="Path_630" data-name="Path 630" d="M946.6,329.493s-1.426,1.351-3.584,3.369c-3.068,2.862-7.61,7.056-11.645,10.575-5.63,4.861-10.181,8.445-8.539,5.377s1.332-8.342.516-13.305l-.169-.985a91.3,91.3,0,0,0-2.7-10.781s9.017-11.654,14.009-16.252c1.877-1.717,3.162-2.449,3.228-1.248.094,1.633,1.323,5.2,2.815,9.064.056.113.1.235.15.347,1.013,2.6,2.149,5.311,3.153,7.629C945.364,326.837,946.6,329.493,946.6,329.493Z" transform="translate(-156.412 -71.679)" fill="#ffb0b1"/>
    <path id="Path_631" data-name="Path 631" d="M940.672,315.652a25.9,25.9,0,0,1-17.34,19.855,89.552,89.552,0,0,0-2.871-11.767s16.974-21.938,17.237-17.5C937.857,307.93,939.114,311.665,940.672,315.652Z" transform="translate(-156.41 -71.679)" opacity="0.1"/>
    <path id="Path_632" data-name="Path 632" d="M919.594,343.517l2.2-3.087s1.454,8.877,6.812,4.964,5.63,29.463,5.63,29.463l-5.761,85.932L886.94,458.3l1.173-41.521,4.692-20.9,11.626-30.43,6.962-10.049Z" transform="translate(-154.343 -73.824)" opacity="0.1"/>
    <path id="Path_633" data-name="Path 633" d="M934.211,375.417l-5.2,77.693-.544,8.229-23.158-1.379-.938-.056-17.462-1.042,1.173-41.53,4.692-20.887,11.626-30.43,6.99-10.059,8.229-11.879,2.2-3.1s1.454,8.886,6.812,4.964l.1-.075h0C933.958,342.509,934.211,375.417,934.211,375.417Z" transform="translate(-154.341 -73.858)" fill="#1d2366"/>
    <path id="Path_634" data-name="Path 634" d="M890.315,392.29s-2.083,4.354-6.268,3.659-4.176,15.67-4.176,15.67-2.815,2.609-4.692.347-6.962,5.4-6.962,5.4l-31.687,1.4S850.6,425.2,847.846,444.7c0,0,47.855-2.965,49.45-7.507S890.315,392.29,890.315,392.29Z" transform="translate(-151.234 -77.022)" fill="#fff"/>
    <path id="Path_635" data-name="Path 635" d="M890.315,392.29s-2.083,4.354-6.268,3.659-4.176,15.67-4.176,15.67-2.815,2.609-4.692.347-6.962,5.4-6.962,5.4l-31.687,1.4S850.6,425.2,847.846,444.7c0,0,47.855-2.965,49.45-7.507S890.315,392.29,890.315,392.29Z" transform="translate(-151.234 -77.022)" opacity="0.03"/>
    <path id="Path_636" data-name="Path 636" d="M689.5,375.14l8.36,7.141,68.779,14.45-8.539-8.7Z" transform="translate(-42.525 -23.137)" fill="#fff"/>
    <path id="Path_637" data-name="Path 637" d="M918.6,346.1c-1.135,1.708-4.4,10.678-7.141,18.476-2.271,6.493-4.176,12.2-4.176,12.2s-4.438,28.91-6.7,34.127-1.042,25.616-1.042,25.616L891.1,486.838s-3.828,25.945-9.74,41.436c-5.8,15.21-12.367,22.37-12.545,22.585,2.618-3.537,16.89-73.292,16.89-73.292l4.692-87.94s.694-8.351,1.4-15.492,14.8-16.89,14.8-16.89l13.625-19.376C921.61,339.775,920.69,342.965,918.6,346.1Z" transform="translate(-153.225 -73.666)" fill="#fff"/>
    <path id="Path_638" data-name="Path 638" d="M881.922,465.8s-20.024-.863-29.773-12.536,22.464-4.692,22.464-4.692l8.351,1.877Z" transform="translate(-152.084 -80.366)" fill="#ffb0b1"/>
    <path id="Path_639" data-name="Path 639" d="M979.021,593.149a25.335,25.335,0,0,0-.5,11.682c-21.882,1.558-45.293-4.373-45.293-4.373-4.354,4.007-15.848,9.927-15.848,9.927l-6.268-77.665c-4-10.453-5.564-65.3-5.564-65.3s.357-2.871.938-7.169a.756.756,0,0,1,.047-.319c1.567-12.011,4.692-34.559,6.174-37.608,2.092-4.176-6.437-15.313-6.437-15.313l3.875-33.1.469-3.988c8.192-3.659,14.46-15.323,14.46-15.323l4.8-8.445h0c5.245-3.359,5.5,29.548,5.5,29.548l-5.2,77.693,17.35-4.785S981.977,583.222,979.021,593.149Z" transform="translate(-155.491 -74.162)" opacity="0.1"/>
    <path id="Path_640" data-name="Path 640" d="M1001.553,597.182c-23.852,11.842-67.212.873-67.212.873-4.354,4.007-15.848,9.927-15.848,9.927l-6.268-77.665c-4-10.444-5.564-65.289-5.564-65.289s5.048-40.92,7.131-45.1c.61-1.22.319-3.031-.4-4.983a63.132,63.132,0,0,1-3.819-29.219l1.67-14.216.469-3.988c8.182-3.659,14.45-15.332,14.45-15.332l4.363-7.638,8.032-14.075,3.8-6.662.638.582,4.936,4.466s2.092,1.727,5.227,4.382c6.831,5.752,18.635,15.886,24.716,22.079,5.358,5.47,7.047,26.7,7.507,42.694.328,10.519.131,18.767.131,18.767-5.4,8.877,8.7,80.274,8.7,80.274C997.546,510.819,1001.553,597.182,1001.553,597.182Z" transform="translate(-155.559 -72.799)" fill="#fff"/>
    <path id="Path_641" data-name="Path 641" d="M954.177,353.8s-16.374,31.171-14.45,43,7.31,25.25,4.692,28.384a9.627,9.627,0,0,1-7.666,3.828c-2.609.178-9.58,5.048-9.58,5.574s-6.437.525-12.2,2.965-14.281,3.828-14.281,3.828-16.543-.526-18.11,1.042-3.134,10.969.178,18.457,6.962,13.062,9.749,14.075,20.371-4.87,34.643-6.268,29.839-12.677,29.839-12.677,17.059-6.1,20.024-16.374-3.659-66.687-3.659-66.687S968.252,346.659,954.177,353.8Z" transform="translate(-153.965 -74.573)" opacity="0.03"/>
    <path id="Path_642" data-name="Path 642" d="M951.938,351.019s-16.364,31.162-14.45,43,7.31,25.25,4.692,28.384a9.627,9.627,0,0,1-7.666,3.828c-2.609.178-9.571,5.048-9.571,5.574s-6.446.516-12.2,2.956-14.281,3.828-14.281,3.828-16.543-.516-18.11,1.051-3.134,10.969.178,18.457,6.962,13.061,9.749,14.075,20.371-4.879,34.652-6.268,29.792-12.7,29.792-12.7,17.059-6.09,20.024-16.364-3.659-66.687-3.659-66.687S966.041,343.878,951.938,351.019Z" transform="translate(-153.827 -74.401)" opacity="0.03"/>
    <path id="Path_643" data-name="Path 643" d="M953.606,352.129s-16.355,31.171-14.478,42.966,7.31,25.25,4.692,28.384a9.6,9.6,0,0,1-7.666,3.828c-2.609.178-9.571,5.048-9.571,5.574s-6.446.525-12.2,2.965-14.281,3.828-14.281,3.828-16.543-.525-18.11,1.042-3.134,10.969.178,18.457,6.962,13.061,9.749,14.075,20.371-4.87,34.652-6.268,29.773-12.7,29.773-12.7,17.059-6.1,20.024-16.374-3.659-66.687-3.659-66.687S967.709,344.988,953.606,352.129Z" transform="translate(-153.928 -74.469)" fill="#fff"/>
    <path id="Path_644" data-name="Path 644" d="M957.437,441.229s-13.061-2.609-8.529,1.745,4.523,8.182,10.1,8S957.437,441.229,957.437,441.229Z" transform="translate(-158.106 -79.993)" opacity="0.1"/>
    <path id="Path_645" data-name="Path 645" d="M981.528,541.3s-5.921,4.007,5.4,13.23S981.528,541.3,981.528,541.3Z" transform="translate(-160.081 -86.213)" opacity="0.1"/>
    <path id="Path_646" data-name="Path 646" d="M969.544,576.37c0,.526-2.083,19.151,5.752,23.852S969.544,576.37,969.544,576.37Z" transform="translate(-159.422 -88.375)" opacity="0.1"/>
    <path id="Path_647" data-name="Path 647" d="M836.093,420.48c-6.305.216-19.958,2.149-12.883,15.342,6.259,11.673,16.768,3.875,22.651-2.055a22.266,22.266,0,0,0-9.768-13.287Z" transform="translate(-150.29 -78.761)" fill="#ffb0b1"/>
    <path id="Path_648" data-name="Path 648" d="M848.19,433.91Z" transform="translate(-151.953 -79.589)" fill="#ffb0b1"/>
    <path id="Path_649" data-name="Path 649" d="M847.59,434.513c.094-.084.178-.178.263-.263C847.768,434.334,847.684,434.428,847.59,434.513Z" transform="translate(-151.916 -79.61)" fill="#ffb0b1"/>
    <path id="Path_650" data-name="Path 650" d="M953.455,333.8c-6.7,4.579-12.32,8.445-13.409,9.252-3.012,2.214-8.755,15.276-12.414,21.938-2.946,5.367-12.489,6.747-16.092,7.084l.432-3.95c8.182-3.65,14.45-15.323,14.45-15.323l16.2-28.375,5.574,5.048S950.321,331.158,953.455,333.8Z" transform="translate(-155.86 -72.837)" opacity="0.1"/>
    <path id="Path_651" data-name="Path 651" d="M953.455,333.25c-6.7,4.57-12.32,8.445-13.409,9.243-3.012,2.224-8.755,15.276-12.414,21.938-2.946,5.367-12.489,6.747-16.092,7.084l.469-3.988c8.182-3.659,14.45-15.332,14.45-15.332l16.2-28.375,5.574,5.048S950.321,330.557,953.455,333.25Z" transform="translate(-155.86 -72.799)" fill="#dce7ff"/>
    <path id="Path_652" data-name="Path 652" d="M939.07,308.48a25.039,25.039,0,0,1-.572,5.4,25.5,25.5,0,0,1-3.978,9.252,25.86,25.86,0,1,1,4.551-14.657Z" transform="translate(-154.368 -70.259)" fill="#ffb0b1"/>
    <path id="Path_653" data-name="Path 653" d="M984.331,395.483a22.969,22.969,0,0,1-8.342-8.97c-1.454-2.881-2.421-6.193-4.917-8.248-2.233-1.82-5.255-2.271-8.023-3.087-9.167-2.712-16.89-11.091-17.153-20.643-.131-4.495,1.267-8.989.629-13.437a14.816,14.816,0,0,0-2.918-6.934,21.474,21.474,0,0,0-2.515-2.712c-1.22-1.154-2.505-2.271-3.613-3.5a13.636,13.636,0,0,1-1.877-2.487,12.291,12.291,0,0,1-1-2.318c-1.708-5.33-.16-11.673-2.074-17.068a.9.9,0,0,0-.1-.291c-.732-1.924-2.205-3.838-4.241-3.988s-3.81,1.548-5.761,2.318c-4.091,1.586-8.511-1.117-11.917-3.875s-7.253-5.911-11.6-5.292c-2.862.4-5.133,2.365-7.769,3.378a12.581,12.581,0,0,1-1.877.525,25.86,25.86,0,0,1,49.853,9.637,25.035,25.035,0,0,1-.572,5.4c.056.113.1.235.15.347,1.013,2.6,2.149,5.311,3.153,7.629l4.936,4.466s2.092,1.727,5.227,4.382c6.831,5.752,18.635,15.886,24.716,22.079C982.154,358.26,983.843,379.494,984.331,395.483Z" transform="translate(-154.486 -70.26)" opacity="0.1"/>
    <path id="Path_654" data-name="Path 654" d="M890.527,281.1c1.248-2.543,1.877-5.386,3.359-7.788,2.186-3.519,6.015-5.724,9.927-7.075,10.247-3.528,31.9-8.661,38.368,0,1.276,1.717,2.327,3.688,4.091,4.9a31.494,31.494,0,0,0,4.438,1.989c4.129,1.942,6.765,6.155,8.173,10.49S960.7,292.548,961.7,297c1.314,5.686,3.631,11.082,5.93,16.449,2.712,6.334,5.63,12.893,10.828,17.378,7.141,6.108,8.745,14.75,15.342,21.441,7.854,7.957,7.6,21.084,3.556,31.5a8.68,8.68,0,0,0-.938,4.26,8.145,8.145,0,0,0,2.318,3.941l4.288,4.842a24.125,24.125,0,0,1-26.358-12.2c-1.464-2.881-2.43-6.193-4.926-8.239-2.233-1.83-5.245-2.271-8.023-3.1-9.167-2.712-16.89-11.091-17.153-20.643-.131-4.485,1.267-8.989.638-13.437a14.948,14.948,0,0,0-2.909-6.85c-2.411-3.134-6.024-5.264-7.976-8.7-3.3-5.827-.8-13.409-3.181-19.7-.732-1.877-2.2-3.838-4.241-3.988s-3.81,1.558-5.761,2.318c-4.091,1.586-8.5-1.117-11.907-3.875s-7.263-5.9-11.6-5.283c-2.871.4-5.133,2.355-7.779,3.369-1.952.751-5.911,1.426-7.629-.225C880.628,292.8,888.988,284.187,890.527,281.1Z" transform="translate(-154.12 -68.954)" fill="#7c5c5c"/>
    <path id="Path_655" data-name="Path 655" d="M979.1,382.282c-1.454-2.881-2.421-6.193-4.917-8.248-2.233-1.83-5.255-2.271-8.023-3.087-9.167-2.712-16.89-11.091-17.153-20.643-.141-4.495,1.267-8.989.629-13.437a14.816,14.816,0,0,0-2.918-6.934c-2.4-3.134-6.024-5.273-7.966-8.708-3.312-5.827-.8-13.409-3.181-19.7-.732-1.877-2.2-3.838-4.241-3.988s-3.81,1.548-5.761,2.308c-4.091,1.6-8.511-1.107-11.907-3.866s-7.263-5.9-11.607-5.292c-2.815.4-5.123,2.355-7.769,3.378-1.952.751-5.911,1.426-7.629-.225-3.594-3.472,4.767-12.086,6.277-15.163,1.248-2.543,1.877-5.386,3.359-7.788l.253-.394a13.8,13.8,0,0,0-2.815,3.265c-1.5,2.4-2.121,5.245-3.359,7.788-1.511,3.087-9.871,11.7-6.277,15.163,1.708,1.651,5.63.938,7.629.225,2.637-1.013,4.9-2.965,7.769-3.378,4.335-.61,8.192,2.534,11.6,5.292s7.826,5.461,11.907,3.875c1.961-.76,3.669-2.477,5.761-2.318s3.519,2.064,4.251,3.988c2.383,6.259-.131,13.84,3.172,19.7,1.952,3.425,5.574,5.564,7.976,8.7a14.816,14.816,0,0,1,2.918,6.934c.638,4.448-.769,8.942-.629,13.437.291,9.562,7.985,17.941,17.153,20.643,2.768.816,5.789,1.257,8.023,3.1,2.5,2.046,3.453,5.358,4.917,8.238a24.124,24.124,0,0,0,26.358,12.2l-2.017-2.289C992.018,395.2,983.113,390.192,979.1,382.282Z" transform="translate(-154.113 -69.51)" opacity="0.1"/>
    <path id="Path_656" data-name="Path 656" d="M920.53,346.659c-1.145,1.708-4.41,10.678-7.141,18.466-2.552-.985-4.879-7.328-4.879-7.328l13.6-19.376C923.533,340.334,922.613,343.524,920.53,346.659Z" transform="translate(-155.673 -73.7)" opacity="0.1"/>
    <path id="Path_657" data-name="Path 657" d="M921.081,346.1c-1.135,1.708-4.4,10.678-7.141,18.476-2.552-.985-4.87-7.328-4.87-7.328l13.625-19.376C924.093,339.775,923.173,342.965,921.081,346.1Z" transform="translate(-155.708 -73.666)" fill="#dce7ff"/>
    <path id="Path_658" data-name="Path 658" d="M836.956,439.844,829.4,416.058a2.233,2.233,0,0,1,1.445-2.815h0a2.214,2.214,0,0,1,2.815,1.445l7.554,23.805-.751,4.982Z" transform="translate(-150.788 -78.308)" fill="#be8b87"/>
    <path id="Path_659" data-name="Path 659" d="M830.142,413.95h0a2.233,2.233,0,0,1,2.815,1.454l7.554,23.787-.572,3.753.554.572.751-4.983-7.554-23.787a2.215,2.215,0,0,0-2.815-1.445h0a2.177,2.177,0,0,0-1.154.854A2.141,2.141,0,0,1,830.142,413.95Z" transform="translate(-150.814 -78.311)" fill="#fff" opacity="0.1"/>
    <path id="Path_660" data-name="Path 660" d="M731.27,385.211l4.241-1.351-.619,4.091-.131.891-1.239-1.295Z" transform="translate(-45.101 -23.675)" fill="#efc8c4"/>
    <path id="Path_661" data-name="Path 661" d="M839.86,444.071a1.063,1.063,0,0,1,.272-.225.385.385,0,0,1,.4,0,.941.941,0,0,1,.15.235.742.742,0,0,0,.544.366l-.131.938Z" transform="translate(-151.439 -80.199)" fill="#727a9c"/>
    <path id="Path_662" data-name="Path 662" d="M829.37,425.23s15.154-.084,11.579,6.352-9.139,7.225-9.139,7.225Z" transform="translate(-150.792 -79.054)" fill="#ffb0b1"/>
  </g>
</svg>
