<svg xmlns="http://www.w3.org/2000/svg" xmlns:xlink="http://www.w3.org/1999/xlink" width="1058.743" height="793.623" viewBox="0 0 1058.743 793.623">
  <defs>
    <linearGradient id="linear-gradient" x1="0.5" y1="1" x2="0.5" gradientUnits="objectBoundingBox">
      <stop offset="0" stop-color="gray" stop-opacity="0.251"/>
      <stop offset="0.54" stop-color="gray" stop-opacity="0.122"/>
      <stop offset="1" stop-color="gray" stop-opacity="0.102"/>
    </linearGradient>
    <linearGradient id="linear-gradient-2" x1="0.5" y1="1" x2="0.5" y2="0" xlink:href="#linear-gradient"/>
  </defs>
  <g id="undraw_photocopy_gj0t" transform="translate(7.576 19.003)">
    <g id="background" transform="translate(-60 18)">
      <path id="Path_1" data-name="Path 1" d="M169.669,104.27c-10.537,5.24-21.063,11.56-27.513,21.35s-8.066,21.9-9.264,33.56c-11.221,109.43,75.96,249.084,115.237,288.361C308.938,508.349,405.348,523.29,458.78,552c29.834,16,55.272,39,83.619,57.52s61.754,32.91,95.386,28.44c18.784-2.49,36.37-10.73,55.165-13.46,38.691-5.62,76.27,12.49,112.651,26.7a608.015,608.015,0,0,0,159.387,38.46c42.478,4.32,119.643.452,159.879-13.916,35.71-10.263,50.522-40.684,59.094-55.53C1216.8,563.335,1117.99,477.2,1117.99,477.2s-34.369-42.847-36.8-71.867c-2.8-33.4,29.438-67.643,36.8-100.353,11.232-49.91,9.018-105.66-20.325-147.67-11.318-16.21-26.186-29.71-42.061-41.56-60.61-45.24-138.11-67.59-213.675-61.61C784.967,58.66,730.562,78.42,675.782,94.6c-63.808,18.84-130.216,33.07-196.57,27.75-57.764-4.64-112.8-23.77-169.014-36.38C260.381,74.79,215.988,81.21,169.669,104.27Z" transform="translate(-79.48 -90.19)" fill="#6c63ff" opacity="0.1"/>
      <ellipse id="Ellipse_1" data-name="Ellipse 1" cx="440.36" cy="60.65" rx="440.36" ry="60.65" transform="translate(110.32 635.32)" fill="#6c63ff" opacity="0.1"/>
      <g id="Group_1" data-name="Group 1" transform="translate(47.008 -119)" opacity="0.1">
        <path id="Path_2" data-name="Path 2" d="M513.829,385.68c51.9,122.41-61.713,240.534-70.66,229.323s-20.8,2.452-20.8-121.806c-7.248-12.334-23.366-24.866-26.843-35.358-9.755-29.438-.215-53.48,4.13-72.159,4.053-17.425,21.222-31.266,29-38.228,8.85-7.921,3.447-54.188,25.007-48.439C468.312,300.762,494.474,348.653,513.829,385.68Z" transform="translate(-129.48 -53.19)" fill="#6c63ff"/>
      </g>
      <g id="Group_2" data-name="Group 2" transform="translate(213.821 -165)" opacity="0.1">
        <path id="Path_4" data-name="Path 4" d="M590.335,564.291C631.2,643.784,647.7,706.434,657.88,699.345c8.647-6.019,21.708-248.017,3.987-358.919-3.1-19.41-7.218-34.933-12.505-44.232-20.038-35.252-31.578,60.727-31.578,60.727s-18.767,33.513-27.449,44.938c-9.411,12.386-15.82,53.627-18.118,69.229C568.478,496.463,568.858,522.511,590.335,564.291Z" transform="translate(-101.717 -53.19)" fill="#6c63ff"/>
      </g>
      <g id="plant" transform="translate(206 66.348)">
        <rect id="Rectangle_25" data-name="Rectangle 25" width="5.336" height="120.07" transform="translate(-12.754 384.63)" fill="#535461"/>
        <path id="Path_78" data-name="Path 78" d="M339.069,638.04l-.338,5.408-.471,7.631-.2,3.184-.471,7.64-.2,3.184-.471,7.631-5.336,86.815a14.7,14.7,0,0,1-14.675,13.795h-28a14.693,14.693,0,0,1-14.666-13.8l-5.39-86.85-.471-7.631-.2-3.184-.48-7.64-.2-3.184-.471-7.631L266.7,638a7.613,7.613,0,0,1,7.6-8.085h57.171a7.613,7.613,0,0,1,7.6,8.12Z" transform="translate(-312.965 -133.706)" fill="#65617d"/>
        <path id="Path_79" data-name="Path 79" d="M209.295,591.94l-.471,7.631H138.071l-.471-7.631Z" transform="translate(-183.529 -82.198)" fill="#9d9cb5"/>
        <path id="Path_80" data-name="Path 80" d="M208.711,604.1l-.471,7.64H138.83l-.48-7.64Z" transform="translate(-183.612 -83.543)" fill="#9d9cb5"/>
        <path id="Path_81" data-name="Path 81" d="M208.119,616.27l-.471,7.631H139.581l-.471-7.631Z" transform="translate(-183.696 -84.889)" fill="#9d9cb5"/>
        <path id="Path_82" data-name="Path 82" d="M249.4,552.107c31.058,22.466,43.99,57.616,43.99,57.616s-37.426-1.29-68.484-23.756-43.99-57.607-43.99-57.607S218.346,529.641,249.4,552.107Z" transform="translate(-303.48 -122.473)" fill="#6c63ff"/>
        <path id="Path_83" data-name="Path 83" d="M180.92,528.36s38.84,21.559,51.31,39.409,61.164,41.953,61.164,41.953" transform="translate(-303.48 -122.473)" fill="none" stroke="#535461" stroke-miterlimit="10" stroke-width="2"/>
        <path id="Path_84" data-name="Path 84" d="M275.825,502.553c16.9,12.229,23.943,31.36,23.943,31.36s-20.367-.7-37.275-12.932S238.55,489.63,238.55,489.63,258.917,490.324,275.825,502.553Z" transform="translate(-309.854 -118.19)" fill="#6c63ff"/>
        <path id="Path_85" data-name="Path 85" d="M238.55,489.63s21.141,11.731,27.927,21.452,33.29,22.831,33.29,22.831" transform="translate(-309.854 -118.19)" fill="none" stroke="#535461" stroke-miterlimit="10" stroke-width="2"/>
        <path id="Path_86" data-name="Path 86" d="M332.075,534.832c-19.416,21.346-23.525,49.229-23.525,49.229s27.376-6.715,46.792-28.052,23.534-49.229,23.534-49.229S351.5,513.495,332.075,534.832Z" transform="translate(-317.595 -120.087)" fill="#6c63ff"/>
        <path id="Path_87" data-name="Path 87" d="M378.881,506.78s-25.295,21.87-31.681,36.946-38.6,40.334-38.6,40.334" transform="translate(-317.601 -120.087)" fill="none" stroke="#535461" stroke-miterlimit="10" stroke-width="2"/>
      </g>
    </g>
    <path id="Path_513" data-name="Path 513" d="M668.219,110.05h-.471a53.762,53.762,0,0,0-44.885,24.57,53.762,53.762,0,0,0-44.885-24.57h-.471a53.427,53.427,0,0,0-52.917,53.4c0,17.48,7.656,42.282,22.584,62.691,28.442,38.888,75.69,72.911,75.69,72.911s47.248-34.017,75.683-72.911c14.934-20.409,22.584-45.211,22.584-62.691a53.426,53.426,0,0,0-52.911-53.4Zm-6.744,119.078a10.591,10.591,0,0,1-9.849-6.8H640.412a3.545,3.545,0,0,1-3.338-2.414l-3.444-10.377-10.9,38.084a3.526,3.526,0,0,1-3.382,2.546h-.22a3.482,3.482,0,0,1-3.268-2.916l-11.232-67.556-8.209,39.976a3.5,3.5,0,0,1-3.4,2.659h-15.8a3.514,3.514,0,1,1,0-7.021h13.03l11.628-53.747a3.526,3.526,0,0,1,6.914.289l11.471,68.914,9.768-34.074a3.457,3.457,0,0,1,3.287-2.514h.069a3.507,3.507,0,0,1,3.331,2.414l6.229,18.737h8.536a10.534,10.534,0,1,1,10.006,13.828Z" transform="translate(-5.726 209.065)" fill="#6c63ff"/>
    <g id="doctor">
      <g id="leg_2" data-name="leg 2">
        <path id="Path_9" data-name="Path 9" d="M877.19,767.1l15.95,3.3L905,760V730.52l.27-4v-.12h0l.06-.86,2.15-32.67s16-54.46,18.43-64.91c1.76-7.42,1-29.79.45-42.15-.24-5.07-.45-8.46-.45-8.46l-35.21-8.53-.73,27.08-2.58,94.83a52.307,52.307,0,0,1-3.6,17.64c0,.11-.09.22-.13.32a77.508,77.508,0,0,0-5.11,24.85l-1.19,30.15v.83Z" transform="translate(-136.48 -53.19)" fill="#fbbebe"/>
        <path id="Path_11" data-name="Path 11" d="M877.19,767.1l15.95,3.3L905,760v-2.5a3.31,3.31,0,0,1-1.69,2.69l-.17.1a31.751,31.751,0,0,1-17.91,3.54l-6.22-.53a6.228,6.228,0,0,0-1.65.4v.83Z" transform="translate(-136.48 -53.19)" opacity="0.1"/>
        <path id="Path_12" data-name="Path 12" d="M903.09,761.07l.18-.09a3.36,3.36,0,0,0,1.71-2.92l.26-31.69s3.44-2.45,2.61,8.69-1.37,27.78-1.37,27.78S906.34,781,889,781c0,0-17.33,3.3-17.19-6.6S879,764.08,879,764.08l6.22.54a31.7,31.7,0,0,0,17.87-3.55Z" transform="translate(-136.48 -53.19)" fill="#a27772"/>
      </g>
      <g id="leg" transform="translate(4)">
        <path id="Path_7" data-name="Path 7" d="M709.34,678.71l-1.65,31.08-10.45-2.62-2.21-12.92Z" transform="translate(7 1)" fill="#a27772"/>
        <path id="Path_8" data-name="Path 8" d="M709.34,678.71l-1.65,31.08-10.45-2.62-2.21-12.92Z" transform="translate(7 1)" opacity="0.1"/>
        <path id="Path_13" data-name="Path 13" d="M794.12,760.37c.41,7.14,21.45,3,21.45,3l14.17-27.5s11.83-9.08,5.91-17.06a13.07,13.07,0,0,1-.88-1.35v-.08h0a6.718,6.718,0,0,1-.35-.65h0c-4.24-8.42-2.15-22.24-2.15-22.24s5.49-40.15,7.42-50.75c1.36-7.48.8-32,.35-45.74-.18-5.71-.35-9.54-.35-9.54l-34.93-9.35v10.42c-.08,8.61-.34,20.66-1.23,28.5-1.51,13.33,3.85,57.48,3.85,57.48l1.85,40.18a37.251,37.251,0,0,1-4.54,19.55c-4.38,8-10.09,19.31-10.49,24.31A4.6,4.6,0,0,0,794.12,760.37Z" transform="translate(-122.48 -52.19)" fill="#fbbebe"/>
        <path id="Path_14" data-name="Path 14" d="M794.12,760.37c.41,7.14,21.45,3,21.45,3l14.17-27.5s11.83-9.08,5.91-17.06a13.07,13.07,0,0,1-.88-1.35C834.58,721.64,830,732,830,732s-11.69,23.39-15.4,28.75-19.87-1-20.47-1.23a4.6,4.6,0,0,0-.01.85Z" transform="translate(-122.48 -52.19)" opacity="0.1"/>
        <path id="Path_15" data-name="Path 15" d="M834.37,716.73s6.92-1.61,4.86,16.41h0a11.63,11.63,0,0,1-5.48,10.29c-5,3.11-12.59,9.8-16.45,22.82h0a12.45,12.45,0,0,1-9.6,12.13c-6.24,1.46-14,2.74-18.53,1.48-8.39-2.33-4.68-8.11-4.68-8.11l9.63-11.41s16.78,6.6,20.49,1.23S830,732.86,830,732.86,836.43,718.24,834.37,716.73Z" transform="translate(-122.48 -52.19)" fill="#a27772"/>
      </g>
      <g id="head">
        <path id="Path_21" data-name="Path 21" d="M827.49,129.84c-6,8.18.07,19.81-6.37,27.76-2.12,2.62-5.39,4.5-7.6,7.08-4.11,4.78-3.95,11.28-1.93,16.89s5.66,10.74,8.17,16.22c1.09,2.37,2,5,.83,7.39-.78,1.64-2.41,2.89-3.68,4.3-4.13,4.62-4.25,11-2,16.47s6.47,10.12,10.66,14.71c1.65,1.81,3.74,3.8,6.49,3.75a9,9,0,0,0,4.08-1.33,43,43,0,0,0,20.68-24.33c3.12-9.79,2.21-20.33-1.77-29.9-3.48-8.35-9.29-16.34-9.34-25.17,0-7,3.59-13.67,4.23-20.64.78-8.46-4.24-21.91-14.45-25.6C836.14,122.87,830.53,125.68,827.49,129.84Z" transform="translate(-129.48 -53.19)" fill="#7c5c5c"/>
        <path id="Path_22" data-name="Path 22" d="M827.49,129.84c-6,8.18.07,19.81-6.37,27.76-2.12,2.62-5.39,4.5-7.6,7.08-4.11,4.78-3.95,11.28-1.93,16.89s5.66,10.74,8.17,16.22c1.09,2.37,2,5,.83,7.39-.78,1.64-2.41,2.89-3.68,4.3-4.13,4.62-4.25,11-2,16.47s6.47,10.12,10.66,14.71c1.65,1.81,3.74,3.8,6.49,3.75a9,9,0,0,0,4.08-1.33,43,43,0,0,0,20.68-24.33c3.12-9.79,2.21-20.33-1.77-29.9-3.48-8.35-9.29-16.34-9.34-25.17,0-7,3.59-13.67,4.23-20.64.78-8.46-4.24-21.91-14.45-25.6C836.14,122.87,830.53,125.68,827.49,129.84Z" transform="translate(-129.48 -53.19)" opacity="0.1"/>
        <path id="Path_26" data-name="Path 26" d="M888,178.5a245.348,245.348,0,0,0,2.48,28.66c1.1,6.77,2.68,12.8,4.95,15.49,6.57,7.83-32.2,18.35-32.2,18.35l-22.9-17.75s18.15-16.7,9.69-33S888,178.5,888,178.5Z" transform="translate(-129.48 -53.19)" fill="#fbbebe"/>
        <circle id="Ellipse_2" data-name="Ellipse 2" cx="35.48" cy="35.48" r="35.48" transform="translate(697.43 79.52)" opacity="0.1"/>
        <circle id="Ellipse_3" data-name="Ellipse 3" cx="35.48" cy="35.48" r="35.48" transform="translate(697.43 78.69)" fill="#fbbebe"/>
        <path id="Path_50" data-name="Path 50" d="M820,151.07c-1.27-3.1-.3-6.69,1.23-9.67s3.62-5.7,4.77-8.86c1.7-4.7,1.18-10,3-14.65,3.26-8.14,12.55-11.78,20.87-14.55,2.46-.82,5.08-1.64,7.6-1,3.33.8,5.55,3.85,8.3,5.9,11.31,8.43,29.68-.84,40.6,8.07,4.18,3.42,6.22,8.88,6.85,14.25s0,10.78-.07,16.18c-.18,9.46,1.59,19.8,8.67,26.07,2.13,1.89,4.65,3.31,6.72,5.26s3.73,4.69,3.36,7.51a26.082,26.082,0,0,1-1.13,3.82c-1.41,4.93.69,10.16,3.25,14.59,7.64,13.22,21.11,24.11,36.38,24.42-1,7.7-9,12.17-16.13,15.33-9,4-18.56,8-28.44,7.47S905.7,244.34,904,234.6c-.6-3.33-.52-7.43-3.42-9.18-1.75-1.06-4-.8-5.9-1.59-2.73-1.15-4.08-4.19-5-7a63.1,63.1,0,0,1-2.93-18c-.12-7.23.84-15.13-3.26-21.08-3.8-5.52-10.55-8.31-14.92-13.38-4-4.69-8.44-10.36-15.06-11.26C844.39,151.88,825.44,164.33,820,151.07Z" transform="translate(-129.48 -53.19)" opacity="0.1"/>
        <path id="Path_51" data-name="Path 51" d="M820,149.42c-1.27-3.1-.3-6.69,1.23-9.67s3.62-5.7,4.77-8.86c1.7-4.7,1.18-10,3-14.65,3.26-8.14,12.55-11.78,20.87-14.55,2.46-.82,5.08-1.64,7.6-1,3.33.8,5.55,3.85,8.3,5.9,11.31,8.43,29.68-.84,40.6,8.07,4.18,3.42,6.22,8.88,6.85,14.25s0,10.78-.07,16.18c-.18,9.46,1.59,19.8,8.67,26.07,2.13,1.89,4.65,3.31,6.72,5.26s3.73,4.69,3.36,7.51a26.082,26.082,0,0,1-1.13,3.82c-1.41,4.93.69,10.16,3.25,14.59,7.64,13.22,21.11,24.11,36.38,24.42-1,7.7-9,12.17-16.13,15.33-9,4-18.56,8-28.44,7.47S905.7,242.69,904,233c-.6-3.33-.52-7.43-3.42-9.18-1.75-1.06-4-.8-5.9-1.59-2.73-1.15-4.08-4.19-5-7a63.1,63.1,0,0,1-2.93-18c-.12-7.23.84-15.13-3.26-21.08-3.8-5.52-10.55-8.31-14.92-13.38-4-4.69-8.44-10.36-15.06-11.26C844.39,150.23,825.44,162.68,820,149.42Z" transform="translate(-129.48 -53.19)" fill="#7c5c5c"/>
        <g id="Group_5" data-name="Group 5" opacity="0.1">
          <path id="Path_54" data-name="Path 54" d="M828.23,126.49c1.6-4.42,1.26-9.37,2.76-13.81a15.77,15.77,0,0,0-1.72,3.16c-1.86,4.64-1.33,10-3,14.65a.817.817,0,0,1-.11.28,25.761,25.761,0,0,0,2.07-4.28Z" transform="translate(-129.48 -53.19)"/>
          <path id="Path_55" data-name="Path 55" d="M956.55,237.66c-9,4-18.56,8-28.45,7.47s-20.19-6.84-22-16.58c-.59-3.33-.52-7.43-3.41-9.18-1.75-1.06-4-.8-5.91-1.59-2.73-1.15-4.08-4.19-5-7a62.762,62.762,0,0,1-2.94-18c-.12-7.23.84-15.13-3.26-21.08-3.8-5.52-10.54-8.31-14.92-13.38-4-4.69-8.43-10.36-15.06-11.26-9.09-1.24-28,11.21-33.45-2a10.47,10.47,0,0,1,.35-7.67c-.39.66-.77,1.32-1.12,2-1.53,3-2.5,6.57-1.23,9.67,5.41,13.26,24.36.81,33.45,2,6.63.9,11,6.57,15.06,11.26,4.38,5.07,11.12,7.86,14.92,13.38,4.1,5.95,3.14,13.85,3.26,21.08a62.76,62.76,0,0,0,2.94,18c.89,2.82,2.24,5.86,5,7,1.89.79,4.16.53,5.91,1.59,2.89,1.75,2.82,5.85,3.41,9.18,1.76,9.74,12.07,16.08,22,16.58s19.41-3.44,28.45-7.47c6.51-2.9,13.76-6.91,15.71-13.5C967.14,232.46,961.62,235.4,956.55,237.66Z" transform="translate(-129.48 -53.19)"/>
        </g>
      </g>
      <g id="coat" transform="translate(535.849 -18.003)">
        <path id="Path_490" data-name="Path 490" d="M298.315,448.131s3.931-.593,3.931-6.781,2.813-17.745,2.813-17.745h0c0-.054,2.434-20.127,5.8-23.318s7.682-21.927,7.682-21.927.738-10.166,2.245-12.354,3.542-7.546,6.544-15.19,15.523-12.936,15.523-12.936,22.636-14.187,29.051-18.812h0a9.95,9.95,0,0,0,1.626-1.326c1.117-1.585,6.036-.637,6.036-.637.509-3.471,9.857,21.375,10.125,24.569.823-1.047,28.358-27.139,29.629-27.1.429-.023,2.764-2.227,3.183-2.126l.09-.075h0l.747,1.308c2.195.582,4.151,1.84,6.735,8.858,0,0,7.861,9.573,13.847,9.174s21.139,9.961,21.139,9.961,14.785,10.371,17.957,20.936a154.865,154.865,0,0,0,6.365,17.551l18.276,40.7h0l3.372,32.287s-1.866,14.359-1.5,16.548-7.672,21.927-7.672,21.927-26.566,50.441-37.42,53.029l-.778-.593a6.077,6.077,0,0,1-1.466.593l-2.235-1.7a28.418,28.418,0,0,0,.17,5.692c1.5,4.981-.559,37.484-3.172,43.855S455.27,682.4,455.27,682.4l.369,7.374a3.365,3.365,0,0,1-.09.647l.09,1.746-.269.151c-.28,2.339-41.108,19.112-41.95,13.907-.15-.787-.329-1.552-.519-2.307a120.719,120.719,0,0,1-18.8,1.542c-2.294,0-4.629,0-6.983-.151,0,.719-41.327-3.7-41.072-5.584.09-.755.179-1.542.279-2.318-4.838-1.326-7.981-2.555-7.981-2.555l.559-70.773c-4.11-8.624-4.868-27.544-4.848-40.966,0-8.624.359-15.006.359-15.006L328.8,558.2s-1.3-11.859.758-14.457a2.634,2.634,0,0,0-.249-3.4,10.44,10.44,0,0,0-1.227-.906s.06-.1.13-.237a9.954,9.954,0,0,0-1.247-.959s2-3.342.209-4.754c-1.676,1.229-3.172,2.156-4.31,2.911.08.787.16,1.24.16,1.24l-.479-1.078c-1.1.668-1.766,1.078-1.766,1.078s-8.8-18.941-8.609-21.733-5.986-14.554-5.986-14.554-.748-6.177-4.12-8.764-2.614-21.334-2.614-21.334-.938-9.767-3.182-13.756S298.315,448.131,298.315,448.131Zm168.357-8.312-.17,4.517,1.716-2.986Z" transform="translate(-195.72 -144.624)" fill="url(#linear-gradient)"/>
        <path id="Path_491" data-name="Path 491" d="M463.521,515.795l2.155,9.918s17.259-9.519,20.371-21.615-5.208-16.688-5.208-16.688l-16.082,7.363Z" transform="translate(-338.939 -130.96)" opacity="0.1"/>
        <path id="Path_493" data-name="Path 493" d="M327.21,368.083l15.054,273.283,19.633,1.391L412.735,484.3,404.4,296.167,402.64,256.42l-22.606,20.062-11.163,9.886-8.729-24.008L343.91,277.647Z" transform="translate(-176.071 -85.781)" fill="#6c63ff"/>
        <path id="Path_495" data-name="Path 495" d="M419.15,679.315a20.506,20.506,0,0,0,4.933,1.358c.1-5.39.156-9.1.156-9.1l-4.96-2.415Z" transform="translate(-238.462 -116.776)" opacity="0.1"/>
        <path id="Path_497" data-name="Path 497" d="M300.87,704.576c40.9,7.546,78.372-14.09,78.372-14.09l-.369-7.331s-.928-83.106,1.656-89.477,4.579-38.68,3.113-43.639,5.317-79.322,5.317-79.322l1.107-30.185,40.184-17.648-17.957-40.448a155.706,155.706,0,0,1-6.245-17.464c-3.113-10.5-17.618-20.817-17.618-20.817s-14.864-10.306-20.73-9.918-13.578-9.12-13.578-9.12c-5.7-15.664-11.971-8.57-11.971-8.57,0,.744.6,1.078.279,2.318-4.389,16.677-31.165,71.528-31.654,72.487h0l-3.3,85.877-3.3,108.677Z" transform="translate(-120.182 -144.419)" fill="#fff"/>
        <path id="Path_498" data-name="Path 498" d="M381.74,393.618c4.4-1.984,27.7-30.735,27.7-30.735v-6.544c.848-2.156,5.886-.841,9.976.668l-1.756-39.747-2,1.79C411.3,335.716,382.249,392.658,381.74,393.618Z" transform="translate(-190.028 -144.239)" opacity="0.1"/>
        <path id="Path_499" data-name="Path 499" d="M382.84,391.408c4.409-1.984,27.714-30.735,27.714-30.735v-6.544c.848-2.156,5.886-.841,9.976.668l-1.766-39.747-2,1.79C412.389,333.506,383.329,390.459,382.84,391.408Z" transform="translate(-192.236 -144.411)" fill="#fff"/>
        <path id="Path_500" data-name="Path 500" d="M395.136,519.119c-.549,0-28.442-3.169-28.442-3.169s-16.89,35.888-15.782,44.62,3.113,16.462,9.906,15.093,36.563,1.078,36.563,1.078Z" transform="translate(-137.183 -128.733)" opacity="0.1"/>
        <path id="Path_501" data-name="Path 501" d="M394.025,516.909c-.549,0-28.442-3.169-28.442-3.169s-16.88,35.9-15.782,44.62,3.123,16.462,9.906,15.093,36.563,1.078,36.563,1.078Z" transform="translate(-134.965 -128.905)" fill="#fff"/>
        <path id="Path_502" data-name="Path 502" d="M383.944,501.05s-25.6,14.866-26.147,19.4,13.029-1.984,15.962-2.771a34.017,34.017,0,0,1,5.876-.992l19.563.571Z" transform="translate(-145.903 -129.895)" fill="#fbbebe"/>
        <ellipse id="Ellipse_50" data-name="Ellipse 50" cx="2.694" cy="2.911" rx="2.694" ry="2.911" transform="translate(196.161 245.412)" opacity="0.1"/>
        <ellipse id="Ellipse_51" data-name="Ellipse 51" cx="2.694" cy="2.911" rx="2.694" ry="2.911" transform="translate(196.161 244.226)" fill="#3f3d56"/>
        <ellipse id="Ellipse_52" data-name="Ellipse 52" cx="2.694" cy="2.911" rx="2.694" ry="2.911" transform="translate(191.203 371.413)" opacity="0.1"/>
        <ellipse id="Ellipse_53" data-name="Ellipse 53" cx="2.694" cy="2.911" rx="2.694" ry="2.911" transform="translate(191.203 370.217)" fill="#3f3d56"/>
        <ellipse id="Ellipse_54" data-name="Ellipse 54" cx="2.694" cy="2.911" rx="2.694" ry="2.911" transform="translate(193.478 308.413)" opacity="0.1"/>
        <ellipse id="Ellipse_55" data-name="Ellipse 55" cx="2.694" cy="2.911" rx="2.694" ry="2.911" transform="translate(193.478 307.227)" fill="#3f3d56"/>
        <path id="Path_503" data-name="Path 503" d="M448.468,530.332s-1.826,2.975,0,4.366-.17,4.754-.17,4.754,4.549,2.932,2.554,5.541-.738,14.392-.738,14.392l5.507,9.853s-.329,6.35-.359,14.931c0,13.389.728,32.212,4.759,40.793l-.549,70.407s19.314,7.611,35.435,5.293l2.384-112.979s-3.492-64.068-4.779-76.358a136.86,136.86,0,0,1-.908-19.243s.549-19.232,2.384-28.158c0,0,2-38.669,2.2-49.374.09-5.121-.17-20.062-.439-34.271-.309-15.535-.658-30.185-.658-30.185l4.809-31.554s-4.809,0-5.916,1.606a9.591,9.591,0,0,1-1.6,1.326h0c-6.285,4.592-28.5,18.715-28.5,18.715s-12.281,5.282-15.224,12.85-4.988,12.936-6.425,15.093-2.195,12.29-2.195,12.29-4.23,18.65-7.532,21.809-5.686,23.21-5.686,23.21l29.18,24.795s2.564,41.246,3.123,42.841S448.468,530.332,448.468,530.332Z" transform="translate(-315.496 -144.139)" fill="#fff"/>
        <path id="Path_504" data-name="Path 504" d="M431.861,359.076l-2.634,8.3,13.867,15.093c-.309-15.524-.658-30.185-.658-30.185l4.809-31.554s-4.809,0-5.916,1.606a9.215,9.215,0,0,1-1.6,1.315h0L427.94,360.413Z" transform="translate(-263.942 -143.968)" opacity="0.1"/>
        <path id="Path_505" data-name="Path 505" d="M430.761,356.866l-2.644,8.3,13.867,15.093c-.309-15.535-.658-30.185-.658-30.185l4.818-31.554s-4.818,0-5.916,1.606a10.112,10.112,0,0,1-1.6,1.326h0l-11.8,36.75Z" transform="translate(-261.735 -144.14)" fill="#fff"/>
        <path id="Path_506" data-name="Path 506" d="M367.7,435.958l10.425-20.828,3.3,32.136s-1.836,14.273-1.467,16.462-7.522,21.809-7.522,21.809-26.068,50.172-36.712,52.759l-35.964-27.77,9.537-13.087s3.3-1.391,4.13,0c0,0,17.708-32.923,19.543-35.306S334.447,455,334.447,455s2.753-3.169,1.836-6.145,5.317-13.292,5.317-13.292l-5.686-5.746Z" transform="translate(-70.249 -136.601)" opacity="0.1"/>
        <path id="Path_507" data-name="Path 507" d="M373.169,412.93l2.753,2.372,3.3,32.136s-1.836,14.273-1.466,16.462-7.532,21.809-7.532,21.809-26.058,50.172-36.7,52.759L297.55,510.7,307.1,497.61s3.3-1.391,4.13,0c0,0,17.708-32.923,19.543-35.306s1.467-7.137,1.467-7.137,2.753-3.169,1.836-6.145,5.327-13.292,5.327-13.292l-5.686-5.746Z" transform="translate(-65.844 -136.772)" fill="#fff"/>
        <path id="Path_508" data-name="Path 508" d="M456.591,531.1c-2,2.62-.738,14.381-.738,14.381l5.507,9.853s-.329,6.36-.349,14.931l9.258,3.126a5.169,5.169,0,0,0,4.963-.939,6.13,6.13,0,0,0,2.17-4.914l-1.6-55.638-21.6,8.926c1.836,1.38-.18,4.765-.18,4.765S458.606,528.48,456.591,531.1Z" transform="translate(-320.127 -129.049)" opacity="0.1"/>
        <path id="Path_509" data-name="Path 509" d="M457.691,529.989c-2,2.62-.738,14.392-.738,14.392l5.507,9.853s-.329,6.35-.359,14.931l9.427,3.18a5.066,5.066,0,0,0,4.858-.924,6.007,6.007,0,0,0,2.125-4.811l-1.606-55.81L455.3,519.726c1.846,1.38-.17,4.754-.17,4.754S459.687,527.38,457.691,529.989Z" transform="translate(-322.335 -129.134)" fill="#fff"/>
        <path id="Path_510" data-name="Path 510" d="M465.85,504.628s1.466,10.123,5.138,10.716,5.317,16.375,8.978,15.815,1.237-14.672,1.107-17.41,3.99-14.079.908-16.656-12.839,0-12.839,0Z" transform="translate(-337.646 -130.294)" fill="#fbbebe"/>
        <path id="Path_511" data-name="Path 511" d="M478.245,432.783l-6.923-15.093s-2.753,11.5-2.753,17.647-3.851,6.749-3.851,6.749-4.22,5.39-2,9.314,3.123,13.691,3.123,13.691-.728,18.639,2.574,21.216,3.99,8.732,3.99,8.732,6.065,11.7,5.876,14.478,8.44,21.615,8.44,21.615-4.22-23.4,20.371-33.516c0,0,.19-7.945-1.646-10.123s-4.7-3.169-2.9-14.176.519-24.159.519-26.8-5.507-19.114-5.507-19.114Z" transform="translate(-357.852 -136.401)" opacity="0.1"/>
        <path id="Path_512" data-name="Path 512" d="M479.468,415.69l-6.046,2.156s-2.763,11.5-2.763,17.647-3.851,6.749-3.851,6.749-4.22,5.39-2,9.314,3.112,13.691,3.112,13.691-.728,18.639,2.574,21.216,4.04,8.732,4.04,8.732,6.056,11.7,5.866,14.478,8.45,21.615,8.45,21.615-4.23-23.4,20.371-33.516c0,0,.18-7.945-1.656-10.123s-4.7-3.169-2.9-14.176.519-24.159.519-26.8-5.507-19.114-5.507-19.114Z" transform="translate(-362.068 -136.557)" fill="#fff"/>
      </g>
    </g>
    <g id="assistant" transform="translate(-121.057 -385.129)">
      <path id="Path_307" data-name="Path 307" d="M595.849,461.845a.614.614,0,0,0-.174-.3c-1.728-1.7-23.762-32.866-23.762-32.866s-1.16-3.479-3.038-8a7.955,7.955,0,0,0,1.334-2.609,8.957,8.957,0,0,0,.22-1.218c0-.128.093-.232.128-.359a8.8,8.8,0,0,0-.116-4.778,8.272,8.272,0,0,1-.475,1.16A19.39,19.39,0,0,0,568.224,409c-2.922-5.033-7.1-9.278-10.171-14.183a38.374,38.374,0,0,1-5.23-25.467c0,.452,0,.916,0,1.368a39.7,39.7,0,0,1,.7-5.219,36.208,36.208,0,0,1,1.937-5.729c2.76-6.32,7.225-11.829,9.939-18.173a34.435,34.435,0,0,0,2.064-6.645,37.224,37.224,0,0,0,1.032-11.655,18.562,18.562,0,0,1-.29,2.772,37.748,37.748,0,0,0-10.658-25.131c-9.475-9.521-23.078-13.221-36.09-15.169a33.063,33.063,0,0,1-15.192-5.8c-5-3.236-11.458-4.013-17.3-3.305a28.54,28.54,0,0,0-17.616,8.709c-6.181,6.8-8.86,16.421-16.073,22.15-4.372,3.479-9.915,5.1-15.007,7.469s-9.9,5.8-11.539,10.878v.186l-.07.186c-1.693,6.007,1.577,12.119,3.282,18.115,1.774,6.2,1.89,12.757,1.983,19.17.128,7.84.244,15.691.116,23.542-.058,3.085-.162,6.2-.394,9.278a48.61,48.61,0,0,0-7.967,3.2c-2.6,1.693-12.316,12.188-12.316,12.188L394.35,484.355l.255.29-.255.986.963-.22c2.691,2.9,10.727,11.156,19.4,16.305l.812,14.241s.974,14.288,14.114,20.19c.3,4.952,1.241,25.061-3.108,33.028a37.111,37.111,0,0,0-4.105,18.88s1.519,12.084-.209,18.439a30.154,30.154,0,0,0-.22,12.942h0v3.815c0,12.861.151,54.077,0,58.739-.22,5.509,0,86.978,0,86.978s-1.079,40.717-4.534,51.746-2.586,47.548-2.586,47.548-2.169,43.5,5.5,52.082c0,.383-.07.777-.081,1.16v.545c-.093,3.305.545,6.819,3.386,7.9,5.8,2.227,13.464,8.906,14.914,10.82s9.881,6.68,20.875,5.4a157.161,157.161,0,0,1,20.747-.951h0s4.337-.789,2.934-6.181h0c-.9-3.363-4.291-8.535-6.7-11.933.441.116.87.209,1.276.29l.417.081h.325a4.42,4.42,0,0,0,.534,0h.232a3.971,3.971,0,0,0,.649,0h0c2.911-.278,13.766,4.778,15.7,8.118s8.767,5.88,13.916,6.518c3.062.371,10.785-.255,17.268-1.09a63.571,63.571,0,0,0,9.672-1.763c1.531-.58,1.855-2.435,1.415-4.523h0a11.771,11.771,0,0,0-4.013-6.773c-1.879-1.334-4.36-4.848-6.193-7.724l-.487-.777c3.236-3.085,9.081-13.174,10.855-15.262,2.157-2.54-3.479-95.42-3.479-95.42V762.22l8.64-44.069,6.042-23.322,5.184-35.209s9.069-41.123,6.274-45.159h0c0-.081-2.319-42.422-4.755-52.593-1.055-4.534-.789-14.74-.162-24.667a4.871,4.871,0,0,0,1.16-5.08,10.551,10.551,0,0,0-.673-1.728v-.533a79.859,79.859,0,0,1,15.621-5.311c8.64-1.693,6.483-6.146,6.483-6.146s1.948-3.815,3.236-6.146.22-22.9,0-24.6c-.081-.684-.615-4.465-1.229-8.756,2.772-1.971,6.378-4.418,10.31-6.738C598.145,467.736,596.463,463.062,595.849,461.845ZM483.125,755.864s-6.483,16.537-3.885,20.77-.429,19.947-.429,19.947L476.643,819.9s-6.042,43.257-3.885,53.428c1.693,7.979,2.319,31.811,2.517,41.749h0a2.928,2.928,0,0,0-.429.209l-.29.151c1-3.908.58-11.817-4.372-27.728l-.417-65.72s-.765-75.914,5.23-84.4,8.118-22.9,8.118-22.9-1.3,20.794-2.146,26.3S483.125,755.864,483.125,755.864ZM471.053,919.22c-.058.139-.128.278-.174.406l-.325-.417a3.41,3.41,0,0,0,.5.012Z" transform="translate(-11.221 184.44)" fill="url(#linear-gradient-2)"/>
      <path id="Path_308" data-name="Path 308" d="M526.491,856.682c-3.352,1.287-21.524,3.479-26.6,2.864s-11.806-3.189-13.719-6.552-12.641-8.443-15.517-8.118a10.436,10.436,0,0,1-3.479-.487,42.822,42.822,0,0,1-5.8-2.227,10.763,10.763,0,0,1,.128-4.407,7.057,7.057,0,0,1,.255-.858,7.666,7.666,0,0,1,3.9-4.337l.417-.2a11.805,11.805,0,0,1,2.505-.765c9.115-1.751,46.724,1.763,46.724,1.763s1.055,1.89,2.5,4.233c1.809,2.9,4.268,6.436,6.123,7.77a11.887,11.887,0,0,1,3.954,6.819C528.323,854.235,528,856.113,526.491,856.682Z" transform="translate(-0.545 273.026)" fill="#fff"/>
      <path id="Path_309" data-name="Path 309" d="M526.489,856.234c-3.352,1.287-21.512,3.479-26.592,2.865s-11.806-3.2-13.731-6.552-12.629-8.443-15.505-8.118-9.278-2.714-9.278-2.714-1-4.639,1.9-7.8l5.8,4.117s15.517,4.813,18.393,9.278,8.118,6.958,15.691,7.411c5.659.371,18.66-1.832,24.748-2.934C528.321,853.787,528.008,855.666,526.489,856.234Z" transform="translate(-0.543 273.473)" opacity="0.1"/>
      <path id="Path_310" data-name="Path 310" d="M477.785,862.538a154.392,154.392,0,0,0-20.48.963c-10.89,1.276-19.2-3.479-20.654-5.439s-8.953-8.582-14.717-10.9c-2.818-1.09-3.479-4.639-3.352-7.956v-.545a32.476,32.476,0,0,1,.928-6.228l45.124-.963,3.908,5.3.6.812,2.377,3.236s1.078,1.415,2.493,3.479c2.389,3.479,5.729,8.617,6.622,12.015h0C482.064,861.75,477.785,862.538,477.785,862.538Z" transform="translate(-7.354 273.083)" fill="#fff"/>
      <path id="Path_311" data-name="Path 311" d="M477.785,861.47a154.392,154.392,0,0,0-20.48.963c-10.878,1.276-19.2-3.479-20.643-5.439s-8.965-8.64-14.728-10.878c-2.818-1.09-3.479-4.639-3.352-7.956,3.224.754,10,2.679,12.652,6.031,3.479,4.476,9.707,12,18.555,12.478,7.144.383,24.539-.893,30.918-1.4C482.076,860.681,477.785,861.47,477.785,861.47Z" transform="translate(-7.354 274.152)" opacity="0.1"/>
      <path id="Path_312" data-name="Path 312" d="M472.421,832.459c-.522,3.873-2.134,4.917-3.294,5.149a2.238,2.238,0,0,1-.858,0,2.851,2.851,0,0,1-.452-.07s-40.52,8.953-48.708,1.7a5.674,5.674,0,0,1-.58-.6,32.475,32.475,0,0,1,.928-6.227l45.124-.963,3.908,5.3a7.666,7.666,0,0,1,3.9-4.337Z" transform="translate(-7.36 273.08)" opacity="0.1"/>
      <path id="Path_313" data-name="Path 313" d="M517.129,837.561c-.9,1-1.658,1.566-2.134,1.368-2.134-.858-19.622-3.839-25.177-1.276s-24.354.417-24.354.417,0-2.227-.1-5.8a11.8,11.8,0,0,1,2.5-.765c9.115-1.751,46.725,1.763,46.725,1.763S515.691,835.218,517.129,837.561Z" transform="translate(0.119 273.011)" opacity="0.1"/>
      <path id="Path_314" data-name="Path 314" d="M551.839,618.691l-5.126,35.417-5.961,23.472-8.535,44.37v46.968s5.543,93.449,3.41,96S525.386,882,523.252,881.155s-19.622-3.839-25.177-1.287-24.354.429-24.354.429-.429-36.264-2.563-46.5S475,780.029,475,780.029l2.134-23.461s2.992-15.8.429-20.063,3.839-20.875,3.839-20.875-2.98-9.405-2.122-14.949,2.122-26.453,2.122-26.453-2.122,14.52-8.048,23.043-5.172,84.914-5.172,84.914l.417,66.1c10.681,35,0,31.579,0,31.579s-40.52,8.964-48.708,1.7-5.845-52.952-5.845-52.952-.847-36.693,2.563-47.78,4.488-52.059,4.488-52.059-.22-81.933,0-87.465c.162-4.639,0-46.168,0-59.145v-3.839l4.894-12.154,57.985-7.26h27.74s41.749,9.811,46.063,14.044a.964.964,0,0,1,.232.255C560.8,577.313,551.839,618.691,551.839,618.691Z" transform="translate(-8.126 229.556)" fill="#6c63ff"/>
      <path id="Path_315" data-name="Path 315" d="M472.11,770.88s12.757,30.721,18.776,32.854S472.11,770.88,472.11,770.88Z" transform="translate(1.197 263.407)" opacity="0.1"/>
      <path id="Path_316" data-name="Path 316" d="M476.18,809.88s43.071,2.134,42.642,6.831S476.18,809.88,476.18,809.88Z" transform="translate(1.847 269.635)" opacity="0.1"/>
      <path id="Path_317" data-name="Path 317" d="M426.49,799.29c1.7,1.612,32.854,4.639,30.291,7.584s-27.729,8.675-27.729,8.675Z" transform="translate(-6.089 267.944)" opacity="0.1"/>
      <path id="Path_318" data-name="Path 318" d="M422.08,753.59c0,1.276,6.4,40.961,8.118,42.665s15.784,3.41,15.784,3.41Z" transform="translate(-6.793 260.645)" opacity="0.1"/>
      <path id="Path_319" data-name="Path 319" d="M468.282,287.094c-6.112,6.831-8.756,16.514-15.876,22.29-4.326,3.479-9.8,5.137-14.833,7.5s-10.02,5.972-11.516,11.33c-1.67,6.03,1.554,12.188,3.247,18.219,1.751,6.239,1.856,12.757,1.96,19.286.116,7.9.244,15.8.1,23.693-.209,12.3-1.229,25.177-7.758,35.6,23.577,7.5,48.65,8.524,73.374,9.486a74.034,74.034,0,0,0,14.253-.359,122.315,122.315,0,0,0,12.142-3.073,93.1,93.1,0,0,1,24.191-3.1c3.56,0,7.19.22,10.623-.707s6.738-3.305,7.666-6.738c.823-3.085-.383-6.367-1.96-9.138-2.876-5.056-6.958-9.278-10.043-14.264a39.2,39.2,0,0,1-2.517-35.243c2.737-6.367,7.144-11.91,9.834-18.288a38.571,38.571,0,0,0-7.77-40.914c-9.359-9.579-22.788-13.29-35.638-15.262a32.368,32.368,0,0,1-15.007-5.8c-4.929-3.247-11.319-4.036-17.094-3.317a27.9,27.9,0,0,0-17.384,8.79Z" transform="translate(-6.548 184.701)" fill="#3f3d56"/>
      <g id="Group_7" data-name="Group 7" transform="translate(417.525 509.904)" opacity="0.1">
        <path id="Path_320" data-name="Path 320" d="M534.48,348.7a38.584,38.584,0,0,0-2.957,17.709,37.92,37.92,0,0,1,2.957-12.571c2.725-6.367,7.132-11.91,9.823-18.288A37,37,0,0,0,547,318.71a36.064,36.064,0,0,1-2.7,11.713C541.612,336.8,537.205,342.333,534.48,348.7Z" transform="translate(-406.855 -318.71)"/>
        <path id="Path_321" data-name="Path 321" d="M431.289,357.3c.07,4.546.139,9.1.151,13.65q0-9.394-.151-18.764c-.093-6.483-.209-13.047-1.96-19.3-1.16-3.966-2.876-7.99-3.479-11.991-1.032,5.683,1.9,11.446,3.479,17.117C431.08,344.21,431.2,350.82,431.289,357.3Z" transform="translate(-423.751 -318.36)"/>
        <path id="Path_322" data-name="Path 322" d="M558.524,401.891c-3.479.939-7.051.731-10.611.707a93.032,93.032,0,0,0-24.18,3.038,123.161,123.161,0,0,1-12.142,3.062,73.263,73.263,0,0,1-14.264.371c-23.89-.939-48.116-1.948-71-8.779a39.355,39.355,0,0,1-2.319,4.407c23.577,7.492,48.65,8.524,73.363,9.486a73.259,73.259,0,0,0,14.264-.371,119.921,119.921,0,0,0,12.1-3.05,93.034,93.034,0,0,1,24.134-3.073c3.56,0,7.178.22,10.611-.719s6.738-3.294,7.666-6.726a9.208,9.208,0,0,0-.116-4.824C565,398.667,561.806,400.929,558.524,401.891Z" transform="translate(-424.01 -306.459)"/>
      </g>
      <path id="Path_323" data-name="Path 323" d="M521.311,398.547c-.858,1.925-4.476,18.555-5.335,20.26S510.433,447.8,510,449.33s-30.883-6.4-30.883-6.4l-18.335-15.366L441.94,408.81s-.557-16.92,13.325-22.347a21.184,21.184,0,0,1,2.9-.9C475,381.511,473.31,330.31,473.31,330.31l34.559,14.925s-6.4,29.874-6.181,35.638c.058,1.937,1.577,3.143,3.56,3.873a28.147,28.147,0,0,0,9.44,1.021S522.169,396.633,521.311,398.547Z" transform="translate(-3.622 193.046)" fill="#fbbebe"/>
      <path id="Path_324" data-name="Path 324" d="M570.018,437.881l4.906,1.287s3.63,5.52-4.906,10.658a147.854,147.854,0,0,0-15.575,10.89l-25.224,7.677-4.859-15.25,23.472-17.813Z" transform="translate(9.542 209.818)" fill="#6c63ff"/>
      <path id="Path_325" data-name="Path 325" d="M570.018,437.881l4.906,1.287s3.63,5.52-4.906,10.658a147.854,147.854,0,0,0-15.575,10.89l-25.224,7.677-4.859-15.25,23.472-17.813Z" transform="translate(9.542 209.818)" opacity="0.1"/>
      <path id="Path_326" data-name="Path 326" d="M406.351,450.612l-9.811,9.6s17.7,20.48,31.312,21.756S450.246,466.4,450.246,466.4L438.463,447.84Z" transform="translate(-10.872 211.816)" fill="#6c63ff"/>
      <path id="Path_327" data-name="Path 327" d="M406.351,450.612l-9.811,9.6s17.7,20.48,31.312,21.756S450.246,466.4,450.246,466.4L438.463,447.84Z" transform="translate(-10.872 211.816)" opacity="0.1"/>
      <circle id="Ellipse_38" data-name="Ellipse 38" cx="34.13" cy="34.13" r="34.13" transform="translate(454.543 488.553)" opacity="0.1"/>
      <circle id="Ellipse_39" data-name="Ellipse 39" cx="34.13" cy="34.13" r="34.13" transform="translate(454.543 485.99)" fill="#fbbebe"/>
      <path id="Path_328" data-name="Path 328" d="M557.019,577.088a110.18,110.18,0,0,0-22.835,5.114c-12.757,4.245-112.723.07-114.115,0v-3.839l4.894-12.154,57.985-7.26h27.74s41.749,9.811,46.063,14.044C556.927,575.545,557.019,577.088,557.019,577.088Z" transform="translate(-7.114 229.561)" opacity="0.1"/>
      <path id="Path_329" data-name="Path 329" d="M521.311,391.05c-.858,1.925-4.476,18.555-5.335,20.26S510.433,440.3,510,441.834s-30.883-6.4-30.883-6.4l-18.335-15.366L441.94,401.314s-.557-16.92,13.325-22.347l34.466,39.627,15.517-41.343a28.147,28.147,0,0,0,9.44,1.021S522.169,389.137,521.311,391.05Z" transform="translate(-3.622 200.543)" opacity="0.1"/>
      <path id="Path_330" data-name="Path 330" d="M494.4,420.113l-35.278-40.59a14.786,14.786,0,0,0-14-1.032c-7.9,3.421-17.709,6.193-20.272,7.9s-12.165,12.258-12.165,12.258l28.6,74.812-12.594,49.276s1.925,25.177-2.98,34.35a37.7,37.7,0,0,0-4.059,18.984s1.5,12.165-.209,18.555a30.906,30.906,0,0,0-.22,13.012s101.346,4.268,114.138,0a109.22,109.22,0,0,1,22.835-5.114s-2.319-42.677-4.639-52.917,1.925-49.276,1.925-49.276l-2.772-41.819,16.63-42.909s-9.011-27.508-18.4-30.28c0,0-17.059-4.059-20.689-5.972s-14.3-3.63-14.3-3.63l-5.6,1.879Z" transform="translate(-8.292 200.298)" fill="#6c63ff"/>
      <rect id="Rectangle_81" data-name="Rectangle 81" width="81.226" height="124.297" rx="2.94" transform="translate(457.697 652.12) rotate(3.89)" opacity="0.1"/>
      <rect id="Rectangle_82" data-name="Rectangle 82" width="81.226" height="124.297" rx="2.94" transform="translate(460.253 649.574) rotate(3.89)" fill="#3f3d56"/>
      <rect id="Rectangle_83" data-name="Rectangle 83" width="70.765" height="106.948" transform="translate(464.838 659.24) rotate(3.89)" fill="#fff"/>
      <rect id="Rectangle_84" data-name="Rectangle 84" width="57.813" height="16.113" transform="translate(471.435 687.237) rotate(4.004)" opacity="0.1"/>
      <rect id="Rectangle_85" data-name="Rectangle 85" width="9.173" height="8.396" transform="translate(517.871 754.529) rotate(3.89)" opacity="0.1"/>
      <rect id="Rectangle_86" data-name="Rectangle 86" width="46.956" height="8.396" transform="translate(471.147 731.749) rotate(3.89)" opacity="0.1"/>
      <rect id="Rectangle_87" data-name="Rectangle 87" width="48.893" height="12.908" transform="translate(477.921 656.734) rotate(3.89)" fill="#3f3d56"/>
      <rect id="Rectangle_88" data-name="Rectangle 88" width="48.893" height="12.908" transform="translate(477.921 656.734) rotate(3.89)" opacity="0.1"/>
      <path id="Path_331" data-name="Path 331" d="M489.181,572.56s-.429,63.157-17.071,99.421c0,0,20.063-47.792,20.063-49.7s11.087-21.976,8.118-27.949S489.181,572.56,489.181,572.56Z" transform="translate(1.197 231.734)" opacity="0.1"/>
      <path id="Path_332" data-name="Path 332" d="M493.262,325.1a23.74,23.74,0,0,1,3.862-15.9,19.588,19.588,0,0,0,15.146,20.643,2.563,2.563,0,0,1-.731-2.807c2.377,2.69,4.2,5.88,6.889,8.245s6.726,3.781,9.892,2.1c4.3-2.319,4.349-8.431,3.236-13.186A61.928,61.928,0,0,0,517.3,296.98a18.857,18.857,0,0,0-14.96-7.608c-6.587-.51-13.429.07-19.332,3.027a51.373,51.373,0,0,0-9.278,6.483L457.5,312.126a15.412,15.412,0,0,0-3.943,4.152,11.365,11.365,0,0,0-1.229,4.349,23.438,23.438,0,0,0,10.924,22.116,17.291,17.291,0,0,1,10.356-16.236,4.5,4.5,0,0,1,1.612,3.352l3.421-6.1a6.715,6.715,0,0,1,2.319-2.749c2.111-1.16,4.743.209,6.541,1.844s3.549,3.676,5.961,3.931l.093-9.08" transform="translate(-1.98 186.482)" opacity="0.1"/>
      <path id="Path_333" data-name="Path 333" d="M493.256,324a23.75,23.75,0,0,1,3.862-15.911c-1.044,9.278,5.949,18.857,15.157,20.643a2.54,2.54,0,0,1-.731-2.795c2.377,2.69,4.2,5.868,6.889,8.245s6.726,3.781,9.892,2.087c4.3-2.319,4.349-8.431,3.236-13.174a61.928,61.928,0,0,0-14.253-27.218,22.811,22.811,0,0,0-7.967-6.193,23.2,23.2,0,0,0-6.958-1.415c-6.587-.51-13.429.058-19.332,3.015a52.023,52.023,0,0,0-9.278,6.494l-16.236,13.244a15.25,15.25,0,0,0-3.943,4.152,11.306,11.306,0,0,0-1.229,4.349,23.426,23.426,0,0,0,10.924,22.1A17.315,17.315,0,0,1,473.645,325.4a4.534,4.534,0,0,1,1.612,3.352l3.41-6.077a6.645,6.645,0,0,1,2.319-2.749c2.111-1.16,4.743.209,6.541,1.844s3.549,3.665,5.961,3.931l.093-9.092" transform="translate(-1.973 186.306)" fill="#3f3d56"/>
      <path id="Path_334" data-name="Path 334" d="M515.738,513.774c-2.98-1.508-52.268,6.181-52.268,6.181s-8.118-2.319-27.74-5.543-20.875-22.406-20.875-22.406l-2.145-38.4,6.622-5.8L447.7,466.365s.441,9.382,0,11.075c-.278,1.16-1.021,2.54-.951,3.479a1.16,1.16,0,0,0,.951,1.044c1.925.487,28.158,4.732,28.158,4.732s60.8-4.163,75.961,16.317a15.4,15.4,0,0,1,2.679,5.056C558.253,522.066,518.44,515.108,515.738,513.774Z" transform="translate(-8.289 211.811)" fill="#fbbebe"/>
      <path id="Path_335" data-name="Path 335" d="M549.967,503.579c-2.319,1.032-3.757,1.774-3.757,1.774s-21.756-.638-33.979-5.068-27.079-3.641-27.079-3.641-50.934-8.767-43.037-20.214a1.16,1.16,0,0,0,.951,1.044c1.925.487,28.158,4.732,28.158,4.732s60.8-4.163,75.961,16.317a15.4,15.4,0,0,1,2.783,5.056Z" transform="translate(-3.726 216.382)" opacity="0.1"/>
      <path id="Path_336" data-name="Path 336" d="M571.115,441.58s2.992,21.118,3.2,22.835,1.287,22.394,0,24.748-3.2,6.181-3.2,6.181,2.134,4.476-6.4,6.193-18.555,6.819-18.555,6.819-21.768-.638-33.921-5.114-27.091-3.63-27.091-3.63-64.653-11.1-36.913-24.644,47.362,4.8,47.362,4.8l30.929-1.914s11.527-7.051,14.728-6.4a11.841,11.841,0,0,0,6.61-1.067l.22-22.406Z" transform="translate(-3.721 210.816)" fill="#fbbebe"/>
      <path id="Path_337" data-name="Path 337" d="M421.437,396.925l-6.193-.325L396.48,469.661s20.26-5.126,28.993,0,24.748,6.181,24.748,6.181l-5.972-58.24Z" transform="translate(-10.881 203.633)" opacity="0.1"/>
      <path id="Path_338" data-name="Path 338" d="M421.437,395.815l-6.193-.325L396.48,468.551s20.26-5.126,28.993,0,24.748,6.181,24.748,6.181l-5.972-58.24Z" transform="translate(-10.881 203.456)" fill="#6c63ff"/>
      <path id="Path_339" data-name="Path 339" d="M542.254,409.57l8.524,1.925s21.768,31.312,23.472,33.063-8.118,8.118-12.165,8.118S538.2,455,532.431,460.353s-3.363-21.605-3.363-22.22,7.155-17.628,7.155-17.628Z" transform="translate(10.214 205.704)" opacity="0.1"/>
      <path id="Path_340" data-name="Path 340" d="M542.254,408.47l8.524,1.914s21.768,31.37,23.472,33.075-8.118,8.118-12.165,8.118-23.89,2.319-29.654,7.677-3.363-21.605-3.363-22.22,7.2-17.685,7.2-17.685Z" transform="translate(10.214 205.529)" fill="#6c63ff"/>
      <g id="Group_8" data-name="Group 8" transform="translate(450.283 491.835)" opacity="0.1">
        <path id="Path_341" data-name="Path 341" d="M497.06,305.8a17.1,17.1,0,0,1,.058-2.667,23.74,23.74,0,0,0-3.572,8.756v3.236c0,1.879,0,3.769-.058,5.648h-.162v.87a4.623,4.623,0,0,0-.058-.893c-2.319-.371-3.978-2.319-5.706-3.873s-4.43-3.038-6.541-1.844a6.646,6.646,0,0,0-2.319,2.749l-3.444,6.077a4.488,4.488,0,0,0-1.612-3.34,17.291,17.291,0,0,0-10.356,16.236,23.565,23.565,0,0,1-11.006-18.474A23.449,23.449,0,0,0,463.289,339.3a17.315,17.315,0,0,1,10.356-16.236,4.534,4.534,0,0,1,1.612,3.352l3.41-6.077a6.645,6.645,0,0,1,2.319-2.748c2.111-1.16,4.743.209,6.541,1.844s3.549,3.665,5.961,3.931q0-4.453.093-8.883a23.623,23.623,0,0,1,3.479-8.686Z" transform="translate(-452.256 -303.13)"/>
        <path id="Path_342" data-name="Path 342" d="M487.514,316.26c.058-.789.151-1.577.267-2.319l.128-3.2a23.472,23.472,0,0,0-.394,5.52Z" transform="translate(-446.63 -301.915)"/>
        <path id="Path_343" data-name="Path 343" d="M520.182,328.853c-3.166,1.693-7.2.278-9.892-2.087s-4.511-5.555-6.889-8.245a2.563,2.563,0,0,0,.731,2.806,2.734,2.734,0,0,1-.673-.174c2.319,2.667,4.163,5.8,6.831,8.118s6.726,3.781,9.892,2.087,4.071-5.659,3.792-9.521C523.765,324.875,522.675,327.508,520.182,328.853Z" transform="translate(-444.113 -300.672)"/>
        <path id="Path_344" data-name="Path 344" d="M505.366,323.143a19.715,19.715,0,0,1-14.45-17.233c-.661,9.1,6.2,18.23,15.192,19.982A2.551,2.551,0,0,1,505.366,323.143Z" transform="translate(-446.089 -302.686)"/>
      </g>
    </g>
  </g>
</svg>
