<svg xmlns="http://www.w3.org/2000/svg" viewBox="0 0 429.97 285.63"><title>Asset 1</title><g id="Layer_2" data-name="Layer 2"><g id="Layer_1-2" data-name="Layer 1"><path d="M91.74,23.33c7.58,2.56,15.33,5,22.93,7.85a7.8,7.8,0,0,0,7.9-.92c13.65-9,27.66-17.43,43.89-20.83A58.2,58.2,0,0,1,183,8.86c4.91.4,12.54,7.59,15.45,12.44-1.49,1.06-39.93,25.51-58,37-11,7-18,15.59-19,28a25.9,25.9,0,0,0,13,25c10,6,23,5,32-1,6.07-2.57,31-20,46.09-30.23,6.93-4.74,11.62-4.26,17.17,1.91q48,53.3,96,106.58c2.18,2.41,2.43,4.51,1.24,7.32-3.78,8.86-11.35,13-19.68,16.36a13.43,13.43,0,0,0-6,4.74,47.8,47.8,0,0,1-25.13,19.76,11.06,11.06,0,0,0-5.44,4.49c-6.61,11.38-23.34,22.07-30.11,20.19-3-11.44-9.77-20.37-18.81-27.66-2-1.65-2.74-3.08-2-5.6,8.57-28.86-13.69-41.41-21.06-42.13s-10.35-.44-14.11-6.35C173,161.25,155.51,155.13,135,172.13c-6.32-7.92-14-14-24.68-14.31-10.22-.28-18.81,4.24-26.92,10.31-10.14-10.71-20.18-21.23-30.07-31.89a5,5,0,0,1-.87-4.18q19.08-54,38.41-107.83C91,24,91.31,23.78,91.74,23.33Z"/><path d="M324.14,39.42c.37.66,34.08,63.75,50.3,93.85a10.4,10.4,0,0,1,.64,9.41c-3.92,10.81-9.1,20.84-17.55,28.79a61.58,61.58,0,0,1-10.68,8.06c-9.53,5.65-9.56,5.46-17-2.65Q279.06,121.24,228.19,65.65c-3.31-3.62-7.65-3.8-12.93-.52C195.16,77.61,175,90,155.05,102.7c-2.45,1.56-14.32-.42-18.56-7.4-3.93-6.47-.48-17.83,2.79-20,28.95-18.82,57.54-38.19,86.13-57.56,3.92-2.66,8-4.49,12.45-4A257,257,0,0,1,264.6,18.4a18.21,18.21,0,0,1,12.1,9.22c4.57,7.92,12.88,11,21.55,11.66C306.62,40,315.09,39.42,324.14,39.42Z"/><path d="M430,116.71l-32.43,20.87L338.45,28.78,369.08,0Z"/><path d="M50.94,0,83.52,16l-58,118.46L0,120.26Z"/><path d="M204,204.16c10.5,9.14,6,19.71,5.18,20.71q-14,16.74-28.13,33.31c-.75.89-11.7,4.36-19.12-2.76s-5.45-19.71-3.76-22.1C165.44,223,173,212.93,180.81,203,182.63,200.7,193.48,195,204,204.16Z"/><path d="M129.06,229.6c-6.57-2.3-13.78-16.89-6.79-25.71q10.71-13.53,21.5-27c5.36-6.69,13.49-8.75,20.61-2.18s22.11,12.57-18.5,54.61C143.16,232.16,135.63,231.89,129.06,229.6Z"/><path d="M93.49,195.3c-4.79-6.85-5.11-12.72,0-18,4.44-4.58,1.34-1.05,5.53-5.88a14.14,14.14,0,0,1,20.59-1.14c6.07,5.47,6.49,12.41,1.11,18.46-5,5.61-2,3.23-7.23,8.56C111.35,199.47,101.9,207.31,93.49,195.3Z"/><path d="M225.46,269.34c-3.83,3.83-7.21,8.1-10.84,12.13-6,6.71-17.49,5.08-21.12-3.35-2.69-6.24-3.29-12.59,2-18.25,2.92-3.15,5.6-6.55,8.28-9.9,7.73-9.67,15.64-7.31,20.73-2.67C230.09,252.4,234.49,260.3,225.46,269.34Z"/></g></g></svg>