<svg height="512pt" viewBox="0 0 512 512" width="512pt" xmlns="http://www.w3.org/2000/svg"><path d="m0 512h512v-90h-512zm422-60h30v30h-30zm-60 0h30v30h-30zm-60 0h30v30h-30zm-242 0h30v30h-30zm0 0"/><path d="m422 211h-83.445312l-21.886719-36.078125-60.667969 99.996094-60.667969-99.996094-21.886719 36.078125h-83.445312v91h332zm0 0"/><path d="m0 0v392h512v-392zm452 332h-392v-272h392zm0 0"/><path d="m195.332031 117.078125 60.667969 100.003906 60.667969-100.003906 38.777343 63.921875h66.554688v-91h-332v91h66.554688zm0 0"/></svg>