<svg xmlns="http://www.w3.org/2000/svg" width="35.278" height="34.764" viewBox="0 0 35.278 34.764">
  <g id="location" transform="translate(0 -5.246)">
    <g id="Group_53" data-name="Group 53" transform="translate(0 5.246)">
      <g id="Group_52" data-name="Group 52" transform="translate(0 0)">
        <path id="Path_185" data-name="Path 185" d="M103.165,29.151c-1.453,2.053-2.9,3.889-3.865,5.071-.14.172-.271.332-.4.485h2.9a.589.589,0,0,1,0,1.178H92.4a.589.589,0,0,1,0-1.178h2.9l-.4-.485c-.961-1.178-2.411-3.018-3.864-5.071a51.783,51.783,0,0,1-3.884-6.273,13.8,13.8,0,0,1-1.81-5.83A11.788,11.788,0,0,1,88.783,8.7a.589.589,0,1,1,.832.832,10.613,10.613,0,0,0-3.1,7.511A12.72,12.72,0,0,0,88.2,22.343a50.614,50.614,0,0,0,3.8,6.127c1.433,2.026,2.866,3.841,3.816,5.008.316.388.6.731.842,1.02a.595.595,0,0,0,.9,0c.242-.29.526-.633.842-1.02.95-1.166,2.382-2.981,3.816-5.008a50.615,50.615,0,0,0,3.8-6.127,12.7,12.7,0,0,0,1.682-5.295A10.587,10.587,0,0,0,92.977,7.261a.589.589,0,0,1-.459-1.085,11.774,11.774,0,0,1,16.34,10.872,13.821,13.821,0,0,1-1.81,5.833A51.748,51.748,0,0,1,103.165,29.151Z" transform="translate(-79.46 -5.246)" fill="#202334"/>
        <path id="Path_186" data-name="Path 186" d="M176.539,83.263a.589.589,0,0,1,0-1.178,5.891,5.891,0,1,1-4.158,1.726.589.589,0,1,1,.831.833,4.7,4.7,0,1,0,3.326-1.38Z" transform="translate(-158.9 -76.78)" fill="#202334"/>
        <path id="Path_187" data-name="Path 187" d="M.222,371.09l3.616-6.481a1.827,1.827,0,0,1,1.6-.926h4.19a.589.589,0,0,1,0,1.178H5.438a.652.652,0,0,0-.574.322l-3.615,6.481a.531.531,0,0,0,.005.544.646.646,0,0,0,.569.312H33.456a.646.646,0,0,0,.569-.312.531.531,0,0,0,.005-.544l-3.615-6.481a.651.651,0,0,0-.574-.322H25.65a.589.589,0,0,1,0-1.178h4.19a1.828,1.828,0,0,1,1.6.926l3.615,6.481a1.712,1.712,0,0,1-.018,1.715,1.81,1.81,0,0,1-1.583.894H1.823a1.81,1.81,0,0,1-1.583-.894A1.712,1.712,0,0,1,.222,371.09Z" transform="translate(0 -338.935)" fill="#202334"/>
        <path id="Path_188" data-name="Path 188" d="M350.457,406.351h2.352a.59.59,0,0,1,.326.1l1.764,1.178a.589.589,0,0,1-.653.98l-1.614-1.079h-2.175a.589.589,0,0,1,0-1.178Z" transform="translate(-343.989 -378.657)" fill="#202334"/>
        <path id="Path_189" data-name="Path 189" d="M372.817,458.14a.589.589,0,0,1-.588.589h-4.7a.589.589,0,0,1,0-1.178h4.7A.589.589,0,0,1,372.817,458.14Z" transform="translate(-362.822 -426.322)" fill="#202334"/>
        <path id="Path_190" data-name="Path 190" d="M85.926,408.707a.589.589,0,0,1-.327-1.079l1.764-1.178a.591.591,0,0,1,.327-.1h2.352a.589.589,0,0,1,0,1.178H87.866l-1.616,1.079A.586.586,0,0,1,85.926,408.707Z" transform="translate(-61.231 -378.656)" fill="#202334"/>
        <path id="Path_191" data-name="Path 191" d="M65.029,457.551a.589.589,0,0,1,0,1.178h-4.7a.589.589,0,0,1,0-1.178Z" transform="translate(-34.454 -426.322)" fill="#202334"/>
      </g>
    </g>
  </g>
</svg>
