<svg xmlns="http://www.w3.org/2000/svg" width="31.833" height="31.854" viewBox="0 0 31.833 31.854">
  <path id="phone" d="M825.942,689.973A38.2,38.2,0,0,0,844.3,707.245c3.01,1.137,5.589,1.234,6.568.254.2-.2.4-.395.622-.6,1.1-1.045,2.347-2.229,2.293-3.544-.037-.9-.7-1.874-1.954-2.886-3.769-3.031-4.822-1.961-6.57-.189l-.343.346c-.835.837-2.192.647-4.034-.546a31.3,31.3,0,0,1-4.693-4.017c-4.532-4.532-5.98-7.3-4.562-8.724l.341-.337c1.78-1.748,2.848-2.8-.183-6.573-1.011-1.26-1.981-1.918-2.883-1.956l-.084,0c-1.28,0-2.436,1.214-3.458,2.293-.206.216-.4.426-.6.622-.941.94-.879,3.353.126,6.2l-.978.43c-1.207-3.36-1.183-6.109.095-7.386.189-.189.382-.393.582-.6,1.2-1.265,2.559-2.688,4.363-2.626,1.241.052,2.444.822,3.675,2.355,3.642,4.526,2,6.139.1,8.011l-.335.332c-.311.311-.9,1.749,4.562,7.209a30.282,30.282,0,0,0,4.516,3.876c.765.5,2.132,1.249,2.693.688l.337-.341c1.868-1.894,3.48-3.53,8,.106,1.533,1.232,2.3,2.433,2.354,3.676.074,1.8-1.36,3.162-2.626,4.364-.209.2-.413.392-.6.58a4.172,4.172,0,0,1-3.018.984,13.676,13.676,0,0,1-4.685-1,39.224,39.224,0,0,1-18.946-17.826Z" transform="translate(-823.018 -677.397)" fill="#202334"/>
</svg>
