<svg xmlns="http://www.w3.org/2000/svg" width="42.41" height="37.434" viewBox="0 0 42.41 37.434">
  <g id="right-quote-sign" transform="translate(42.408 94.631) rotate(180)">
    <path id="Path_31" data-name="Path 31" d="M572.243,57.2H559.02a2.176,2.176,0,0,0-2.175,2.175V72.595a2.176,2.176,0,0,0,2.175,2.175h6.329a14.391,14.391,0,0,1-2.41,8.316,13.1,13.1,0,0,1-5.45,4.08,2.172,2.172,0,0,0-1.079,2.919l1.566,3.306a2.175,2.175,0,0,0,2.832,1.061,24.18,24.18,0,0,0,7.294-4.732,18.361,18.361,0,0,0,4.972-7.912,42.864,42.864,0,0,0,1.344-12.04v-10.4A2.176,2.176,0,0,0,572.243,57.2Z" transform="translate(-532.009)" fill="#dce5f2"/>
    <path id="Path_32" data-name="Path 32" d="M4.611,94.443a24.587,24.587,0,0,0,7.259-4.724,18.264,18.264,0,0,0,5-7.881,42.809,42.809,0,0,0,1.344-12.07v-10.4A2.176,2.176,0,0,0,16.042,57.2H2.819A2.176,2.176,0,0,0,.644,59.372V72.595a2.176,2.176,0,0,0,2.175,2.175H9.148a14.391,14.391,0,0,1-2.41,8.316,13.1,13.1,0,0,1-5.45,4.08A2.172,2.172,0,0,0,.209,90.084l1.562,3.3A2.181,2.181,0,0,0,4.611,94.443Z" transform="translate(0 0)" fill="#dce5f2"/>
  </g>
</svg>
