<svg xmlns="http://www.w3.org/2000/svg" width="46" height="55.847" viewBox="0 0 46 55.847">
  <path id="user" d="M48.014,42.889l-9.553-4.776A2.63,2.63,0,0,1,37,35.748V32.367c.229-.28.47-.6.719-.951a22.886,22.886,0,0,0,2.954-5.8A3.968,3.968,0,0,0,43,22V18a3.988,3.988,0,0,0-1-2.625V10.056a8.965,8.965,0,0,0-2.092-6.525C37.854,1.188,34.521,0,30,0s-7.854,1.188-9.908,3.53A8.967,8.967,0,0,0,18,10.056v5.319A3.988,3.988,0,0,0,17,18v4a3.976,3.976,0,0,0,1.5,3.109A20.988,20.988,0,0,0,22,32.346v3.309a2.642,2.642,0,0,1-1.377,2.32L11.7,42.841A9.018,9.018,0,0,0,7,50.762v5.085H53v-4.89A8.973,8.973,0,0,0,48.014,42.889ZM51,54H9V50.762A7.016,7.016,0,0,1,12.659,44.6l8.921-4.866A4.644,4.644,0,0,0,24,35.655V31.636l-.233-.278a18.879,18.879,0,0,1-3.41-7.065l-.091-.4-.341-.22A2,2,0,0,1,19,22V18a1.974,1.974,0,0,1,.67-1.475l.33-.3V10l-.009-.131a6.944,6.944,0,0,1,1.6-5.021C23.253,2.958,26.081,2,30,2s6.727.951,8.386,2.828a7.039,7.039,0,0,1,1.623,5.041L40,16.228l.33.3A1.97,1.97,0,0,1,41,18v4a1.989,1.989,0,0,1-1.422,1.9l-.5.153-.16.5a20.934,20.934,0,0,1-2.834,5.713,13.157,13.157,0,0,1-.837,1.079L35,31.623v4.125A4.618,4.618,0,0,0,37.566,39.9l9.553,4.776A6.982,6.982,0,0,1,51,50.957Z" transform="translate(-7)" fill="#26394b"/>
</svg>
